<?xml version="1.0" encoding="utf-8"?>
<!-- Generator: Adobe Illustrator 22.0.1, SVG Export Plug-In . SVG Version: 6.00 Build 0)  -->
<svg version="1.1" id="Layer_1" xmlns="http://www.w3.org/2000/svg" xmlns:xlink="http://www.w3.org/1999/xlink" x="0px" y="0px"
	 viewBox="0 0 1000 1000" style="enable-background:new 0 0 1000 1000;" xml:space="preserve">
<style type="text/css">
	.st0{fill:#F3D454;}
	.st1{fill:#F15C62;}
	.st2{fill:#FFFFFF;}
	.st3{fill:#00A1AF;}
</style>
<g>
	<path class="st0" d="M500,78c-214.1,0-387.7,173.6-387.7,387.7c0,116.6,51.5,221.2,132.9,292.2L221,922l182-80.8
		c31,8,63.5,12.2,97,12.2c214.1,0,387.7-173.6,387.7-387.7S714.1,78,500,78z"/>
	<polygon points="295.2,526 240.2,526 240.2,476.1 221,476.1 221,603.6 240.2,603.6 240.2,544 295.2,544 295.2,603.6 314.4,603.6 
		314.4,476.1 295.2,476.1 	"/>
	<path d="M571.2,552.9c0,11.1-1.8,19.1-5.4,24c-5.3,7.3-12.9,11-22.6,11c-9.7,0-17.2-3.7-22.5-11c-3.6-5.1-5.4-13.1-5.4-24v-76.8
		h-19.2v82.1c0,13.4,4.2,24.5,12.5,33.2c9.4,9.7,20.9,14.5,34.6,14.5c13.7,0,25.3-4.8,34.7-14.5c8.4-8.7,12.5-19.8,12.5-33.2v-82.1
		h-19.2V552.9z"/>
	<path d="M666.5,527.8l-12.7-5.2c-9.2-3.8-13.9-8.8-13.9-15c0-4.5,1.8-8.3,5.3-11.2c3.5-3,8-4.5,13.3-4.5c4.3,0,7.9,0.9,10.7,2.6
		c2.6,1.5,5.4,4.8,8.3,9.9l15.6-9.2c-8.3-14.3-19.7-21.5-34.4-21.5c-10.9,0-20,3.2-27.3,9.7c-7.3,6.4-11,14.4-11,24
		c0,14.2,8.7,25,26.2,32.4l12.3,5.1c3.2,1.4,5.9,2.8,8.3,4.3c2.3,1.5,4.2,3.1,5.7,4.9c1.5,1.7,2.5,3.6,3.2,5.7c0.7,2.1,1,4.3,1,6.8
		c0,6.2-2,11.3-5.9,15.3c-4,4-8.9,6-14.9,6c-7.6,0-13.4-2.8-17.3-8.3c-2.2-2.9-3.7-8-4.6-15.5l-19.5,4.3
		c1.8,11.9,6.2,21.1,13.3,27.7c7.2,6.5,16.3,9.8,27.4,9.8c11.7,0,21.4-3.9,29.3-11.6c7.8-7.6,11.7-17.3,11.7-29.1
		c0-8.8-2.4-16.1-7.2-22.2C684.4,537.1,676.8,532,666.5,527.8z"/>
	<polygon points="789.9,494.2 789.9,476.1 719.5,476.1 719.5,603.6 789.9,603.6 789.9,585.5 738.8,585.5 738.8,542.9 788.4,542.9 
		788.4,524.8 738.8,524.8 738.8,494.2 	"/>
	<path class="st1" d="M360.8,457.7c37,0,67-30,67-67c0-20.2-8.9-38.2-23-50.5l4.2-28.4l-31.5,14c-5.4-1.4-11-2.1-16.8-2.1
		c-37,0-67,30-67,67S323.8,457.7,360.8,457.7z"/>
	<g>
		<path d="M248.7,379.6l-12.7-5.2c-9.2-3.8-13.9-8.8-13.9-15c0-4.5,1.8-8.3,5.3-11.2c3.5-3,8-4.5,13.3-4.5c4.3,0,7.9,0.9,10.6,2.6
			c2.6,1.5,5.4,4.8,8.3,9.9l15.6-9.2c-8.3-14.3-19.7-21.5-34.4-21.5c-10.9,0-20,3.2-27.3,9.7c-7.3,6.4-11,14.4-11,24
			c0,14.2,8.7,25,26.2,32.4l12.3,5.1c3.2,1.4,5.9,2.8,8.3,4.3c2.3,1.5,4.2,3.1,5.7,4.9c1.5,1.7,2.5,3.6,3.2,5.7c0.7,2.1,1,4.3,1,6.8
			c0,6.2-2,11.3-5.9,15.3c-4,4-8.9,6-14.9,6c-7.6,0-13.4-2.8-17.3-8.3c-2.2-2.9-3.7-8-4.6-15.5l-19.5,4.3
			c1.8,11.9,6.2,21.1,13.3,27.7c7.2,6.5,16.3,9.8,27.4,9.8c11.7,0,21.4-3.9,29.3-11.6c7.8-7.6,11.7-17.3,11.7-29.1
			c0-8.8-2.4-16.1-7.2-22.2C266.6,388.9,259,383.8,248.7,379.6z"/>
		<path d="M462.6,348.8c-10.7,12.7-16.1,27.2-16.1,43.4c0,18.1,6.4,33.6,19.2,46.4c12.9,12.7,28.4,19.1,46.6,19.1
			c12.1,0,23.7-3.1,34.7-9.3v-23.2c-3.1,2.6-6.1,4.9-9,6.8s-5.6,3.4-8.2,4.5c-4.7,2.2-10.5,3.3-17.3,3.3c-13.1,0-24.2-4.6-33.2-13.8
			c-9-9.2-13.5-20.5-13.5-33.8c0-13.5,4.5-25,13.5-34.3c9-9.4,20-14.1,33.1-14.1c11.9,0,23.4,4.7,34.5,14v-22.8
			c-10.7-6.2-21.7-9.3-33.2-9.3C492.9,325.5,475.8,333.3,462.6,348.8z"/>
		<rect x="571.3" y="328" width="19.2" height="127.5"/>
		<path d="M606.6,455.4h20.7l14.2-31h54.6l13.4,31h21.1l-60.8-135.5L606.6,455.4z M649.5,406.4l19.8-43.3l18.9,43.3H649.5z"/>
		<polygon points="765.7,437.3 765.7,328 746.4,328 746.4,455.4 803.1,455.4 803.1,437.3 		"/>
	</g>
	<g>
		<path class="st2" d="M331.9,378.4v32.9h-5.8v-32.9h-8.8v-5.4h23.4v5.4H331.9z"/>
		<path class="st2" d="M351.7,387.9h16.5v-15h5.8v38.4h-5.8v-17.9h-16.5v17.9h-5.8v-38.4h5.8V387.9z"/>
		<path class="st2" d="M404.4,378.4H389v9.2h14.9v5.4H389v12.8h15.4v5.4h-21.2v-38.4h21.2V378.4z"/>
	</g>
	<path class="st3" d="M405.8,474.9c-37,0-67,30-67,67c0,20.2,8.9,38.2,23,50.5l-4.2,28.4l31.5-14c5.4,1.4,11,2.1,16.8,2.1
		c37,0,67-30,67-67S442.8,474.9,405.8,474.9z"/>
</g>
<g>
	<path d="M815.6,330.2h-4.9v13.5H808v-13.5h-4.9V328h12.5V330.2z"/>
	<path d="M821.2,328l4.5,12l4.5-12h3.5v15.7h-2.7v-5.2l0.3-6.9l-4.6,12.1h-2l-4.6-12.1l0.3,6.9v5.2h-2.7V328H821.2z"/>
</g>
</svg>
