<?xml version="1.0" encoding="UTF-8" standalone="no"?>
<!-- Created with Inkscape (http://www.inkscape.org/) -->

<svg
   width="113.43807mm"
   height="77.352432mm"
   viewBox="0 0 113.43807 77.352432"
   version="1.1"
   id="svg1"
   xmlns:inkscape="http://www.inkscape.org/namespaces/inkscape"
   xmlns:sodipodi="http://sodipodi.sourceforge.net/DTD/sodipodi-0.dtd"
   xmlns="http://www.w3.org/2000/svg"
   xmlns:svg="http://www.w3.org/2000/svg">
  <sodipodi:namedview
     id="namedview1"
     pagecolor="#ffffff"
     bordercolor="#666666"
     borderopacity="1.0"
     inkscape:showpageshadow="2"
     inkscape:pageopacity="0.0"
     inkscape:pagecheckerboard="0"
     inkscape:deskcolor="#d1d1d1"
     inkscape:document-units="mm" />
  <defs
     id="defs1" />
  <g
     inkscape:label="Layer 1"
     inkscape:groupmode="layer"
     id="layer1"
     transform="translate(-46.831262,-51.329146)">
    <path
       id="path164"
       d="m 113.5477,118.80871 c -17.992731,0.49036 -37.253693,-0.27728 -55.194914,-1.72332 -1.224844,-0.0984 -2.550583,-0.24483 -3.445228,-1.08761 -0.842786,-0.79375 -1.097491,-2.01895 -1.2319,-3.16865 -0.885472,-7.57767 0.244122,-15.916631 0.0099,-23.644229 -0.248356,-8.199614 -0.468136,-16.399934 -0.659694,-24.60096 -0.03916,-1.671461 -0.04092,-3.469217 0.912636,-4.842933 1.479197,-2.130778 4.507794,-2.308931 7.10177,-2.27577 30.337479,0.386645 60.67496,0.773642 91.01244,1.160286 1.8101,0.02328 3.7599,0.09208 5.19747,1.192036 1.02517,0.784578 1.6383,1.993901 2.05176,3.216981 1.02658,3.038828 1.00683,6.318603 0.94156,9.525354 -0.18027,8.855781 -0.623,17.70627 -1.3275,26.535593 -0.35207,4.414312 -0.7613,8.825092 -1.25272,13.225992 -0.44626,3.99203 -3.09809,4.92019 -6.91656,5.19995 -5.19042,0.38064 -10.40765,0.39264 -15.59948,0.036 -0.2293,1.65947 -0.0367,4.10563 1.87219,6.69925 1.48449,2.01648 3.42054,2.45992 4.5519,2.7185 -13.79891,2.08845 -22.08531,1.01177 -28.02361,-8.16645"
       style="fill:#272525;fill-opacity:1;fill-rule:nonzero;stroke:none;stroke-width:0.0352778" />
    <path
       id="path165"
       d="m 108.65467,113.56291 c -17.992729,0.49 -37.253338,-0.27729 -55.194559,-1.72332 -1.224845,-0.0984 -2.550583,-0.24483 -3.445228,-1.08762 -0.842786,-0.79375 -1.097492,-2.01895 -1.2319,-3.16865 -0.885472,-7.57767 0.244122,-15.916627 0.0099,-23.644225 -0.248356,-8.199614 -0.468489,-16.399934 -0.660048,-24.60096 -0.0388,-1.671461 -0.04092,-3.469216 0.912637,-4.842933 1.47955,-2.130778 4.507794,-2.308931 7.102122,-2.27577 30.33748,0.386645 60.674956,0.773289 91.012436,1.160286 1.8101,0.02328 3.75991,0.09208 5.19712,1.192037 1.02518,0.784577 1.63866,1.9939 2.05211,3.21698 1.02659,3.038476 1.00683,6.318603 0.94157,9.525354 -0.18027,8.855781 -0.62336,17.705917 -1.32786,26.53524 -0.35207,4.414309 -0.76129,8.825441 -1.25271,13.226341 -0.44591,3.99169 -3.09845,4.91984 -6.91621,5.19995 -5.19042,0.38029 -10.40801,0.39264 -15.60019,0.036 -0.27552,3.20887 0.44803,7.1434 2.31458,9.76736 1.8669,2.62467 4.6863,4.55542 7.80767,5.34776 -13.79855,2.08844 -25.78276,-4.68559 -31.72142,-13.86381"
       style="fill:#ffffff;fill-opacity:1;fill-rule:nonzero;stroke:none;stroke-width:0.0352778" />
    <path
       id="path166"
       d="m 154.00672,69.757428 c -0.25894,10.113434 -0.86254,20.217695 -1.79916,30.290912 -0.23002,2.47403 -0.40711,4.97523 -0.76659,7.43409 -0.1076,0.7373 -0.30727,1.44004 -0.70203,2.07715 -0.12841,0.20779 -0.28928,0.40076 -0.53481,0.63853 -0.0109,0.0109 -0.0434,0.0395 -0.0646,0.0582 -0.0406,0.0324 -0.0808,0.0646 -0.12206,0.0952 -0.12806,0.0953 -0.26317,0.18203 -0.40075,0.26317 -0.0423,0.0166 -0.27023,0.13159 -0.31927,0.15346 -0.0543,0.024 -0.3242,0.12488 -0.34537,0.13723 -0.32491,0.10407 -0.65475,0.19121 -0.98883,0.2607 -0.27905,0.0579 -0.50165,0.0935 -0.97261,0.14817 -0.47202,0.0543 -0.94615,0.09 -1.42029,0.12241 -2.52553,0.17533 -5.05707,0.26353 -7.58895,0.26459 -2.42253,0.001 -4.84576,-0.0924 -7.26264,-0.25612 -0.55845,-0.0381 -1.6958,0.23495 -1.75542,0.97226 -0.27376,3.40289 0.35666,7.1314 2.29094,10.0016 1.26294,1.87431 3.02542,3.40748 5.02285,4.4898 -3.48157,0.0639 -6.95431,-0.4325 -10.28841,-1.53317 -4.25768,-1.40511 -8.24477,-3.74156 -11.51573,-6.8139 -1.73214,-1.62737 -3.27131,-3.45193 -4.57517,-5.43878 -0.0286,-0.0582 -0.0677,-0.10901 -0.11501,-0.1531 -0.23495,-0.28293 -0.68157,-0.35278 -1.13312,-0.27235 -9.700333,0.25788 -19.40772,0.15311 -29.10417,-0.20567 -4.922662,-0.18274 -9.842854,-0.43145 -14.759165,-0.73977 -2.424289,-0.1524 -4.84752,-0.31891 -7.270045,-0.50024 -1.164167,-0.0868 -2.328686,-0.17674 -3.4925,-0.27094 -0.913695,-0.0741 -1.912409,-0.11818 -2.688167,-0.66428 -0.790575,-0.55668 -1.046339,-1.58608 -1.192742,-2.48743 -0.182033,-1.12254 -0.256469,-2.26977 -0.321027,-3.40431 -0.136525,-2.39324 -0.106187,-4.794601 -0.03739,-7.189962 0.138995,-4.82847 0.411339,-9.639301 0.2667,-14.471298 -0.154164,-5.133623 -0.297039,-10.267598 -0.428625,-15.401926 -0.06597,-2.567164 -0.128764,-5.133976 -0.189089,-7.701492 -0.04198,-1.791406 -0.2286,-4.192059 1.225197,-5.485342 0.315031,-0.280106 0.54222,-0.394759 0.874537,-0.541514 0.348191,-0.153812 0.665339,-0.242712 1.150055,-0.344312 0.670984,-0.141111 1.730375,-0.195086 2.56787,-0.202847 2.33045,-0.02187 4.873272,0.05644 7.284509,0.08714 5.103636,0.06526 10.207625,0.130175 15.311262,0.195439 10.243609,0.130528 20.486865,0.261056 30.73048,0.391584 10.27889,0.131233 20.55812,0.262114 30.837,0.393347 2.54035,0.03245 5.08178,0.05115 7.62212,0.09772 1.97026,0.03634 3.94688,0.2032 5.16891,1.947687 1.24636,1.779411 1.60549,4.213578 1.78082,6.328128 0.19932,2.399947 0.0815,4.826353 0.0205,7.230181 z m 2.56999,-7.503937 c -0.15734,-2.287764 -0.56656,-4.696178 -1.74237,-6.701367 -1.17334,-2.000956 -3.27166,-2.793647 -5.49169,-2.973917 -2.48215,-0.201789 -5.01015,-0.107244 -7.49971,-0.138994 -2.64124,-0.03351 -5.28249,-0.06738 -7.92374,-0.100895 -5.31777,-0.06773 -10.63554,-0.135819 -15.95402,-0.203552 -10.60027,-0.135114 -21.200536,-0.270228 -31.800803,-0.405342 -5.282142,-0.06738 -10.564637,-0.134761 -15.846779,-0.202142 -2.676878,-0.03422 -5.353756,-0.06809 -8.030281,-0.102305 -2.479675,-0.03175 -4.977342,-0.155575 -7.455253,-0.06068 -2.01295,0.0769 -4.2164,0.450497 -5.828948,1.749072 -1.811514,1.458384 -2.196747,3.596217 -2.170642,5.808487 0.06209,5.236633 0.252589,10.475736 0.397228,15.710959 0.142523,5.166431 0.398286,10.334273 0.239184,15.50282 -0.154517,5.015795 -0.497417,10.035825 -0.202142,15.053035 0.12065,2.05175 0.05962,4.78754 1.748719,6.25933 0.847726,0.73837 1.958623,1.02059 3.050823,1.16487 1.164872,0.15417 2.348442,0.20744 3.520017,0.29704 4.999214,0.38171 10.003367,0.70309 15.010342,0.96026 10.219973,0.52423 20.455821,0.78458 30.688845,0.6918 2.14242,-0.0194 4.28449,-0.0586 6.42655,-0.11218 5.25428,7.82884 14.08783,12.91519 23.40787,14.00492 3.02683,0.35384 6.10553,0.28858 9.1186,-0.15945 0.49424,-0.0734 1.09961,-0.26388 1.34938,-0.74789 0.20355,-0.3937 -0.0339,-0.8188 -0.45509,-0.92816 -3.04024,-0.79234 -5.75909,-2.65818 -7.52087,-5.27226 -1.55151,-2.30223 -2.16923,-5.27826 -2.11878,-8.06768 4.70182,0.24942 9.42234,0.2152 14.11817,-0.127 1.73319,-0.12665 3.56517,-0.35701 5.12762,-1.17157 1.50248,-0.78282 2.546,-1.99919 3.04377,-3.62127 0.31327,-1.02129 0.35983,-2.11561 0.47272,-3.17112 0.13794,-1.29363 0.26882,-2.58727 0.39405,-3.88161 0.25012,-2.589392 0.4752,-5.181603 0.68087,-7.774873 0.41486,-5.227108 0.73765,-10.461625 0.96872,-15.700023 0.11713,-2.655006 0.21026,-5.310717 0.28046,-7.966781 0.0663,-2.534003 0.1711,-5.08 -0.003,-7.611534"
       style="fill:#272525;fill-opacity:1;fill-rule:nonzero;stroke:none;stroke-width:0.0352778" />
  </g>
</svg>
