<?xml version="1.0" encoding="utf-8"?>
<!-- Generator: Adobe Illustrator 23.0.3, SVG Export Plug-In . SVG Version: 6.00 Build 0)  -->
<svg version="1.1" id="Layer_1" xmlns="http://www.w3.org/2000/svg" xmlns:xlink="http://www.w3.org/1999/xlink" x="0px" y="0px"
	 viewBox="0 0 859.6 693.9" style="enable-background:new 0 0 859.6 693.9;" xml:space="preserve">
<style type="text/css">
	.st0{display:none;fill:#1500BF;stroke:#F2F2F2;stroke-miterlimit:10;}
	.st1{opacity:0.5;}
	.st2{opacity:0.3;}
	.st3{fill:none;stroke:#F2F2F2;stroke-miterlimit:10;}
	.st4{opacity:0.31;}
	.st5{opacity:0.14;fill:none;stroke:#F2F2F2;stroke-width:3;stroke-miterlimit:10;enable-background:new    ;}
	.st6{opacity:0.13;fill:none;stroke:#F2F2F2;stroke-miterlimit:10;enable-background:new    ;}
	.st7{opacity:0.13;fill:none;stroke:#F2F2F2;stroke-width:2;stroke-miterlimit:10;enable-background:new    ;}
</style>
<rect x="1.3" y="0.4" class="st0" width="858" height="691"/>
<g class="st1">
	<g>
		<g class="st2">
			<g class="st1">
				<g>
					<polyline class="st3" points="1.8,327 350.5,327 409.3,385.8 846.8,385.8 					"/>
				</g>
				<g>
					<polyline class="st3" points="1.8,332.8 350.5,332.8 409.3,391.6 846.8,391.6 					"/>
				</g>
				<g>
					<polyline class="st3" points="1.8,338.6 350.5,338.6 409.3,397.4 846.8,397.4 					"/>
				</g>
				<g>
					<polyline class="st3" points="1.8,344.5 350.5,344.5 409.3,403.3 846.8,403.3 					"/>
				</g>
				<g>
					<polyline class="st3" points="1.8,350.3 350.5,350.3 409.3,409.1 846.8,409.1 					"/>
				</g>
			</g>
			<g class="st1">
				<g>
					<polyline class="st3" points="284.6,543.5 633.2,543.5 692,602.3 859.6,602.3 					"/>
				</g>
				<g>
					<polyline class="st3" points="284.6,549.3 633.2,549.3 692,608.1 859.6,608.1 					"/>
				</g>
				<g>
					<polyline class="st3" points="284.6,555.1 633.2,555.1 692,613.9 859.6,613.9 					"/>
				</g>
				<g>
					<polyline class="st3" points="284.6,560.9 633.2,560.9 692,619.7 859.6,619.7 					"/>
				</g>
				<g>
					<polyline class="st3" points="284.6,566.8 633.2,566.8 692,625.5 859.6,625.5 					"/>
				</g>
			</g>
			<g class="st1">
				<g>
					<polyline class="st3" points="679.5,647 679.5,298.3 738.3,239.5 738.3,0.9 					"/>
				</g>
				<g>
					<polyline class="st3" points="685.3,647 685.3,298.3 744.1,239.5 744.3,0.9 					"/>
				</g>
				<g>
					<polyline class="st3" points="691.1,647 691.1,298.3 749.9,239.5 750.3,2.9 					"/>
				</g>
				<g>
					<polyline class="st3" points="697,647 697,298.3 755.7,239.5 755.3,1.9 					"/>
				</g>
			</g>
			<g class="st1">
				<g>
					<polyline class="st3" points="228.1,691.7 228.1,613 286.9,554.3 287.3,200.9 					"/>
				</g>
				<g>
					<polyline class="st3" points="233.9,691.7 233.9,613 292.7,554.3 292.3,201.9 					"/>
				</g>
				<g>
					<polyline class="st3" points="239.7,691.7 239.7,613 298.5,554.3 298.3,201.9 					"/>
				</g>
				<g>
					<polyline class="st3" points="245.5,691.7 245.5,613 304.3,554.3 304.3,201.9 					"/>
				</g>
				<g>
					<polyline class="st3" points="251.4,691.7 251.4,613 310.1,554.3 310.3,201.9 					"/>
				</g>
			</g>
			<g class="st1">
				<g>
					<polyline class="st3" points="33.6,575 33.6,226.4 99.3,167.6 99.3,0 					"/>
				</g>
				<g>
					<polyline class="st3" points="39.4,575 39.4,226.4 105.2,167.6 105.2,0 					"/>
				</g>
				<g>
					<polyline class="st3" points="45.2,575 45.2,226.4 111,167.6 111,0 					"/>
				</g>
				<g>
					<polyline class="st3" points="51,575 51,226.4 116.8,167.6 116.8,0 					"/>
				</g>
				<g>
					<polyline class="st3" points="56.8,575 56.8,226.4 122.6,167.6 122.6,0 					"/>
				</g>
			</g>
			<g class="st1">
				<g>
					<polyline class="st3" points="575.3,691.9 575.4,506.8 634.2,448 634.3,202.9 					"/>
				</g>
				<g>
					<polyline class="st3" points="581.3,687.9 581.2,506.8 640,448 640.3,203.9 					"/>
				</g>
				<g>
					<polyline class="st3" points="587.3,688.9 587,506.8 645.8,448 645.3,204.9 					"/>
				</g>
				<g>
					<polyline class="st3" points="592.3,688.9 592.8,506.8 651.6,448 651.3,205.9 					"/>
				</g>
				<g>
					<polyline class="st3" points="598.3,688.9 598.6,506.8 657.4,448 657.3,206.9 					"/>
				</g>
			</g>
		</g>
	</g>
</g>
<g>
	<g>
		<g class="st4">
			<g>
				<polyline class="st5" points="676.3,195.9 675.6,534.1 252.1,534.1 91.9,692.5 				"/>
			</g>
			<g class="st1">
				<polyline class="st3" points="630.3,194.9 630.7,334.1 514,449.2 514,693.4 				"/>
				<polyline class="st3" points="630.3,194.4 761,323.2 577,504.6 767.9,692.5 				"/>
				<polyline class="st3" points="630.7,194.8 547.3,277.2 660.8,389.1 849.2,389.1 				"/>
				<polyline class="st3" points="855.2,554.8 631.2,334 858.8,110.1 				"/>
				<path class="st3" d="M527.3,693.4c-2.8,0-279.4-281-279.4-281v97.3H2.9"/>
				<polyline class="st6" points="124.5,615.4 397.5,346.3 807.9,346.3 				"/>
			</g>
			<line class="st7" x1="461.9" y1="410.8" x2="46.8" y2="0.9"/>
		</g>
	</g>
</g>
<polyline class="st7" points="191.3,144.4 0.4,351.2 184.4,550.7 53.7,692.5 "/>
</svg>
