<svg xmlns="http://www.w3.org/2000/svg" xmlns:xlink="http://www.w3.org/1999/xlink" viewBox="0 0 1182.41 798.19"><defs><style>.cls-1{fill:none;}.cls-2{isolation:isolate;}.cls-3{mix-blend-mode:luminosity;}.cls-4{clip-path:url(#clip-path);}.cls-5{opacity:0.6;}.cls-6{fill:#d4ceff;}</style><clipPath id="clip-path" transform="translate(159.52 128.34)"><rect class="cls-1" width="750" height="500"/></clipPath></defs><title>BG</title><g class="cls-2"><g id="OBJECTS" class="cls-3"><g class="cls-4"><g class="cls-5"><polygon class="cls-6" points="480.68 365.33 480.68 374.42 488.5 369.87 480.68 365.33"/><polygon class="cls-6" points="490.58 365.33 490.58 374.42 498.4 369.87 490.58 365.33"/><polygon class="cls-6" points="500.49 365.33 500.49 374.42 508.31 369.87 500.49 365.33"/><polygon class="cls-6" points="510.4 365.33 510.4 374.42 518.22 369.87 510.4 365.33"/><polygon class="cls-6" points="520.3 365.33 520.3 374.42 528.13 369.87 520.3 365.33"/><polygon class="cls-6" points="530.21 365.33 530.21 374.42 538.03 369.87 530.21 365.33"/><polygon class="cls-6" points="540.12 365.33 540.12 374.42 547.94 369.87 540.12 365.33"/><polygon class="cls-6" points="550.03 365.33 550.03 374.42 557.85 369.87 550.03 365.33"/><polygon class="cls-6" points="559.93 365.33 559.93 374.42 567.76 369.87 559.93 365.33"/><path class="cls-6" d="M80.31,196.34A70.2,70.2,0,1,1,130,175.81,70,70,0,0,1,80.31,196.34Zm0-139.4a69.21,69.21,0,1,0,48.95,20.25A69,69,0,0,0,80.31,56.94Z" transform="translate(159.52 128.34)"/><path class="cls-6" d="M99.54,234.18l-11.63-64,.49-.09a44.38,44.38,0,0,0,23.53-12.37,44.92,44.92,0,0,0,8-10.85l.23-.44,57.53,30.26-.24.44A109.86,109.86,0,0,1,100,234.09ZM89.07,171l11.27,62a108.91,108.91,0,0,0,76-55.86l-55.76-29.34a45.89,45.89,0,0,1-7.94,10.66A45.41,45.41,0,0,1,89.07,171ZM7.89,208.58l-.37-.33c-1.64-1.45-3.26-3-4.81-4.53a109.71,109.71,0,0,1,0-155.16,109.91,109.91,0,0,1,9.9-8.78l.4-.31L53.14,90.61l-.4.31a44.73,44.73,0,0,0-4.06,66.85c.64.63,1.3,1.26,2,1.85L51,160Zm5-167.7a108.8,108.8,0,0,0-41.27,85.27A108,108,0,0,0,3.42,203c1.42,1.41,2.89,2.81,4.39,4.15L49.61,160c-.56-.5-1.1-1-1.63-1.55a45.73,45.73,0,0,1,0-64.67,50.18,50.18,0,0,1,3.76-3.37Zm108.47,67.38-.2-.45A44.92,44.92,0,0,0,91,82.71l-.48-.12,15.51-63.12.49.12A110,110,0,0,1,180.38,81.1l.21.46ZM91.77,81.86a45.89,45.89,0,0,1,30.05,25.08l57.44-25.88A108.9,108.9,0,0,0,106.8,20.68Z" transform="translate(159.52 128.34)"/><path class="cls-6" d="M81.89,190.12l-.18-7,1,0,.28,7Zm-4.23,0L76.6,190l.4-7,.94.05Zm9.5-.31-.75-7,.94-.11.86,7Zm-14.77-.12-1-.14,1-6.93.93.12Zm20-.66-1.31-6.88.92-.18,1.42,6.85Zm-25.21-.21-1-.23,1.55-6.82.91.2Zm30.36-1L95.66,181l.91-.26,2,6.71Zm-35.49-.29-1-.31,2.1-6.68.9.28Zm40.52-1.34-2.43-6.56.88-.34,2.54,6.53Zm-45.52-.37-1-.4,2.65-6.48.87.35Zm50.41-1.67-3-6.34.86-.41,3.07,6.29Zm-55.25-.46-1-.47L54.44,177l.84.41Zm59.94-2-3.48-6.07.81-.48,3.59,6Zm-64.59-.53-.9-.55,3.68-6,.8.49Zm69.06-2.3-4-5.76.77-.54,4.08,5.69Zm-73.48-.59-.86-.63L46.45,172l.76.55Zm77.71-2.6-4.44-5.4.73-.61,4.53,5.34ZM39,175l-.8-.69L42.78,169l.72.62Zm85.83-2.87-4.87-5c.23-.21.45-.44.67-.66l5.07,4.84-.13.13Zm-89.72-.71,0,0-.72-.72,5-4.88c.21.22.42.44.64.65Zm93.46-3.22-5.27-4.6.61-.72,5.35,4.52Zm-97-.67-.68-.81,5.41-4.45.6.73Zm100.35-3.45-5.63-4.16.55-.75,5.7,4.05C132.27,163.51,132.06,163.79,131.85,164.08Zm-103.61-.72-.61-.87,5.76-4,.54.77Zm106.57-3.66-6-3.67.49-.8,6,3.57Zm-109.47-.77L24.8,158l6.07-3.49.48.81Zm112-3.84-6.24-3.17.42-.84,6.29,3.07C137.71,154.46,137.55,154.78,137.39,155.09Zm-114.58-.81-.45-.95,6.33-3c.14.28.27.57.41.85Zm116.78-4-6.49-2.63c.12-.29.24-.58.35-.88L140,149.3Zm-118.9-.84c-.13-.33-.26-.66-.38-1L26.87,146c.11.29.22.58.34.88Zm120.68-4.13-6.68-2.09c.1-.3.19-.6.28-.9l6.71,2C141.58,144.64,141.48,145,141.37,145.31ZM19,144.43c-.1-.34-.2-.68-.29-1l6.74-1.88c.08.3.17.6.26.9Zm123.77-4.22-6.83-1.54c.07-.31.14-.61.2-.92l6.85,1.42C142.89,139.52,142.82,139.86,142.74,140.21ZM17.68,139.3c-.08-.34-.15-.69-.21-1l6.87-1.33c.06.31.12.62.19.93Zm126-4.3-6.93-1c0-.31.09-.63.12-.94l6.95.86C143.78,134.3,143.73,134.65,143.68,135Zm-126.87-.92c0-.35-.09-.7-.13-1.05l7-.75c0,.32.07.63.11.94Zm127.39-4.34-7-.39c0-.31,0-.63,0-.94l7,.28C144.23,129,144.22,129.39,144.2,129.74Zm-127.83-.93c0-.35,0-.7,0-1l7-.17,0,.94Zm120.91-4.17c0-.31,0-.63,0-.94l7-.3c0,.35,0,.7,0,1.06Zm-113.92-.82-7-.29c0-.35,0-.7.05-1.06l7,.4C23.39,123.19,23.38,123.5,23.36,123.82ZM137,119.94c0-.31-.07-.62-.11-.94l7-.87.12,1.05Zm-113.21-.82-6.95-.86c0-.35.09-.7.14-1.05l6.93,1Zm112.51-3.84c-.06-.31-.12-.61-.19-.92l6.85-1.44c.08.34.14.69.21,1Zm-111.74-.81-6.86-1.42c.07-.35.15-.69.23-1l6.82,1.54C24.65,113.86,24.58,114.17,24.52,114.47Zm110.65-3.77c-.08-.31-.17-.61-.26-.91l6.71-2c.1.34.2.68.29,1Zm-109.51-.79-6.71-2c.1-.34.21-.67.31-1l6.68,2.1C25.84,109.31,25.75,109.61,25.66,109.91Zm108.06-3.69-.34-.88,6.52-2.55.38,1Zm-106.53-.76-6.53-2.54.39-1,6.48,2.64C27.41,104.87,27.3,105.16,27.19,105.46Zm104.7-3.58c-.13-.29-.27-.57-.41-.85l6.29-3.09.46,1Zm-102.82-.73-6.29-3.07c.16-.32.31-.64.47-1l6.24,3.18ZM129.71,97.7l-.48-.81,6-3.6.54.92ZM31.31,97l-6-3.58.55-.91,5.95,3.69Zm95.88-3.29-.54-.77,5.68-4.08.62.87Zm-93.31-.65L28.18,89l.62-.85,5.63,4.17ZM124.35,90l-.61-.72,5.33-4.54.68.81Zm-87.58-.6-5.34-4.52.69-.81,5.27,4.62C37.18,88.88,37,89.12,36.77,89.36Zm84.43-2.91c-.2-.2-.39-.4-.6-.6l-.07-.08,5-5,.07.08c.23.22.45.44.67.67ZM40,85.85l-5-4.91.05,0c.23-.24.46-.47.7-.7l4.87,5Zm77.77-2.65-.71-.61,4.52-5.34.8.68Zm-74.35-.51-4.54-5.33.81-.68,4.45,5.4Zm70.68-2.44-.76-.55,4.07-5.7.85.62Zm-67-.46L43.06,74.1l.87-.61,4,5.75C47.65,79.42,47.39,79.6,47.14,79.79Zm63.08-2.17-.81-.49,3.58-6,.9.55ZM51.08,77.2l-3.6-6,.92-.53,3.49,6.06Zm55-1.89-.84-.41,3.06-6.3,1,.47ZM55.22,75l-3.08-6.28,1-.46,3,6.33Zm46.62-1.59L101,73l2.52-6.52q.49.18,1,.39Zm-42.31-.3L57,66.54l1-.38,2.45,6.56Zm37.88-1.29-.9-.28,2-6.71,1,.31ZM64,71.53l-2-6.71,1-.3,1.87,6.75Zm28.88-1-.92-.2,1.43-6.86,1,.23Zm-24.31-.18-1.43-6.85,1-.21,1.33,6.88C69.17,70.24,68.86,70.31,68.55,70.37Zm19.68-.67-.93-.12.85-6.95,1,.14Zm-15-.1-.87-6.95,1-.12.75,7Zm10.34-.36-.94,0,.28-7,1.06,0Zm-5.65,0-.29-7,1.06,0,.17,7Z" transform="translate(159.52 128.34)"/><path class="cls-6" d="M80.31,158.88h0c-.54,0-1.09,0-1.62,0l-.5,0,.39-8,.5,0a24.52,24.52,0,0,0,7.68-.82l.48-.13,2.08,7.73-.49.13A33,33,0,0,1,80.31,158.88Zm-1.08-1a31.78,31.78,0,0,0,8.86-1l-1.56-5.8a25.39,25.39,0,0,1-7,.75Zm-6.8.06L72,157.8a32.45,32.45,0,0,1-9.35-4.11l-.42-.27,4.33-6.73.42.27a24.58,24.58,0,0,0,7,3.11l.49.12Zm-8.87-4.82a31.66,31.66,0,0,0,8.16,3.6l1.53-5.81a25,25,0,0,1-6.44-2.83Zm31.2,2.42-3.64-7.12.44-.23a24.59,24.59,0,0,0,6.24-4.54l.37-.38.35-.36,5.78,5.53-.35.36-.49.5a32.86,32.86,0,0,1-8.25,6Zm-2.3-6.69,2.73,5.34a31.52,31.52,0,0,0,7.56-5.59,1.59,1.59,0,0,1,.13-.13l-4.34-4.15,0,0A26,26,0,0,1,92.46,148.84Zm-34.82.93-.48-.47a32.89,32.89,0,0,1-5.94-8.1l-.23-.44,7.11-3.68.23.44a24.59,24.59,0,0,0,4.48,6.12l.45.44Zm-5.29-8.59a31.89,31.89,0,0,0,5.28,7.18l4.22-4.28a25.66,25.66,0,0,1-4.18-5.66Zm55.52,2.65-6.8-4.22.27-.43a24.57,24.57,0,0,0,3-7.1l.12-.48,7.77,1.91-.12.48a32.48,32.48,0,0,1-4,9.42Zm-5.42-4.55,5.09,3.17a31.4,31.4,0,0,0,3.46-8.21l-5.83-1.44A25.15,25.15,0,0,1,102.45,139.28Zm-53.58-4-.13-.48a32.7,32.7,0,0,1-1.17-8.7q0-.72,0-1.44l0-.5,8,.35,0,.5c0,.36,0,.73,0,1.09a24.73,24.73,0,0,0,.88,6.58l.14.49Zm-.29-10.08c0,.3,0,.6,0,.9a32.19,32.19,0,0,0,1,8l5.79-1.59a25.65,25.65,0,0,1-.79-6.36v-.63Zm64.43,2.5-8-.27V127c0-.28,0-.55,0-.83a25,25,0,0,0-1-6.83l-.14-.48,7.69-2.2.14.48a32.77,32.77,0,0,1,1.27,9c0,.37,0,.73,0,1.1Zm-7-1.24,6,.2c0-.18,0-.37,0-.56a31.7,31.7,0,0,0-1.1-8.28l-5.77,1.65a26,26,0,0,1,.87,6.63C106.05,126.26,106,126.38,106,126.5Zm-49.81-6.07-7.75-2,.12-.48a32.77,32.77,0,0,1,4.07-9.38l.27-.42,6.74,4.3-.26.42A24.59,24.59,0,0,0,56.35,120Zm-6.53-2.71,5.81,1.5a25.17,25.17,0,0,1,2.8-6.45l-5.06-3.23A31.46,31.46,0,0,0,49.7,117.72ZM102.4,115l-.24-.44a24.93,24.93,0,0,0-4.36-5.88l-.64-.63,5.57-5.75.72.72a32.47,32.47,0,0,1,5.77,7.79l.24.44Zm-3.84-7a25.62,25.62,0,0,1,4.24,5.62l5.3-2.81a31.58,31.58,0,0,0-5.35-7.11h0Zm-36.28,1.19-5.73-5.58.61-.62a33.07,33.07,0,0,1,7.93-5.85l.45-.23L69.26,104l-.45.23a24.62,24.62,0,0,0-6,4.42ZM58,103.59l4.3,4.19a25.63,25.63,0,0,1,5.64-4.2l-2.79-5.31A31.45,31.45,0,0,0,58,103.59Zm35.91,1.86-.42-.27a24.89,24.89,0,0,0-7.09-3l-.48-.12,2-7.76.48.13a32.34,32.34,0,0,1,9.4,4l.42.27Zm-6.78-4.14a25.7,25.7,0,0,1,6.47,2.76L96.76,99a31.64,31.64,0,0,0-8.2-3.5Zm-14,1.15L71,94.76l.48-.14a32.9,32.9,0,0,1,10.13-1.19l.5,0-.3,8-.5,0a24.85,24.85,0,0,0-7.67.91Zm-.93-7,1.62,5.78a25.84,25.84,0,0,1,7-.82l.22-6A32.08,32.08,0,0,0,72.19,95.45Z" transform="translate(159.52 128.34)"/><path class="cls-6" d="M79.38,307.29c-1.34,0-2.68,0-4-.07l.06-2c1.33,0,2.65.06,4,.07Zm5-.05,0-2c1.32,0,2.65-.07,4-.13l.09,2C87.08,307.17,85.74,307.21,84.4,307.24ZM70.33,307c-1.34-.08-2.67-.16-4-.27l.15-2c1.33.1,2.65.19,4,.26Zm23.11-.2-.14-2q2-.13,4-.33l.19,2C96.12,306.61,94.78,306.72,93.44,306.82Zm-32.13-.52c-1.33-.14-2.66-.3-4-.47l.25-2c1.32.17,2.64.32,4,.46Zm41.14-.36-.24-2c1.31-.17,2.63-.34,3.94-.53l.29,2C105.11,305.6,103.78,305.78,102.45,305.94Zm-50.11-.81q-2-.3-4-.66l.35-2c1.31.24,2.61.45,3.92.66Zm59.06-.51-.34-2c1.31-.23,2.61-.47,3.92-.73l.38,2C114,304.14,112.72,304.39,111.4,304.62Zm-68-1.1c-1.31-.27-2.62-.56-3.92-.86l.45-2c1.29.3,2.58.58,3.88.85Zm76.84-.67-.44-2c1.3-.29,2.59-.6,3.87-.92l.49,1.94C122.9,302.25,121.59,302.55,120.28,302.85Zm-85.64-1.38c-1.3-.34-2.59-.69-3.88-1.05l.54-1.93c1.28.36,2.56.71,3.84,1Zm94.42-.83-.53-1.93c1.27-.35,2.55-.72,3.82-1.11l.58,1.92C131.64,299.91,130.35,300.28,129.06,300.64ZM25.94,299c-1.27-.4-2.55-.82-3.82-1.24l.64-1.9q1.89.65,3.78,1.23Zm111.78-1-.63-1.89c1.26-.42,2.51-.86,3.76-1.31l.68,1.89C140.26,297.13,139,297.57,137.72,298ZM17.39,296.06c-1.26-.46-2.51-.94-3.76-1.44l.74-1.86c1.23.49,2.47,1,3.71,1.42Zm128.85-1.14-.73-1.87c1.24-.48,2.47-1,3.69-1.49l.77,1.85C148.73,293.93,147.49,294.43,146.24,294.92ZM9,292.71c-1.23-.52-2.46-1.06-3.68-1.62l.83-1.82c1.21.55,2.42,1.08,3.64,1.61Zm145.6-1.3-.82-1.82c1.21-.55,2.42-1.1,3.61-1.67l.87,1.8C157,290.3,155.81,290.86,154.59,291.41ZM.77,289c-1.2-.59-2.4-1.19-3.59-1.8l.92-1.78c1.18.61,2.36,1.2,3.55,1.78Zm162-1.46-.91-1.78c1.18-.6,2.35-1.22,3.52-1.85l.95,1.76C165.14,286.26,164,286.88,162.76,287.49Zm-170-2.71c-1.17-.64-2.34-1.3-3.5-2l1-1.73c1.14.67,2.3,1.32,3.45,2Zm178-1.61-1-1.74c1.15-.66,2.29-1.33,3.43-2l1,1.7C173,281.81,171.88,282.5,170.72,283.17ZM-15,280.22l-3.39-2.16,1.09-1.67c1.11.72,2.23,1.43,3.35,2.13Zm193.49-1.78-1.08-1.68c1.11-.72,2.22-1.45,3.32-2.2l1.12,1.66Q180.15,277.35,178.45,278.44Zm-201-3.17c-1.1-.76-2.19-1.54-3.28-2.32l1.18-1.62c1.07.78,2.15,1.54,3.23,2.29Zm208.53-1.94-1.17-1.62c1.08-.77,2.15-1.56,3.21-2.36l1.21,1.59C188.11,271.75,187,272.55,185.94,273.33ZM-29.89,270c-1.06-.82-2.11-1.64-3.15-2.48l1.25-1.56c1,.83,2.07,1.65,3.12,2.45Zm223.06-2.09-1.25-1.57q1.56-1.25,3.09-2.52l1.28,1.54Q194.75,266.6,193.17,267.86Zm-230.08-3.59q-1.53-1.31-3-2.64l1.33-1.49q1.48,1.32,3,2.61Zm237-2.25-1.32-1.5c1-.87,2-1.76,3-2.66l1.36,1.47C202.11,260.24,201.11,261.14,200.11,262Zm-243.76-3.78c-1-.92-1.94-1.84-2.9-2.78l1.4-1.43c.95.93,1.9,1.85,2.87,2.75Zm250.39-2.37-1.39-1.44,1.63-1.61,1.18-1.19,1.43,1.4-1.19,1.2C207.85,254.78,207.3,255.33,206.74,255.87Zm-256.83-4c-.93-1-1.85-1.94-2.76-2.93l1.47-1.35c.9,1,1.81,1.93,2.73,2.89Zm263.15-2.49L211.6,248c.9-1,1.79-2,2.67-2.95l1.5,1.33C214.88,247.42,214,248.41,213.06,249.4Zm-269.28-4.18c-.88-1-1.76-2-2.62-3.07l1.54-1.28c.85,1,1.71,2,2.59,3Zm275.28-2.6-1.53-1.29c.85-1,1.69-2,2.51-3.06l1.56,1.25C220.77,240.56,219.92,241.6,219.06,242.62ZM-62,238.24c-.84-1.05-1.66-2.12-2.46-3.19l1.59-1.2c.8,1.06,1.61,2.11,2.44,3.15Zm286.7-2.67-1.59-1.21c.8-1.05,1.59-2.12,2.37-3.18l1.62,1.17C226.3,233.43,225.5,234.5,224.69,235.57ZM-67.45,231c-.78-1.09-1.55-2.2-2.3-3.31l1.66-1.12c.74,1.1,1.5,2.19,2.27,3.27ZM230,228.25l-1.66-1.13c.75-1.09,1.49-2.19,2.21-3.3l1.67,1.09C231.47,226,230.73,227.14,230,228.25Zm-302.5-4.77q-1.08-1.71-2.13-3.42l1.71-1c.69,1.13,1.39,2.26,2.11,3.38Zm307.4-2.81-1.7-1c.69-1.13,1.37-2.26,2-3.4l1.73,1C236.27,218.38,235.58,219.53,234.88,220.67ZM-77.2,215.72c-.66-1.17-1.31-2.34-2-3.52l1.76-.95c.63,1.16,1.27,2.32,1.93,3.48Zm316.61-2.87-1.76-1c.64-1.16,1.26-2.33,1.87-3.51l1.77.92C240.68,210.49,240.05,211.67,239.41,212.85Zm-320.89-5.12c-.61-1.19-1.2-2.4-1.77-3.61l1.8-.86c.57,1.2,1.16,2.39,1.76,3.57Zm325-2.92-1.81-.87c.58-1.19,1.14-2.39,1.69-3.6l1.82.83C244.69,202.39,244.12,203.6,243.54,204.81Zm-328.9-5.26c-.54-1.23-1.07-2.46-1.58-3.7l1.84-.77c.51,1.22,1,2.44,1.57,3.66Zm332.61-3-1.84-.78c.51-1.22,1-2.44,1.5-3.67l1.86.73C248.28,194.1,247.77,195.34,247.25,196.57Zm-336.06-5.39c-.48-1.26-1-2.52-1.4-3.78l1.88-.67c.45,1.25.91,2.49,1.38,3.73Zm339.36-3-1.88-.69q.69-1.86,1.32-3.75l1.89.64C251.46,185.63,251,186.9,250.55,188.16Zm-342.39-5.52c-.42-1.27-.83-2.55-1.21-3.83l1.91-.58c.38,1.26.78,2.53,1.2,3.79Zm345.27-3.06-1.91-.59c.39-1.26.76-2.53,1.12-3.81l1.93.55C254.2,177,253.82,178.3,253.43,179.58ZM-94.44,174c-.36-1.29-.7-2.59-1-3.89l1.94-.49c.32,1.29.66,2.57,1,3.86Zm350.31-3.09-1.94-.49c.33-1.29.64-2.58.94-3.87l1.95.45C256.52,168.28,256.2,169.58,255.87,170.88Zm-352.48-5.7c-.29-1.31-.56-2.62-.82-3.94l2-.38c.25,1.3.52,2.6.81,3.89Zm354.49-3.12-2-.4c.26-1.3.5-2.6.74-3.9l2,.35C258.39,159.43,258.14,160.74,257.88,162.06Zm-356.21-5.77c-.22-1.32-.43-2.64-.62-4l2-.29c.19,1.31.39,2.62.61,3.93Zm357.77-3.14-2-.3c.2-1.31.38-2.62.55-3.94l2,.26C259.82,150.5,259.64,151.82,259.44,153.15Zm-359-5.82c-.16-1.33-.3-2.66-.43-4l2-.19q.2,2,.42,4Zm360.16-3.16-2-.19c.13-1.32.25-2.64.35-4l2,.16C260.81,141.5,260.69,142.84,260.56,144.17Zm-361-5.85c-.07-1-.13-2.08-.19-3.12l2-.1q.08,1.54.18,3.09Zm361.66-3.17-2-.1c.07-1.32.12-2.65.16-4l2,0Q261.34,133.14,261.23,135.15Zm.22-9h-2c0-1.33,0-2.65,0-4l2,0C261.44,123.43,261.45,124.77,261.45,126.11Zm-2.22-9c-.07-1.32-.15-2.65-.24-4l2-.14c.1,1.33.18,2.67.25,4Zm-.67-8.92c-.13-1.32-.28-2.64-.44-4l2-.24c.16,1.33.31,2.66.44,4Zm-1.11-8.89c-.2-1.31-.41-2.62-.64-3.92l2-.35c.22,1.33.44,2.65.64,4Zm-1.55-8.81c-.26-1.3-.54-2.6-.83-3.89l1.95-.44q.44,2,.84,3.93Zm-2-8.73c-.33-1.29-.67-2.57-1-3.85l1.93-.53c.36,1.29.71,2.59,1,3.88Zm-2.43-8.62c-.39-1.27-.79-2.53-1.21-3.79l1.9-.63c.42,1.27.83,2.55,1.23,3.83Zm-2.85-8.49c-.45-1.25-.92-2.49-1.4-3.73l1.86-.72c.49,1.25,1,2.51,1.42,3.76Zm-3.27-8.34c-.52-1.22-1.05-2.43-1.59-3.65l1.82-.82c.55,1.23,1.09,2.46,1.61,3.7Zm-3.7-8.16c-.57-1.19-1.16-2.38-1.77-3.56l1.78-.91c.61,1.19,1.21,2.39,1.79,3.6Zm-4.1-8q-.94-1.76-1.95-3.48l1.74-1c.67,1.17,1.33,2.34,2,3.52Zm-4.49-7.76c-.7-1.13-1.4-2.25-2.13-3.37L232.62,28c.73,1.13,1.45,2.26,2.15,3.41ZM228.19,25c-.75-1.1-1.52-2.18-2.3-3.26l1.63-1.17c.78,1.09,1.56,2.19,2.31,3.3Zm-5.26-7.27c-.8-1.05-1.62-2.1-2.45-3.14L222,13.31c.84,1,1.67,2.11,2.48,3.18Zm-5.61-7c-.86-1-1.73-2-2.61-3l1.5-1.32c.89,1,1.77,2,2.63,3.05ZM211.37,4c-.9-1-1.82-1.93-2.75-2.88l1.43-1.4c.94,1,1.87,1.94,2.78,2.91ZM205.1-2.38c-.95-.93-1.91-1.84-2.88-2.74l1.37-1.46c1,.9,1.94,1.83,2.91,2.76Zm-6.56-6.08c-1-.87-2-1.74-3-2.59l1.29-1.53c1,.86,2,1.73,3.05,2.62Zm-6.85-5.73c-1-.83-2.09-1.64-3.14-2.44l1.21-1.59c1.07.81,2.12,1.63,3.17,2.46Zm-7.13-5.39c-1.07-.77-2.16-1.53-3.25-2.27l1.13-1.65c1.1.75,2.2,1.52,3.29,2.3Zm-7.38-5c-1.12-.71-2.24-1.42-3.36-2.11l1-1.7c1.14.69,2.27,1.41,3.4,2.13Zm-7.63-4.64c-1.15-.66-2.31-1.31-3.46-1.94l.95-1.76c1.18.64,2.34,1.29,3.51,2Zm-7.86-4.26c-1.18-.6-2.36-1.19-3.55-1.77l.87-1.8c1.2.58,2.4,1.18,3.59,1.79Zm-8.06-3.86c-1.21-.54-2.42-1.07-3.64-1.59l.78-1.84c1.23.52,2.46,1.06,3.68,1.6Zm-8.24-3.45c-1.24-.48-2.48-.95-3.72-1.4l.68-1.88c1.26.46,2.51.93,3.76,1.42Zm-8.41-3c-1.26-.42-2.52-.83-3.79-1.22l.59-1.91c1.28.4,2.56.81,3.83,1.23Zm-8.56-2.61q-1.9-.54-3.84-1l.5-1.94c1.29.33,2.59.67,3.88,1Zm-8.67-2.18c-1.29-.29-2.59-.57-3.89-.83l.4-2,3.93.84ZM111-50.37c-1.31-.23-2.62-.44-3.93-.64l.3-2c1.32.19,2.65.41,4,.64Zm-8.85-1.31c-1.32-.16-2.64-.3-4-.43l.2-2c1.34.13,2.67.28,4,.44Zm-8.91-.86c-1.32-.09-2.64-.17-4-.24l.1-2c1.34.07,2.68.15,4,.25ZM84.28-53c-1.32,0-2.65,0-4,0v-2c1.34,0,2.68,0,4,0Z" transform="translate(159.52 128.34)"/><path class="cls-6" d="M80.31,210.45h0c-1.35,0-2.72,0-4.07-.1l.09-2c1.32.07,2.66.1,4,.1Zm9.15-.5-.22-2c1.32-.15,2.65-.32,4-.53l.31,2C92.17,209.63,90.81,209.81,89.46,210Zm-22.34-.53c-1.33-.21-2.68-.46-4-.73l.4-2c1.29.27,2.61.51,3.91.71Zm35.34-1.92-.52-1.93c1.27-.34,2.55-.73,3.81-1.13l.62,1.9C105.08,206.76,103.76,207.15,102.46,207.5Zm-48.2-1.16c-1.29-.41-2.58-.87-3.85-1.35l.71-1.87c1.23.47,2.5.91,3.75,1.32Zm60.66-3.3-.82-1.82c1.2-.55,2.41-1.12,3.58-1.72l.91,1.78C117.39,201.89,116.15,202.49,114.92,203ZM42,201.29c-1.21-.62-2.41-1.27-3.59-1.94l1-1.74c1.15.66,2.33,1.3,3.5,1.89Zm84.48-4.61-1.1-1.68c1.1-.72,2.2-1.48,3.27-2.26l1.18,1.62C128.77,195.15,127.65,195.93,126.52,196.68Zm-95.76-2.31c-1.09-.8-2.18-1.63-3.23-2.48l1.25-1.55c1,.82,2.09,1.64,3.16,2.41ZM137,188.57l-1.34-1.48c1-.88,1.93-1.81,2.87-2.75l1.49,1.34-.08.08C139,186.72,138,187.66,137,188.57Zm-116.26-2.8c-1-1-1.91-2-2.81-2.94l1.48-1.35c.88,1,1.8,1.93,2.73,2.86Zm125.39-6.9-1.56-1.25c.83-1,1.64-2.1,2.41-3.16l1.62,1.17C147.78,176.72,147,177.81,146.1,178.87Zm-134-3.15c-.8-1.09-1.58-2.22-2.32-3.35l1.67-1.09c.72,1.1,1.48,2.2,2.26,3.27Zm141.43-7.78-1.73-1c.65-1.15,1.29-2.33,1.89-3.5l1.78.9C154.87,165.56,154.22,166.76,153.54,167.94ZM5.18,164.45c-.61-1.2-1.21-2.44-1.76-3.67L5.24,160c.54,1.21,1.12,2.42,1.72,3.59Zm154-8.48-1.87-.71c.46-1.23.91-2.49,1.31-3.75l1.91.62C160.11,153.41,159.66,154.71,159.18,156ZM.12,152.23c-.42-1.29-.81-2.6-1.16-3.91l1.93-.52c.34,1.28.73,2.56,1.13,3.81Zm162.74-9-2-.41c.27-1.29.51-2.61.71-3.91l2,.31C163.38,140.59,163.14,141.94,162.86,143.27ZM-3,139.36c-.21-1.33-.39-2.69-.54-4l2-.21c.14,1.31.32,2.64.52,3.94Zm167.48-9.22-2-.09c.06-1.3.09-2.61.09-3.91l2-.07v.07C164.61,127.47,164.58,128.81,164.52,130.14ZM-4,126.17v0c0-1.34,0-2.7.1-4l2,.1c-.07,1.3-.1,2.63-.1,3.94Zm166.12-9c-.14-1.31-.32-2.64-.53-4l2-.31c.21,1.34.39,2.7.54,4ZM-1,113.3-3,113c.21-1.33.45-2.68.73-4l2,.4C-.55,110.67-.79,112-1,113.3Zm160.71-8.85c-.34-1.27-.72-2.55-1.13-3.81l1.9-.62c.42,1.29.81,2.6,1.16,3.9ZM2,100.73l-1.9-.61c.42-1.29.87-2.58,1.35-3.85L3.32,97C2.85,98.21,2.41,99.48,2,100.73Zm153.35-8.44c-.54-1.2-1.12-2.41-1.72-3.58l1.78-.91c.61,1.2,1.21,2.43,1.76,3.67ZM6.93,88.8l-1.78-.91c.62-1.2,1.27-2.41,1.94-3.58l1.74,1C8.17,86.44,7.54,87.62,6.93,88.8ZM149.13,81c-.73-1.11-1.49-2.21-2.27-3.27l1.62-1.18c.8,1.09,1.58,2.22,2.32,3.35ZM13.68,77.8l-1.61-1.18c.79-1.09,1.62-2.18,2.47-3.24l1.56,1.26C15.27,75.67,14.46,76.73,13.68,77.8Zm127.52-7c-.87-1-1.78-1.91-2.7-2.82l1.37-1.47,0,0c.94.94,1.87,1.92,2.76,2.9ZM22.11,68l-1.45-1.39,0,0c.95-.94,1.93-1.88,2.92-2.78L25,65.23C24,66.11,23,67,22.11,68Zm109.68-6c-1-.82-2.09-1.64-3.15-2.41l1.17-1.62c1.09.79,2.18,1.63,3.24,2.48Zm-99.9-2.35L30.71,58c1.09-.8,2.22-1.58,3.35-2.32l1.1,1.67C34.05,58,33,58.8,31.89,59.57Zm89.24-4.92c-1.15-.65-2.33-1.29-3.5-1.89l.91-1.78c1.2.61,2.4,1.26,3.58,1.94ZM42.89,52.81,42,51c1.21-.62,2.44-1.21,3.67-1.76l.82,1.82C45.27,51.63,44.07,52.21,42.89,52.81Zm66.56-3.66c-1.24-.47-2.5-.91-3.76-1.31l.62-1.91c1.28.42,2.58.87,3.84,1.35ZM54.82,47.87,54.2,46c1.29-.41,2.6-.8,3.91-1.16l.52,1.93C57.35,47.08,56.07,47.46,54.82,47.87Zm42.23-2.32c-1.29-.27-2.61-.51-3.92-.71l.31-2c1.34.21,2.69.46,4,.73Zm-29.67-.7-.31-2c1.33-.21,2.69-.39,4-.54l.22,2C70,44.47,68.68,44.65,67.38,44.85Zm16.85-.92c-1.3-.06-2.62-.09-3.92-.09l-.06-2h.06c1.33,0,2.69,0,4,.1Z" transform="translate(159.52 128.34)"/><path class="cls-6" d="M70.68,292.46l-.5,0A165.79,165.79,0,0,1,7.61,276.08l-.45-.21,11.35-23.4.45.22a139.77,139.77,0,0,0,52.79,13.79l.5,0ZM8.5,275.4a164.6,164.6,0,0,0,61.24,16l1.45-24A140.81,140.81,0,0,1,19,253.81Zm135.43,4.75-10-24,.46-.2a141.09,141.09,0,0,0,74-71.7l.21-.45,23.68,10.74-.21.45a167.25,167.25,0,0,1-87.65,85Zm-8.68-23.47,9.22,22.16A166.16,166.16,0,0,0,230.93,195l-21.85-9.91a142.2,142.2,0,0,1-73.83,71.56Zm-185.87-27.5-.31-.39a165,165,0,0,1-29.21-57.72l-.13-.48,25-7,.13.48a139.14,139.14,0,0,0,24.63,48.66l.31.4ZM-79,171.29a163.87,163.87,0,0,0,28.59,56.48L-31.56,213a140,140,0,0,1-24.36-48.14Zm299.89-48.83,0-.5a139.88,139.88,0,0,0-12.13-53.2l-.21-.46,23.74-10.6.21.45a165.9,165.9,0,0,1,14.38,63l0,.5Zm-11-53.65a140.91,140.91,0,0,1,12,52.62l24-.71A165,165,0,0,0,231.73,59ZM170.7,18.45l-.39-.32A139.05,139.05,0,0,0,122.45-8L122-8.16,129.74-33l.48.15A165.34,165.34,0,0,1,187-1.83l.38.33ZM123.22-8.82A140.14,140.14,0,0,1,170.57,17L186-1.38A164.25,164.25,0,0,0,130.4-31.72ZM7.35,5.92-6.08-16.34l.43-.26A165.19,165.19,0,0,1,55.19-38.55l.49-.08,3.9,25.71-.49.07A139.38,139.38,0,0,0,7.78,5.67ZM-4.71-16,7.69,4.55A140.5,140.5,0,0,1,58.44-13.76l-3.6-23.73A164.2,164.2,0,0,0-4.71-16Z" transform="translate(159.52 128.34)"/><path class="cls-6" d="M80.31,325.92a200.22,200.22,0,0,1-61.72-9.73l-.47-.16,16.64-51.37.48.15a145.82,145.82,0,0,0,45.07,7.11c4.41,0,8.87-.2,13.26-.6l.49-.05,4.88,53.78-.49.05C92.44,325.64,86.34,325.92,80.31,325.92ZM19.38,315.39a199,199,0,0,0,60.93,9.53c5.83,0,11.73-.26,17.55-.77l-4.7-51.79c-4.26.37-8.58.56-12.85.56a147.2,147.2,0,0,1-44.91-7ZM154,311.87l-20-50.15.46-.18a144.64,144.64,0,0,0,48.93-32.32c1.16-1.16,2.31-2.34,3.41-3.52l.34-.37,39.43,36.91-.34.36c-1.53,1.63-3.09,3.25-4.66,4.81a198.45,198.45,0,0,1-67.09,44.28Zm-18.72-49.59,19.28,48.29a197.39,197.39,0,0,0,66.29-43.87c1.44-1.44,2.88-2.92,4.28-4.42l-38-35.53c-1,1.06-2,2.13-3.09,3.18A145.88,145.88,0,0,1,135.29,262.28Zm123.62-46.52-48.33-24.1.23-.45a145,145,0,0,0,15-56.68l0-.5,53.91,3.09,0,.5a198.59,198.59,0,0,1-20.62,77.69Zm-47-24.55,46.54,23.21a197.43,197.43,0,0,0,20.26-76.36l-51.91-3A145.71,145.71,0,0,1,211.92,191.21ZM-112,180.47l-.14-.48a200.71,200.71,0,0,1-5.63-80.15l.07-.49,53.53,7.07-.06.5a146.38,146.38,0,0,0,4.11,58.56l.13.48Zm-4.84-80a200.32,200.32,0,0,0-1.66,25.67,199.44,199.44,0,0,0,7.19,53.1l50.09-14a147.47,147.47,0,0,1-5.28-39.12,148.68,148.68,0,0,1,1.21-18.86ZM-53,66.94l-49.28-22.08.21-.46A199.27,199.27,0,0,1-61-15.12C-59-17-57-18.95-55-20.79l.36-.34,36.61,39.69-.37.34c-1.46,1.35-2.92,2.76-4.33,4.17a145,145,0,0,0-30,43.42Zm-47.95-22.58,47.45,21.26a146.07,146.07,0,0,1,30-43.26c1.3-1.3,2.65-2.6,4-3.85L-54.73-19.72c-1.87,1.73-3.72,3.51-5.52,5.31A197.9,197.9,0,0,0-100.91,44.36ZM168.27,9.88l-.4-.3a144.08,144.08,0,0,0-52.95-25.07l-.49-.11,12.76-52.48.49.12a197.68,197.68,0,0,1,72.69,34.41l.4.3ZM115.64-16.34A145.13,145.13,0,0,1,168.08,8.48L199.37-33a196.88,196.88,0,0,0-71.44-33.82ZM15.78-4.63-7.95-53.13l.45-.22a198.52,198.52,0,0,1,77.86-20l.5,0,2.67,53.94-.5,0a144.94,144.94,0,0,0-56.8,14.6Zm-22.39-48L16.24-6A145.73,145.73,0,0,1,72.48-20.42L69.91-72.36A197.51,197.51,0,0,0-6.61-52.67Z" transform="translate(159.52 128.34)"/><path class="cls-6" d="M1.67,354.91l-.47-.16A243,243,0,0,1-57.5,325a244.53,244.53,0,0,1-25-19.84l-.37-.34,43.8-48.3.38.33a177.7,177.7,0,0,0,61.21,36.29l.48.16Zm-83.13-50.18a243.83,243.83,0,0,0,24.53,19.43,241.89,241.89,0,0,0,58,29.48L21.72,293.9a179.12,179.12,0,0,1-60.72-36Zm308,14L186.9,266.89l.4-.31a176.49,176.49,0,0,0,38.16-40c3-4.4,5.92-9,8.55-13.64l.25-.43L291,244.58l-.25.44c-3.59,6.35-7.52,12.62-11.68,18.63l-.41-.29.41.29a241.9,241.9,0,0,1-52.2,54.75ZM188.3,267.07l38.38,50.23a241.06,241.06,0,0,0,51.59-54.22c4.05-5.85,7.87-11.94,11.39-18.12l-55-31.12c-2.58,4.53-5.39,9-8.35,13.28A177.74,177.74,0,0,1,188.3,267.07Zm-314.93-15.34-.26-.43a240.77,240.77,0,0,1-31-81.91c-.6-3.25-1.13-6.55-1.58-9.8l-.07-.49L-94.95,150l.07.49c.34,2.4.73,4.82,1.16,7.2a176.12,176.12,0,0,0,22.61,59.83l.26.43ZM-158.39,160c.43,3.08.94,6.19,1.5,9.26a240,240,0,0,0,30.6,81.15l54.07-32.74A177,177,0,0,1-94.7,157.88c-.41-2.23-.78-4.49-1.1-6.74Zm474.3,20.51L252.34,165.9l.11-.49A175.33,175.33,0,0,0,254,94.34c-.35-2-.74-3.91-1.16-5.83l-.1-.49,63.73-13.8.11.49c.57,2.63,1.1,5.3,1.58,8A240.36,240.36,0,0,1,316,180Zm-62.37-15.31,61.61,14.12a239.25,239.25,0,0,0,2-96.44c-.44-2.46-.94-5-1.47-7.42L253.9,88.79c.38,1.77.74,3.57,1.07,5.37A176.55,176.55,0,0,1,253.54,165.15ZM-94.72,100.06l-.5-.08-64-9.68.08-.49A240.3,240.3,0,0,1-125.44-1.53l.27-.43,55.4,34.4-.27.43A175.43,175.43,0,0,0-94.65,99.56Zm-63.34-10.6,62.5,9.46A176.68,176.68,0,0,1-71.15,32.76L-124.85-.58A239.47,239.47,0,0,0-158.06,89.46Zm393.3-48.24-.24-.43a175.47,175.47,0,0,0-46.14-54.08l-.4-.31.31-.39,39.79-51,.4.31A240.39,240.39,0,0,1,292.13,9.35l.24.44Zm-45.37-55a176.31,176.31,0,0,1,45.76,53.64L291,9.4a239.22,239.22,0,0,0-62.27-73ZM-37.57-5.83-80.92-54.55l.38-.33A239.33,239.33,0,0,1,3.8-103.57l.47-.16,20.51,61.9-.47.16A174.65,174.65,0,0,0-37.2-6.16ZM-79.51-54.47l42,47.23a175.58,175.58,0,0,1,61-35.22l-19.88-60A238.48,238.48,0,0,0-79.51-54.47Z" transform="translate(159.52 128.34)"/><path class="cls-6" d="M80.27,242.58a116.42,116.42,0,1,1,114.31-94.26l-2-.38A114.4,114.4,0,0,0-.58,45.26a114.41,114.41,0,0,0,123.93,186.9l.75,1.85A116.44,116.44,0,0,1,80.27,242.58Z" transform="translate(159.52 128.34)"/><path class="cls-6" d="M157.59,370.32l-.6-1.91a252.48,252.48,0,0,0,44.42-18.86l.88-.48,9.54,17.57a274.8,274.8,0,0,0,62.23-46.7c1.85-1.86,3.7-3.76,5.49-5.65L265,300.61l.69-.73a256.65,256.65,0,0,0,19.15-23l1.61,1.19a257.9,257.9,0,0,1-18.62,22.42l14.58,13.68-.69.73c-2,2.15-4.11,4.31-6.22,6.42a276.26,276.26,0,0,1-63.57,47.52l-.88.48-9.53-17.57A254.64,254.64,0,0,1,157.59,370.32Z" transform="translate(159.52 128.34)"/><path class="cls-6" d="M-42.61,373.43l-.89-.45a275.07,275.07,0,0,1-65.08-45.47l-.73-.68,13.68-14.57c-2-1.85-3.62-3.46-5.19-5a255.87,255.87,0,0,1-46-62.57l1.77-.93a254,254,0,0,0,45.64,62.08c1.75,1.75,3.61,3.55,5.88,5.67l.73.69-13.68,14.57a273.56,273.56,0,0,0,63,44l9-17.86.89.44a252.13,252.13,0,0,0,44.5,17.27l-.55,1.93a256.08,256.08,0,0,1-43.95-17Z" transform="translate(159.52 128.34)"/><path class="cls-6" d="M332.45,18.68c-3.24-7.6-6.86-15.14-10.78-22.42L304.11,5.8l-.48-.88a254.28,254.28,0,0,0-43.7-58.45c-2.8-2.8-5.79-5.65-8.9-8.47l-.74-.67,13.44-14.79a273.55,273.55,0,0,0-63.69-43l-8.67,18-.9-.43a253.1,253.1,0,0,0-81.83-23.49l.22-2a255.22,255.22,0,0,1,81.57,23.24l8.67-18,.9.44a275.1,275.1,0,0,1,65.82,44.41l.74.67L253.12-62.81c2.86,2.63,5.63,5.27,8.23,7.87a256.45,256.45,0,0,1,43.56,58l17.56-9.54.48.88C327.08,2,330.9,9.93,334.29,17.9Z" transform="translate(159.52 128.34)"/><path class="cls-6" d="M228.7,184.92l-1.86-.74a158.74,158.74,0,0,0,9.35-81.27l2-.3a160.71,160.71,0,0,1-9.47,82.31Z" transform="translate(159.52 128.34)"/><path class="cls-6" d="M80.67,285.74a164.33,164.33,0,0,1-18.61-1.07C-25.35,274.6-88.28,195.31-78.22,107.9A159.58,159.58,0,0,1,98.55-32.38,158.8,158.8,0,0,1,203.46,24.68L201.92,26A157.57,157.57,0,0,0-17.64,2.72,156.5,156.5,0,0,0-76.23,108.13C-86.16,194.44-24,272.74,62.29,282.68a156.06,156.06,0,0,0,70.9-8.07l.68,1.88A157.39,157.39,0,0,1,80.67,285.74Z" transform="translate(159.52 128.34)"/><path class="cls-6" d="M78.12,230.21h-.5q-1.75,0-3.51-.15l-.5,0,.45-7.7.5,0c1.09.06,2.17.11,3.25.13l.5,0Zm-3.45-1.13c.83,0,1.65.08,2.48.11l.14-5.72c-.76,0-1.53-.06-2.29-.1Zm9.48,1.08-.33-7.71.5,0c1.08-.05,2.17-.11,3.25-.19l.5,0,.58,7.7-.5,0c-1.16.09-2.33.16-3.5.21Zm.71-6.75.24,5.71c.83,0,1.66-.09,2.48-.15l-.43-5.7C86.39,223.33,85.62,223.37,84.86,223.41Zm-17.25,6.06-.5-.07c-1.15-.15-2.31-.31-3.47-.5l-.49-.08,1.22-7.62.5.08c1.07.17,2.14.33,3.22.47l.49.06ZM64.29,228q1.23.19,2.46.36l.71-5.68c-.75-.1-1.5-.2-2.26-.32Zm30.36,1.25-1.1-7.64.49-.07c1.08-.15,2.15-.32,3.22-.52l.49-.08,1.35,7.59-.49.09c-1.15.21-2.31.39-3.47.56Zm0-6.79.81,5.66c.82-.12,1.64-.25,2.45-.4l-1-5.62C96.19,222.22,95.44,222.34,94.68,222.45Zm-37.45,5.21-.48-.11c-1.14-.26-2.27-.54-3.4-.84l-.49-.13,2-7.46.48.13c1.05.28,2.1.54,3.16.78l.48.12Zm-3.14-1.79,2.4.59,1.28-5.57c-.74-.17-1.48-.36-2.21-.55Zm50.92,1.4-1.87-7.49.49-.12q1.58-.39,3.15-.84l.48-.14,2.11,7.42-.48.14c-1.13.32-2.26.62-3.4.91Zm-.66-6.76,1.38,5.54c.81-.2,1.61-.41,2.4-.64l-1.56-5.5Q105.46,220.23,104.35,220.51ZM47.1,224.83l-.48-.17c-1.1-.37-2.2-.77-3.29-1.18l-.47-.18,2.73-7.21.47.17c1,.39,2,.75,3.06,1.1l.47.16Zm-3-2.11c.77.29,1.55.57,2.32.84l1.85-5.41c-.72-.25-1.43-.51-2.15-.78ZM37.31,221l-.46-.21c-1.06-.49-2.11-1-3.16-1.52l-.45-.22,3.44-6.91.45.23q1.45.72,2.94,1.41l.45.2Zm-2.73-2.4c.74.37,1.49.72,2.23,1.07l2.39-5.19-2.07-1Zm-6.64-2.44-.43-.25q-1.52-.88-3-1.83l-.42-.27,4.14-6.52.42.27c.92.59,1.84,1.15,2.77,1.7l.43.25Zm-2.47-2.66c.7.44,1.41.87,2.12,1.29l2.9-4.92q-1-.58-1.95-1.2ZM151,202.54l-5.27-5.64.37-.34c.78-.74,1.56-1.49,2.34-2.26l.5-.51,5.46,5.45-.49.5c-.85.85-1.69,1.66-2.54,2.46ZM147.1,197l3.91,4.18c.65-.62,1.29-1.24,1.94-1.89l-4-4C148.31,195.79,147.71,196.38,147.1,197Zm11.37-2.12-5.82-5.07.33-.38q1.08-1.23,2.1-2.49l.32-.38,6,4.87-.31.39c-.74.9-1.5,1.8-2.27,2.68Zm-4.41-5.17,4.32,3.76c.54-.63,1.07-1.26,1.59-1.9l-4.43-3.61C155.06,188.5,154.56,189.08,154.06,189.66ZM-3.27,188.23l-.3-.41c-.7-.94-1.38-1.9-2-2.86l-.28-.41,6.36-4.37.28.41c.62.89,1.25,1.78,1.89,2.66l.3.4Zm-1.23-3.42c.47.67,1,1.35,1.44,2l4.6-3.39c-.45-.62-.89-1.24-1.33-1.87ZM165,186.58l-6.31-4.46.29-.41c.63-.88,1.24-1.78,1.84-2.68l.27-.42,6.45,4.24-.28.42c-.64,1-1.3,1.94-2,2.9Zm-4.91-4.7,4.67,3.3c.47-.68.94-1.36,1.39-2.05L161.41,180ZM-9.13,179.46l-.26-.43c-.59-1-1.17-2-1.73-3.05l-.24-.44,6.78-3.7.24.44c.51.95,1,1.89,1.6,2.83l.25.43Zm-.87-3.52c.4.72.8,1.44,1.22,2.15l4.93-2.9c-.39-.66-.77-1.32-1.13-2Zm180.71,1.76L164,173.91l.24-.44c.54-.94,1.05-1.9,1.55-2.86l.23-.44,6.85,3.56-.23.45q-.81,1.55-1.68,3.09Zm-5.36-4.17,5,2.81c.4-.72.79-1.45,1.18-2.18l-5.07-2.64C166.08,172.19,165.72,172.86,165.35,173.53Zm-179.42-3.38-.2-.45c-.5-1.08-1-2.15-1.42-3.24l-.2-.46,7.12-3,.19.47c.42,1,.86,2,1.32,3l.21.45Zm-.51-3.61c.33.76.66,1.52,1,2.28l5.19-2.39c-.32-.7-.62-1.39-.92-2.1Zm190,1.75-7.07-3.09.2-.46c.44-1,.85-2,1.25-3l.18-.46,7.18,2.84-.19.47q-.65,1.62-1.35,3.24Zm-5.75-3.6,5.24,2.29c.33-.76.64-1.52.95-2.29l-5.32-2.1Q170.15,163.64,169.7,164.69ZM-18,160.36l-.16-.47c-.38-1.11-.74-2.23-1.08-3.35l-.15-.48,7.39-2.24.14.48c.31,1,.65,2.07,1,3.1l.16.47Zm-.14-3.64c.24.8.5,1.59.76,2.37l5.41-1.84c-.24-.73-.48-1.46-.7-2.18Zm197.39,1.75-7.35-2.36.15-.48c.33-1,.64-2.06.94-3.1l.13-.48,7.43,2.1-.14.48c-.32,1.12-.65,2.24-1,3.36Zm-6.1-3,5.45,1.75c.25-.79.48-1.58.71-2.37l-5.5-1.56C173.57,154,173.35,154.74,173.12,155.46ZM-21,150.23l-.11-.48c-.27-1.15-.51-2.3-.74-3.45l-.09-.49,7.57-1.48.1.49c.21,1.06.43,2.13.68,3.18l.11.49Zm.23-3.63c.16.81.34,1.62.52,2.43l5.57-1.29c-.17-.74-.33-1.49-.48-2.24ZM182,148.3l-7.55-1.6.11-.49c.22-1.06.43-2.12.62-3.19l.08-.49,7.6,1.35-.09.49c-.2,1.15-.42,2.3-.66,3.44Zm-6.36-2.37,5.59,1.19c.17-.81.33-1.62.47-2.43l-5.63-1C175.9,144.44,175.75,145.19,175.6,145.93Zm-198.48-6.07-.07-.49c-.15-1.17-.27-2.33-.38-3.5l-.05-.5,7.68-.71,0,.5c.1,1.08.22,2.15.36,3.23l.06.5Zm.59-3.58q.12,1.23.27,2.46l5.67-.72c-.09-.76-.17-1.51-.25-2.27Zm206,1.63-7.67-.83.05-.5q.18-1.61.3-3.24l0-.49,7.7.57,0,.5c-.08,1.16-.19,2.33-.32,3.49Zm-6.57-1.72,5.68.62c.09-.82.16-1.65.23-2.47l-5.7-.42C177.25,134.68,177.18,135.44,177.1,136.19Zm-200.84-6.83v-.51q0-1.75,0-3.51v-.5l7.72.06v.5c0,1.09,0,2.17,0,3.26v.5Zm1-3.51c0,.83,0,1.65,0,2.48l5.72-.15q0-1.14,0-2.28Zm207.1,1.55-7.71-.06v-.5c0-1.08,0-2.17,0-3.25l0-.5,7.72-.21v.5c0,1.17.05,2.35,0,3.52Zm-6.71-1.05,5.72,0c0-.83,0-1.65,0-2.48l-5.71.15C177.61,124.82,177.61,125.59,177.61,126.35ZM-15.83,119.4l-7.69-.58,0-.5c.09-1.17.2-2.33.33-3.49l.05-.5,7.67.83-.05.5q-.18,1.62-.3,3.24Zm-6.62-1.5,5.7.43q.09-1.14.21-2.28l-5.68-.62C-22.31,116.25-22.38,117.08-22.45,117.9Zm198.68-.31,0-.5c-.11-1.08-.23-2.16-.36-3.23l-.07-.5,7.66-1,.06.5c.15,1.16.28,2.32.39,3.49l0,.5Zm.65-3.37c.09.76.18,1.52.25,2.28l5.69-.54q-.12-1.23-.27-2.46Zm-191.54-4.5-7.6-1.35.09-.49c.2-1.16.43-2.31.67-3.45l.11-.49,7.55,1.61-.11.48c-.22,1.07-.43,2.13-.62,3.19Zm-6.44-2.16,5.63,1c.14-.75.29-1.5.44-2.24l-5.59-1.19Q-20.87,106.35-21.1,107.56Zm196,.36-.1-.49c-.21-1.06-.44-2.13-.68-3.19l-.12-.48L181.5,102l.11.49c.27,1.14.52,2.29.74,3.44l.1.49Zm.3-3.41c.17.74.33,1.49.48,2.24l5.61-1.11c-.16-.81-.33-1.62-.52-2.43Zm-187.7-4.3-7.42-2.12.14-.48c.32-1.12.65-2.24,1-3.35l.16-.48,7.34,2.36-.15.48c-.33,1-.65,2.07-.94,3.11Zm-6.18-2.8L-13.21,99c.22-.73.44-1.45.67-2.18L-18,95C-18.24,95.83-18.47,96.61-18.7,97.41Zm191.25,1-.14-.47c-.32-1-.65-2.07-1-3.1l-.16-.48,7.3-2.5.16.47c.38,1.11.75,2.23,1.09,3.35l.14.48Zm0-3.43c.24.73.48,1.46.71,2.19l5.46-1.67c-.24-.79-.5-1.58-.76-2.37ZM-9.43,91l-7.17-2.85.19-.47q.64-1.62,1.35-3.24l.2-.45,7.07,3.09-.2.46c-.44,1-.86,2-1.25,3Zm-5.87-3.41L-10,89.67c.29-.7.58-1.4.88-2.1l-5.24-2.3C-14.67,86-15,86.79-15.3,87.56Zm184.58,1.67-.2-.46c-.42-1-.86-2-1.31-3l-.21-.46,7-3.23.21.45c.5,1.07,1,2.15,1.43,3.23l.19.46Zm-.4-3.41c.32.7.63,1.4.93,2.11l5.27-2.22c-.33-.77-.66-1.53-1-2.28Zm-3.8-5.4-.24-.44c-.52-1-1.05-1.89-1.61-2.83l-.25-.43,6.64-3.93.25.43q.9,1.52,1.74,3.06l.24.43Zm-.73-3.35c.38.66.76,1.32,1.13,2l5-2.74c-.4-.73-.81-1.44-1.23-2.16Zm-4.33-5-.29-.41c-.61-.89-1.24-1.77-1.89-2.65l-.29-.4,6.2-4.59.3.41c.7.94,1.38,1.89,2,2.86l.28.41Zm-1.08-3.25c.46.62.9,1.24,1.33,1.86L165,67.45c-.47-.68-.95-1.35-1.44-2Zm-4.81-4.53-.33-.38c-.7-.82-1.41-1.64-2.14-2.44l-.34-.37L157,55.92l.34.37c.79.87,1.56,1.75,2.32,2.64l.32.38Zm-1.4-3.12c.51.56,1,1.14,1.51,1.72l4.36-3.71L157,57.33Zm-141-2.69L6.26,53l.44-.43c.8-.81,1.61-1.59,2.44-2.37l.36-.34,5.28,5.63-.37.34c-.76.72-1.51,1.45-2.26,2.2ZM7.68,53l4,4q.81-.81,1.65-1.59L9.46,51.31C8.86,51.87,8.26,52.45,7.68,53Zm139.8,4.12-.36-.35c-.78-.75-1.58-1.49-2.38-2.21l-.37-.34,5.17-5.73.37.33c.87.79,1.72,1.59,2.57,2.4l.36.35Zm-1.7-3c.56.51,1.12,1,1.67,1.56l4-4.12c-.59-.57-1.2-1.13-1.81-1.69ZM18.92,51.89l-4.89-6,.39-.32c.91-.74,1.82-1.47,2.75-2.18l.4-.3,4.69,6.13-.4.3c-.86.66-1.71,1.33-2.55,2Zm-3.48-5.83,3.62,4.42c.59-.48,1.19-.95,1.8-1.42l-3.48-4.54C16.73,45,16.08,45.54,15.44,46.06Zm11.3,0-4.26-6.44.41-.27q1.47-1,3-1.89l.42-.26,4,6.57L29.9,44c-.92.57-1.84,1.15-2.74,1.75Zm-2.88-6.15L27,44.67c.64-.42,1.28-.83,1.93-1.23l-3-4.87C25.25,39,24.56,39.45,23.86,39.91Zm11.25,1.14-3.59-6.83L32,34c1-.54,2.09-1.07,3.15-1.58l.45-.22,3.35,7-.45.22c-1,.47-1.95,1-2.92,1.47Zm-2.23-6.41,2.65,5.06c.68-.35,1.37-.7,2-1L35.1,33.52C34.36,33.88,33.61,34.25,32.88,34.64ZM44,36.91,41.1,29.75l.46-.19c1.09-.43,2.19-.85,3.29-1.25l.47-.17L48,35.4l-.47.17c-1,.37-2,.75-3,1.16Zm-1.56-6.6,2.12,5.31c.71-.29,1.43-.56,2.15-.82l-2-5.38C43.94,29.71,43.17,30,42.4,30.31ZM53.19,33.7l-2.12-7.42.48-.13c1.12-.33,2.26-.63,3.39-.91l.49-.13L57.3,32.6l-.48.12c-1,.27-2.11.55-3.15.85ZM52.3,27l1.57,5.5q1.11-.31,2.22-.6L54.7,26.33C53.9,26.53,53.1,26.75,52.3,27Zm10.39,4.48-1.36-7.6.49-.09c1.15-.21,2.31-.39,3.47-.56l.5-.07,1.1,7.64-.49.07c-1.08.15-2.15.33-3.22.52Zm-.2-6.79,1,5.63c.75-.13,1.5-.26,2.26-.37l-.82-5.66C64.12,24.38,63.3,24.52,62.49,24.66Zm9.88,5.5-.59-7.7.5,0q1.75-.13,3.51-.21l.5,0,.33,7.71-.5,0C75,30,74,30,72.87,30.12Zm.48-6.77.44,5.7c.76-.06,1.52-.1,2.28-.14l-.24-5.71C74.5,23.28,73.68,23.33,72.85,23.39ZM86.37,30l-.5,0c-1.08-.06-2.16-.11-3.24-.13l-.5,0,.18-7.71h.5q1.75,0,3.51.15l.5,0Zm-3.22-1.15q1.14,0,2.28.09l.34-5.7c-.83-.05-1.66-.08-2.48-.11Z" transform="translate(159.52 128.34)"/><path class="cls-6" d="M81.76,344.46c-2.15,0-4.31,0-6.45-.09l-.5,0,.44-15.2.5,0c2.3.06,4.62.09,6.9.08h.5l.07,15.2H81.76Zm-5.92-1.08c2.11.06,4.25.07,6.37.08l-.06-13.21c-2,0-4,0-5.93-.07Zm21.19.54-1.09-15.16.5,0c2.26-.16,4.57-.37,6.88-.61l.5-.05,1.6,15.12-.49.05c-2.43.26-4.92.48-7.4.66Zm0-14.24L98,342.85c2.13-.15,4.27-.35,6.36-.56l-1.39-13.13C101,329.36,99,329.54,97,329.68ZM61,343.49l-.5-.05c-2.46-.24-4.94-.52-7.37-.84l-.49-.06,2-15.08.49.07c2.25.29,4.56.55,6.85.77l.5.05Zm-7.24-1.81c2.09.27,4.22.51,6.34.72l1.26-13.15c-2-.19-4-.42-5.89-.67Zm65.34-.42-2.63-15,.5-.08c2.24-.4,4.52-.84,6.79-1.31l.49-.1,3.12,14.88-.49.1c-2.39.5-4.85,1-7.29,1.4Zm-1.47-14.17,2.28,13c2.1-.37,4.21-.78,6.27-1.21L123.49,326C121.54,326.37,119.58,326.75,117.65,327.09Zm23.18,9.28-4.13-14.64.48-.13c2.19-.62,4.42-1.29,6.63-2l.47-.15,4.62,14.48-.47.15c-2.35.75-4.75,1.47-7.12,2.14Zm-2.9-13.95,3.59,12.71c2-.58,4.1-1.2,6.13-1.84l-4-12.58C141.73,321.31,139.82,321.89,137.93,322.42Zm24,6.87-5.6-14.14.47-.19c2.1-.83,4.25-1.72,6.39-2.65l.46-.2,6.07,13.94-.45.2c-2.24,1-4.55,1.93-6.87,2.85Zm-4.3-13.58L162.51,328c2-.8,4-1.62,5.91-2.46l-5.28-12.11C161.3,314.22,159.46,315,157.64,315.71Zm24.57,4.38-7-13.49.45-.23c2-1,4-2.15,6.06-3.29l.44-.24,7.46,13.25-.43.24c-2.16,1.22-4.35,2.4-6.52,3.53ZM176.55,307l6.09,11.71c1.87-1,3.75-2,5.61-3l-6.48-11.51C180,305.17,178.28,306.12,176.55,307Zm24.87,1.87-8.35-12.71.42-.27c1.92-1.27,3.84-2.57,5.7-3.89l.41-.29,8.77,12.43-.41.28c-2,1.39-4,2.8-6.12,4.17Zm-7-12.42,7.26,11c1.79-1.18,3.56-2.39,5.26-3.59l-7.61-10.79C197.75,294.26,196.11,295.39,194.45,296.48Zm24.93-.65L209.81,284l.39-.32c1.72-1.4,3.44-2.84,5.11-4.29l.56-.48,9.95,11.5-.56.48c-1.79,1.55-3.64,3.1-5.49,4.6Zm-8.17-11.67,8.32,10.26c1.64-1.34,3.28-2.71,4.88-4.1l-8.64-10C214.28,281.63,212.75,282.91,211.21,284.16Zm-287.47-6.7-.35-.36c-1.72-1.79-3.41-3.61-5-5.43l-.33-.37,11.31-10.16.34.38c1.54,1.71,3.12,3.41,4.69,5.05l.35.36Zm-4.31-6.08c1.41,1.56,2.86,3.13,4.34,4.67l9.52-9.15c-1.35-1.41-2.7-2.87-4-4.34Zm-10.3-10.66-.31-.39c-1.49-1.9-3-3.88-4.47-5.9l-.3-.4,12.27-9,.3.4c1.34,1.84,2.75,3.69,4.17,5.51l.3.39Zm-3.68-6.48c1.28,1.73,2.57,3.44,3.85,5.08l10.39-8.15c-1.22-1.56-2.42-3.15-3.59-4.73Zm-9.18-11.64-.27-.42c-1.3-2.05-2.6-4.18-3.86-6.33l-.25-.43,13.11-7.7.26.44c1.15,2,2.36,4,3.59,5.89l.27.42Zm-3-6.82c1.09,1.84,2.2,3.67,3.32,5.44l11.16-7.06c-1-1.67-2.09-3.37-3.09-5.07Zm382.36-8.07-13.45-7.09.23-.44c1.06-2,2.1-4.07,3.1-6.14l.22-.45,13.69,6.62-.22.45c-1.07,2.21-2.19,4.43-3.33,6.61Zm-12.1-7.51,11.68,6.16c1-1.88,1.95-3.79,2.87-5.68l-11.89-5.75C265.32,216.7,264.43,218.47,263.52,220.2Zm-378.22,3.07-.22-.45c-1.11-2.23-2.19-4.48-3.2-6.69l-.2-.46,13.83-6.32.2.46c1,2.08,2,4.17,3,6.22l.22.45Zm-2.3-7.11c.88,1.91,1.8,3.85,2.75,5.76l11.82-5.89c-.88-1.76-1.73-3.56-2.56-5.35Zm402-8.57-14.1-5.69.19-.46c.84-2.1,1.67-4.26,2.46-6.43l.17-.47,14.29,5.2-.17.47c-.85,2.33-1.74,4.65-2.65,6.91Zm-12.8-6.24,12.25,4.94c.78-1.95,1.54-3.95,2.28-5.95l-12.41-4.52C273.63,197.69,272.92,199.54,272.19,201.35Zm-395.83,1.56-.17-.47c-.87-2.3-1.71-4.65-2.51-7l-.16-.47,14.4-4.88.16.47c.74,2.19,1.53,4.38,2.33,6.52l.18.46Zm-1.57-7.32c.69,2,1.41,4,2.15,6L-110.7,197c-.69-1.84-1.36-3.72-2-5.61Zm-5.26-13.88-.13-.48c-.62-2.37-1.22-4.79-1.77-7.21l-.11-.49,14.82-3.38.11.48c.51,2.23,1.06,4.49,1.65,6.71l.13.49Zm-.82-7.43c.48,2.08,1,4.17,1.53,6.21l12.77-3.37c-.5-1.92-1-3.86-1.42-5.78Zm-3.82-14.34-.07-.49c-.39-2.46-.74-4.93-1-7.35l-.06-.5,15.09-1.86.06.49c.28,2.28.61,4.58,1,6.85l.08.49Zm0-7.47c.26,2.09.56,4.22.89,6.33l13-2.06c-.31-2-.58-3.93-.83-5.89Zm-2.35-14.64,0-.5c-.14-2.46-.24-5-.29-7.41v-.5l15.2-.33v.5c0,2.31.14,4.63.27,6.9l0,.5Zm.69-7.43c0,2.12.14,4.26.25,6.38l13.18-.74c-.1-1.95-.18-3.94-.23-5.93Zm422.67-9.32v-.5c0-2.28-.13-4.6-.26-6.9l0-.5,15.18-.83,0,.5c.14,2.43.23,4.92.29,7.41v.5Zm.76-7c.1,2,.18,4,.22,5.93l13.2-.28c0-2.14-.13-4.28-.24-6.38Zm-409.1,2.16-15.19-.69,0-.5c.11-2.46.27-4.95.46-7.4l0-.49L-122,108.4l0,.5c-.18,2.27-.33,4.59-.43,6.89Zm-14.15-1.64,13.19.59c.1-2,.22-4,.37-5.92l-13.16-1C-136.4,110.39-136.54,112.53-136.64,114.65Zm421.06-14.23-.06-.5c-.28-2.3-.6-4.6-.95-6.83l-.08-.49,15-2.37.08.5c.38,2.43.73,4.91,1,7.35l.06.5Zm.06-7c.29,1.92.57,3.9.82,5.88l13.1-1.6c-.26-2.11-.56-4.23-.88-6.33Zm-405,2.25-15-2.21.07-.49c.36-2.43.76-4.88,1.2-7.31l.09-.49,15,2.71-.09.49c-.42,2.3-.79,4.59-1.12,6.81Zm-13.91-3.05,13.07,1.92c.28-1.92.6-3.88,1-5.85l-13-2.36C-133.82,88.43-134.17,90.54-134.48,92.63ZM280.92,80l-.11-.49c-.51-2.22-1.06-4.48-1.65-6.7l-.12-.49,14.7-3.87.13.49c.63,2.41,1.23,4.84,1.77,7.22l.11.49Zm-.66-7c.5,1.91,1,3.85,1.41,5.77l12.88-2.92c-.47-2.05-1-4.14-1.52-6.22Zm-396.85,2.34-14.74-3.72.12-.48c.6-2.39,1.25-4.79,1.93-7.15l.14-.48,14.61,4.21-.14.48c-.63,2.18-1.23,4.42-1.79,6.65ZM-130.11,71l12.8,3.22c.49-1.92,1-3.83,1.54-5.72l-12.68-3.65C-129,66.83-129.59,68.89-130.11,71ZM275.35,60.06l-.15-.47c-.73-2.17-1.51-4.36-2.32-6.51l-.18-.47,14.23-5.35.18.47c.88,2.34,1.72,4.7,2.49,7l.16.47ZM274,53.2c.69,1.85,1.36,3.73,2,5.59l12.52-4.21c-.68-2-1.4-4-2.15-6Zm-384.57,2.41-14.29-5.19.17-.47c.84-2.33,1.73-4.66,2.64-6.91l.19-.47,14.1,5.68-.18.46c-.85,2.11-1.68,4.27-2.46,6.43Zm-13-5.79,12.41,4.51c.68-1.86,1.39-3.71,2.11-5.53l-12.25-4.92C-122.1,45.82-122.86,47.82-123.59,49.82Zm391.38-9-.2-.45c-.95-2.08-1.94-4.17-3-6.23l-.22-.45L278,26.89l.22.45c1.12,2.25,2.19,4.51,3.19,6.7l.2.45Zm-2.05-6.68c.88,1.77,1.73,3.57,2.55,5.36l12-5.47c-.87-1.89-1.79-3.83-2.75-5.77Zm-368.35,2.44L-116.3,30l.21-.45c1.08-2.24,2.2-4.46,3.33-6.61l.23-.45,13.46,7.08-.23.44c-1,2-2.09,4.07-3.09,6.14ZM-115,29.48l11.9,5.74c.86-1.78,1.75-3.55,2.65-5.28l-11.69-6.14C-113.08,25.65-114,27.56-115,29.48Zm373.29-7.07-.25-.43c-1.19-2-2.4-4-3.59-5.89l-.27-.43,12.86-8.11.27.42c1.32,2.1,2.62,4.23,3.85,6.33l.25.43ZM255.59,16c1,1.63,2.06,3.33,3.09,5.07l11.39-6.68c-1.06-1.81-2.18-3.63-3.31-5.44ZM-92.74,18.4l-13-8,.26-.42c1.3-2.11,2.64-4.22,4-6.25l.28-.42,12.67,8.41-.28.41C-90,14.05-91.27,16-92.48,18Zm-11.58-8.29L-93.07,17c1-1.69,2.12-3.36,3.19-5l-11-7.3C-102,6.49-103.19,8.29-104.32,10.11Zm23.26-8.78L-93.14-7.91l.31-.4c1.49-2,3-3.91,4.6-5.81l.32-.38,11.75,9.64-.31.39c-1.48,1.8-2.92,3.62-4.29,5.4ZM-91.73-8.1l10.48,8c1.18-1.54,2.42-3.1,3.69-4.65L-87.77-13.1C-89.11-11.46-90.44-9.78-91.73-8.1Zm24-6.37L-78.79-24.88l.35-.37c1.68-1.78,3.42-3.57,5.17-5.31l.35-.35L-62.2-20.13l-.35.36c-1.64,1.62-3.26,3.28-4.82,4.94Zm-9.66-10.46,9.62,9c1.35-1.43,2.74-2.85,4.14-4.25l-9.31-9.37C-74.43-28-75.92-26.46-77.37-24.93Zm24.54-3.91-10-11.49.69-.6c1.93-1.67,3.8-3.23,5.72-4.79L-56-46l9.57,11.82-.39.32c-1.77,1.42-3.55,2.92-5.29,4.43Zm-8.55-11.39,8.65,10c1.61-1.4,3.26-2.78,4.9-4.12l-8.3-10.26C-57.9-43.2-59.62-41.75-61.38-40.23Zm265,1.27-.4-.3c-1.87-1.38-3.75-2.73-5.61-4l-.41-.29,8.63-12.51.42.28c2,1.38,4,2.83,6,4.32l.41.3Zm-5-4.85c1.6,1.11,3.22,2.27,4.82,3.45L211.23-51c-1.73-1.27-3.47-2.52-5.19-3.71ZM186.4-50.46l-.43-.25c-2-1.21-4.06-2.36-6-3.43l-.43-.24,7.31-13.33.44.25c2.11,1.15,4.27,2.38,6.43,3.66l.43.26Zm-5.52-4.31c1.68.93,3.42,1.92,5.16,2.94l6.73-11.36c-1.86-1.1-3.72-2.15-5.53-3.16Zm-12.75-5.37-.45-.21c-2.08-1-4.2-1.9-6.3-2.79l-.46-.2,5.93-14,.46.2c2.22.94,4.49,2,6.75,3l.45.21Zm-5.9-3.73c1.81.77,3.62,1.58,5.41,2.4l5.55-12c-1.95-.89-3.9-1.76-5.81-2.57Zm-13.24-4-.47-.17c-2.15-.74-4.35-1.46-6.55-2.14l-.48-.14L146-84.89l.48.14c2.3.71,4.66,1.48,7,2.3l.47.16ZM142.74-71c1.89.58,3.78,1.2,5.63,1.84l4.31-12.49c-2-.69-4.06-1.36-6.05-2Zm-13.59-2.7-.49-.11c-2.26-.53-4.52-1-6.74-1.47l-.49-.1,3-14.91.49.1c2.45.5,4.89,1,7.23,1.58l.48.11Zm-6.54-2.46c1.91.39,3.85.81,5.79,1.26l3-12.85c-2-.47-4.11-.93-6.22-1.36ZM39.16-74.89l-3.1-14.89.49-.1c2.38-.5,4.84-1,7.29-1.39l.49-.09,2.6,15-.49.09c-2.25.39-4.54.83-6.79,1.3ZM37.24-89l2.7,12.93c1.94-.4,3.9-.78,5.84-1.12l-2.26-13C41.41-89.83,39.3-89.43,37.24-89Zm71.58,11.51-.5-.07c-2.3-.3-4.61-.56-6.86-.78l-.5,0,1.48-15.13.49,0c2.42.23,4.89.51,7.36.84l.5.06Zm-6.76-1.8c1.94.19,3.92.42,5.89.68l1.72-13.1c-2.13-.27-4.25-.51-6.34-.72ZM59.62-78.14,58-93.26l.5-.06c2.45-.25,4.94-.47,7.39-.65l.5,0,1.07,15.17-.49,0c-2.31.17-4.63.37-6.89.61Zm-.49-14.23,1.38,13.13c2-.2,3.93-.37,5.92-.52l-.94-13.17C63.38-92.78,61.25-92.59,59.13-92.37ZM88.19-79.21h-.5c-2.32-.07-4.65-.1-6.9-.09h-.5l-.06-15.2h.5c2.45,0,4.93,0,7.41.09l.5,0Zm-6.76-1.1c1.9,0,3.85,0,5.79.08l.39-13.2c-2.13-.06-4.27-.09-6.37-.09l0,13.21Z" transform="translate(159.52 128.34)"/><path class="cls-6" d="M2,230.27l-.28-.21c-1.66-1.26-3.3-2.57-4.9-3.9L-5.52,229l-.38-.33c-2.11-1.77-4.2-3.65-6.21-5.56l-.36-.35,2.54-2.67c-.63-.6-1.25-1.21-1.87-1.83S-13.27,216.76-14,216l-2.68,2.54-.34-.37c-1.91-2-3.77-4.1-5.55-6.23l-.32-.38,2.84-2.37c-1.23-1.48-2.43-3-3.58-4.52l-3,2.23-.3-.4c-1.66-2.22-3.28-4.52-4.8-6.83l-.27-.42,3.09-2c-1-1.58-2.05-3.22-3-4.89l-3.2,1.87-.25-.43c-1.4-2.4-2.74-4.86-4-7.33l-.22-.45,3.32-1.67c-.95-1.89-1.84-3.8-2.67-5.68l-.16-.38,4.73-3.39.25.58A123.67,123.67,0,0,0-7.78,214.23,126.18,126.18,0,0,0,6.62,226.6l.59.44Zm-5.3-5.52.38.33c1.62,1.35,3.29,2.69,5,4L5.44,227a127.3,127.3,0,0,1-13.93-12,124.9,124.9,0,0,1-26.28-38.53l-3.06,2.19c.84,1.9,1.75,3.82,2.7,5.71l.23.45-3.32,1.67c1.1,2.16,2.27,4.3,3.48,6.4l3.2-1.87.25.43c1.14,2,2.33,3.87,3.53,5.7l.28.42-3.09,2c1.34,2,2.74,4,4.19,6l3-2.23.3.4c1.33,1.78,2.73,3.55,4.17,5.26l.32.39-2.84,2.37c1.56,1.84,3.18,3.67,4.84,5.43l2.68-2.53.34.36c.82.87,1.66,1.74,2.52,2.59s1.47,1.46,2.21,2.17l.37.34-2.55,2.67c1.76,1.66,3.58,3.3,5.42,4.86Z" transform="translate(159.52 128.34)"/><path class="cls-6" d="M-43.2,110.26-48,106.39l-4.07-.63.08-.5c.43-2.73.95-5.49,1.55-8.19l.11-.49,3.65.81c.41-1.83.87-3.7,1.38-5.58l-3.6-1,.14-.48c.73-2.67,1.56-5.34,2.47-8l.16-.47,3.52,1.21c.64-1.83,1.32-3.64,2-5.38l-3.45-1.4.19-.46c1-2.57,2.17-5.13,3.36-7.62l.22-.45,3.35,1.6c.83-1.72,1.71-3.44,2.62-5.13l-3.26-1.77.24-.44c1.33-2.43,2.75-4.85,4.22-7.2l.27-.42,3.13,2c1-1.6,2.09-3.21,3.19-4.8l-3-2.13.29-.41c1.59-2.26,3.28-4.5,5-6.66l.31-.39,2.88,2.31c1.21-1.49,2.45-3,3.72-4.4l-2.76-2.45.34-.38c1.72-1.93,3.52-3.84,5.36-5.67l.73-.73,2.6,2.62C-9.71,32-8.3,30.65-6.88,29.37l-2.46-2.75.37-.34c2.07-1.85,4.21-3.65,6.38-5.37l.39-.3,2.29,2.9c1.52-1.19,3.07-2.35,4.62-3.45L2.57,17,3,16.75c2.26-1.6,4.6-3.15,7-4.61l.43-.26,2,3.15c1.61-1,3.29-2,5-2.9L15.5,8.88l.44-.24C18.37,7.3,20.88,6,23.38,4.86l.45-.22L25.41,8c1.78-.82,3.55-1.6,5.29-2.32L29.3,2.25l.46-.19C32.33,1,35,0,37.6-.84L38.07-1l1.19,3.54c1.83-.61,3.68-1.17,5.52-1.69l-1-3.6.49-.13c2.67-.75,5.4-1.42,8.11-2L52.85-5l.78,3.66c1.86-.38,3.76-.73,5.67-1l-.59-3.7.5-.08c2.73-.44,5.52-.79,8.28-1.05l.49,0,.36,3.73c1.86-.17,3.79-.31,5.75-.4l-.17-3.74.5,0c2.77-.12,5.57-.15,8.34-.1h.5l-.07,4.25L84,1.67h-.6A124.35,124.35,0,0,0-43.08,109.38Zm-7.74-5.34,3.34.53,3.65,2.93A125.35,125.35,0,0,1,82.79.65l-.6-4.11.06-3.33c-2.42,0-4.87,0-7.28.09l.16,3.75-.5,0c-2.29.1-4.54.25-6.69.46l-.5,0-.36-3.72c-2.4.24-4.83.55-7.22.92l.58,3.7L60-1.45c-2.22.35-4.45.76-6.6,1.22l-.49.1-.78-3.66C49.72-3.28,47.34-2.69,45-2l1,3.59-.48.14c-2.14.59-4.3,1.25-6.43,2l-.47.16L37.44.27C35.15,1,32.85,1.9,30.6,2.8L32,6.24l-.47.19c-2,.82-4.09,1.73-6.16,2.69l-.45.22L23.35,6C21.17,7,19,8.12,16.86,9.27l1.79,3.26-.44.24c-2,1.08-3.93,2.21-5.8,3.37L12,16.4l-2-3.15c-2,1.28-4.09,2.63-6.07,4l2.14,3-.41.29c-1.8,1.28-3.61,2.63-5.37,4l-.39.31L-2.36,22c-1.89,1.5-3.76,3.08-5.57,4.69l2.46,2.74-.37.34c-1.66,1.48-3.3,3-4.88,4.6l-.36.35-2.6-2.62,0,0c-1.7,1.7-3.37,3.46-5,5.26l2.75,2.45-.33.37c-1.48,1.66-2.94,3.39-4.33,5.13l-.32.39-2.88-2.31c-1.5,1.89-3,3.84-4.37,5.81l3,2.13-.29.41c-1.3,1.85-2.55,3.73-3.72,5.58l-.27.43-3.13-2c-1.28,2-2.52,4.16-3.68,6.28L-33,63.87l-.24.44c-1.07,2-2.09,4-3,6l-.22.45-3.35-1.61c-1,2.18-2,4.41-2.94,6.65l3.45,1.39-.19.47c-.81,2-1.59,4.12-2.33,6.27l-.17.47-3.52-1.21c-.78,2.29-1.5,4.62-2.16,7l3.6,1-.13.48c-.6,2.2-1.15,4.38-1.62,6.5l-.1.49-3.65-.81C-50.1,100.13-50.56,102.54-50.94,104.92Z" transform="translate(159.52 128.34)"/><path class="cls-6" d="M78.89,260.08h-.5c-2.76,0-5.57-.16-8.33-.37l-.5,0,.28-3.74c-1.89-.15-3.82-.35-5.72-.59l-.48,3.72-.5-.06c-2.73-.35-5.5-.8-8.23-1.32l-.49-.09.7-3.68c-1.86-.36-3.75-.77-5.62-1.23l-.89,3.63-.48-.12c-2.69-.66-5.39-1.41-8-2.24l-.48-.15,1.12-3.57c-2-.63-4-1.31-5.91-2l-.21-.07-2.83-7.24,1.08.45A124.58,124.58,0,0,0,143,18.48l-.43-.24,2.52-4.53,2.12-3.64.44.25c2.38,1.39,4.76,2.88,7.07,4.42l.42.28-2.06,3.08c1.58,1.06,3.15,2.18,4.7,3.32l2.22-3,.4.3c2.21,1.66,4.41,3.41,6.52,5.2l.38.33-2.39,2.81c1.46,1.25,2.9,2.54,4.29,3.84l2.53-2.69.37.35c1,.92,1.95,1.86,2.91,2.83s2,2,3,3.07l.34.36-2.69,2.53c1.3,1.4,2.59,2.84,3.83,4.3l2.82-2.39.32.38c1.8,2.12,3.54,4.32,5.19,6.53l.3.4-3,2.21c1.15,1.56,2.26,3.14,3.32,4.71l3.08-2.05.27.42c1.54,2.3,3,4.68,4.42,7.08l.25.43-3.21,1.86q1.42,2.49,2.75,5.06l3.31-1.69.23.44c1.26,2.47,2.46,5,3.57,7.56l.2.46-3.4,1.48c.74,1.73,1.46,3.53,2.15,5.36l3.49-1.31.17.47c1,2.59,1.88,5.25,2.69,7.91l.14.48L205,88.58c.56,1.86,1.07,3.72,1.53,5.56l3.63-.9.12.48c.67,2.68,1.26,5.43,1.76,8.16l.09.49-3.68.68c.33,1.89.63,3.8.89,5.69l3.71-.48.07.49c.36,2.75.63,5.55.82,8.31l0,.5-3.74.25c.12,1.88.2,3.81.24,5.76l3.75-.06v.5c0,2.77,0,5.58-.13,8.34l0,.5-3.74-.18c-.1,1.9-.24,3.83-.42,5.75l3.73.36,0,.5c-.27,2.76-.63,5.54-1.07,8.27l-.08.49-3.7-.59c-.31,1.91-.66,3.81-1,5.65l3.65.79-.1.49c-.58,2.7-1.25,5.42-2,8.09l-.14.48-3.6-1c-.52,1.84-1.09,3.68-1.69,5.49l3.54,1.2-.16.47c-.89,2.62-1.87,5.25-2.91,7.81l-.19.46L200.66,176c-.71,1.74-1.49,3.51-2.31,5.26l3.37,1.59-.22.45c-1.18,2.5-2.45,5-3.79,7.43l-.24.44-3.25-1.79c-.94,1.7-1.91,3.37-2.9,5l3.14,2-.26.43c-1.46,2.34-3,4.68-4.62,7l-.29.4-3-2.14c-1.11,1.55-2.27,3.1-3.45,4.61l2.89,2.29-.31.39c-1.71,2.17-3.52,4.32-5.38,6.38l-.33.37L177,213.48c-1.29,1.43-2.62,2.83-4,4.19l2.61,2.6-.58.58c-2,2-4,3.89-6.07,5.72l-.38.33-2.44-2.77c-1.45,1.27-2.93,2.51-4.42,3.7l2.31,2.89-.39.32c-2.17,1.72-4.42,3.4-6.69,5l-.41.28-2.12-3c-1.57,1.09-3.19,2.15-4.81,3.17l2,3.14-.42.26c-2.35,1.47-4.78,2.88-7.22,4.19l-.44.24L141.72,241c-1.7.91-3.42,1.78-5.14,2.6l1.59,3.36-.45.22c-2.51,1.19-5.08,2.31-7.66,3.34l-.46.19-1.39-3.46c-1.76.69-3.58,1.36-5.41,2l1.2,3.53-.47.16c-2.61.89-5.3,1.71-8,2.44l-.48.13-1-3.6c-1.84.49-3.72,1-5.61,1.36l.8,3.66-.49.1c-2.72.59-5.48,1.1-8.21,1.51l-.5.08-.56-3.71c-1.92.29-3.84.53-5.72.73l.37,3.72-.5.05c-2.76.28-5.56.47-8.32.57l-.5,0-.14-3.75c-1.9.06-3.83.09-5.76.07Zm-8.26-1.35c2.42.18,4.86.29,7.27.33l.06-3.75h.5c2.23,0,4.49,0,6.7-.08l.5,0L85.8,259c2.41-.1,4.85-.26,7.27-.49l-.37-3.73.49-.05c2.19-.22,4.43-.5,6.66-.84l.5-.07.56,3.7c2.39-.37,4.79-.82,7.17-1.32l-.8-3.65.49-.11c2.2-.47,4.4-1,6.53-1.58l.48-.13,1,3.6c2.34-.65,4.69-1.37,7-2.13l-1.2-3.54.47-.16c2.14-.72,4.26-1.5,6.31-2.32l.46-.18,1.38,3.45c2.25-.9,4.5-1.88,6.69-2.91l-1.59-3.36.45-.22c2-.94,4-2,6-3l.44-.24,1.76,3.27c2.12-1.16,4.24-2.39,6.29-3.66l-2-3.14.42-.26c1.89-1.18,3.77-2.42,5.6-3.7l.41-.29,2.12,3c2-1.39,3.93-2.86,5.83-4.36l-2.3-2.89.39-.31c1.74-1.38,3.47-2.83,5.14-4.31l.37-.33,2.45,2.77c1.88-1.68,3.74-3.43,5.53-5.22l-2.61-2.59.35-.36c1.57-1.57,3.12-3.22,4.61-4.87l.33-.38,2.74,2.47c1.62-1.81,3.19-3.68,4.7-5.57l-2.9-2.29.31-.39c1.39-1.75,2.74-3.56,4-5.37l.29-.4,3,2.14c1.4-2,2.75-4,4-6.07l-3.14-2,.26-.42c1.16-1.87,2.3-3.82,3.39-5.8l.24-.43,3.24,1.78c1.16-2.12,2.28-4.3,3.31-6.48L197,181.7l.22-.45c1-2,1.86-4.1,2.69-6.13l.19-.46,3.44,1.41c.9-2.24,1.76-4.53,2.54-6.81l-3.54-1.2.16-.47c.71-2.11,1.38-4.26,2-6.4l.13-.48,3.6,1c.64-2.34,1.23-4.71,1.75-7.07l-3.66-.78.11-.49c.46-2.14.87-4.36,1.23-6.59l.08-.49,3.69.6c.38-2.39.69-4.81.94-7.22l-3.73-.37,0-.49c.22-2.24.38-4.49.48-6.69l0-.5,3.74.17c.11-2.41.14-4.85.11-7.28l-3.75.06v-.5c0-2.26-.13-4.52-.28-6.7l0-.5,3.73-.25c-.17-2.42-.41-4.85-.71-7.25l-3.72.48-.06-.49c-.29-2.21-.64-4.44-1-6.63l-.09-.49,3.69-.68c-.45-2.38-1-4.78-1.54-7.12l-3.63.9-.12-.49c-.52-2.12-1.12-4.3-1.78-6.47l-.15-.48,3.57-1.09c-.71-2.32-1.5-4.63-2.34-6.9l-3.48,1.3-.18-.47c-.79-2.13-1.64-4.22-2.51-6.23l-.2-.46L202,72.58c-1-2.22-2-4.44-3.13-6.6l-3.3,1.7-.23-.45c-1-2-2.1-4-3.21-5.89l-.25-.43,3.21-1.86c-1.22-2.09-2.52-4.17-3.85-6.18l-3.08,2.05-.28-.42c-1.22-1.83-2.52-3.68-3.86-5.48l-.3-.4,3-2.21c-1.45-1.93-3-3.84-4.53-5.7l-2.81,2.39-.33-.38c-1.44-1.71-2.94-3.39-4.46-5l-.34-.37,2.69-2.52c-.86-.9-1.73-1.8-2.61-2.68s-1.68-1.66-2.54-2.47l-2.52,2.68-.37-.34c-1.61-1.52-3.29-3-5-4.47l-.38-.33,2.39-2.81c-1.85-1.56-3.76-3.08-5.69-4.54l-2.22,3-.4-.3c-1.79-1.34-3.64-2.64-5.47-3.87l-.42-.28,2.06-3.07c-2-1.34-4.09-2.64-6.18-3.86L146,14.21l-2,3.66A125.58,125.58,0,0,1,33.57,242.69l1.82,4.64c2,.74,4,1.44,6.13,2.09l.47.15-1.11,3.56c2.31.72,4.66,1.37,7,2l.89-3.62.49.12c2.17.53,4.37,1,6.54,1.43l.49.09-.7,3.67c2.38.45,4.79.84,7.18,1.15l.48-3.72.5.07c2.22.28,4.46.51,6.67.68l.5,0Z" transform="translate(159.52 128.34)"/><path class="cls-6" d="M406.54,212.32c-26.25,0-46.19-.21-46.82-.84l-.16-.37c0,.07,0,.12,0,.12-.84-1.89-30.07-30.59-49.52-49.41l.69-.72c14.32,13.86,46.8,45.46,49.61,49.61,4.15,1.13,109.15.43,164.36-.1v1C501.58,211.83,446.68,212.32,406.54,212.32Z" transform="translate(159.52 128.34)"/><polygon class="cls-6" points="832.32 297.79 839.49 297.79 835.91 289.29 832.32 297.79"/><polygon class="cls-6" points="832.32 287.02 839.49 287.02 835.91 278.51 832.32 287.02"/><polygon class="cls-6" points="832.32 276.25 839.49 276.25 835.91 267.74 832.32 276.25"/><polygon class="cls-6" points="832.32 265.48 839.49 265.48 835.91 256.97 832.32 265.48"/><polygon class="cls-6" points="832.32 254.7 839.49 254.7 835.91 246.2 832.32 254.7"/><path class="cls-6" d="M572.49,298.57a3.89,3.89,0,1,1,3.89-3.89A3.89,3.89,0,0,1,572.49,298.57Zm0-6.78a2.89,2.89,0,1,0,2.89,2.89A2.89,2.89,0,0,0,572.49,291.79Z" transform="translate(159.52 128.34)"/><path class="cls-6" d="M585.09,298.57a3.89,3.89,0,1,1,3.89-3.89A3.89,3.89,0,0,1,585.09,298.57Zm0-6.78a2.89,2.89,0,1,0,2.89,2.89A2.9,2.9,0,0,0,585.09,291.79Z" transform="translate(159.52 128.34)"/><path class="cls-6" d="M597.7,298.57a3.89,3.89,0,1,1,3.89-3.89A3.89,3.89,0,0,1,597.7,298.57Zm0-6.78a2.89,2.89,0,1,0,2.89,2.89A2.9,2.9,0,0,0,597.7,291.79Z" transform="translate(159.52 128.34)"/><path class="cls-6" d="M610.3,298.57a3.89,3.89,0,1,1,3.89-3.89A3.89,3.89,0,0,1,610.3,298.57Zm0-6.78a2.89,2.89,0,1,0,2.89,2.89A2.89,2.89,0,0,0,610.3,291.79Z" transform="translate(159.52 128.34)"/><path class="cls-6" d="M622.91,298.57a3.89,3.89,0,1,1,3.89-3.89A3.89,3.89,0,0,1,622.91,298.57Zm0-6.78a2.89,2.89,0,1,0,2.89,2.89A2.9,2.9,0,0,0,622.91,291.79Z" transform="translate(159.52 128.34)"/><path class="cls-6" d="M635.52,298.57a3.89,3.89,0,1,1,3.89-3.89A3.89,3.89,0,0,1,635.52,298.57Zm0-6.78a2.89,2.89,0,1,0,2.89,2.89A2.89,2.89,0,0,0,635.52,291.79Z" transform="translate(159.52 128.34)"/><path class="cls-6" d="M648.12,298.57a3.89,3.89,0,1,1,3.89-3.89A3.89,3.89,0,0,1,648.12,298.57Zm0-6.78a2.89,2.89,0,1,0,2.89,2.89A2.9,2.9,0,0,0,648.12,291.79Z" transform="translate(159.52 128.34)"/><path class="cls-6" d="M327.27,434.29a3.89,3.89,0,1,1,3.89-3.89A3.89,3.89,0,0,1,327.27,434.29Zm0-6.78a2.89,2.89,0,1,0,2.89,2.89A2.9,2.9,0,0,0,327.27,427.51Z" transform="translate(159.52 128.34)"/><path class="cls-6" d="M339.88,434.29a3.89,3.89,0,1,1,3.89-3.89A3.89,3.89,0,0,1,339.88,434.29Zm0-6.78a2.89,2.89,0,1,0,2.89,2.89A2.89,2.89,0,0,0,339.88,427.51Z" transform="translate(159.52 128.34)"/><path class="cls-6" d="M352.48,434.29a3.89,3.89,0,1,1,3.89-3.89A3.89,3.89,0,0,1,352.48,434.29Zm0-6.78a2.89,2.89,0,1,0,2.89,2.89A2.9,2.9,0,0,0,352.48,427.51Z" transform="translate(159.52 128.34)"/><path class="cls-6" d="M365.09,434.29A3.89,3.89,0,1,1,369,430.4,3.89,3.89,0,0,1,365.09,434.29Zm0-6.78A2.89,2.89,0,1,0,368,430.4,2.9,2.9,0,0,0,365.09,427.51Z" transform="translate(159.52 128.34)"/><path class="cls-6" d="M377.7,434.29a3.89,3.89,0,1,1,3.88-3.89A3.89,3.89,0,0,1,377.7,434.29Zm0-6.78a2.89,2.89,0,1,0,2.88,2.89A2.89,2.89,0,0,0,377.7,427.51Z" transform="translate(159.52 128.34)"/><path class="cls-6" d="M390.3,434.29a3.89,3.89,0,1,1,3.89-3.89A3.89,3.89,0,0,1,390.3,434.29Zm0-6.78a2.89,2.89,0,1,0,2.89,2.89A2.9,2.9,0,0,0,390.3,427.51Z" transform="translate(159.52 128.34)"/><path class="cls-6" d="M402.91,434.29a3.89,3.89,0,1,1,3.89-3.89A3.89,3.89,0,0,1,402.91,434.29Zm0-6.78a2.89,2.89,0,1,0,2.89,2.89A2.9,2.9,0,0,0,402.91,427.51Z" transform="translate(159.52 128.34)"/><path class="cls-6" d="M324.38,376.57a2.24,2.24,0,1,1-2.23-2.24A2.23,2.23,0,0,1,324.38,376.57Z" transform="translate(159.52 128.34)"/><path class="cls-6" d="M322.15,379.31a2.74,2.74,0,1,1,2.73-2.74A2.74,2.74,0,0,1,322.15,379.31Zm0-4.48a1.74,1.74,0,1,0,1.73,1.74A1.74,1.74,0,0,0,322.15,374.83Z" transform="translate(159.52 128.34)"/><path class="cls-6" d="M100.49,446.53a2.24,2.24,0,1,1-2.24-2.24A2.24,2.24,0,0,1,100.49,446.53Z" transform="translate(159.52 128.34)"/><path class="cls-6" d="M98.25,449.27a2.74,2.74,0,1,1,2.74-2.74A2.74,2.74,0,0,1,98.25,449.27Zm0-4.48a1.74,1.74,0,1,0,1.74,1.74A1.74,1.74,0,0,0,98.25,444.79Z" transform="translate(159.52 128.34)"/><path class="cls-6" d="M742,546.35a51.08,51.08,0,1,1,36.14-14.94A50.95,50.95,0,0,1,742,546.35Zm0-101.16a50.08,50.08,0,1,0,35.43,14.65A49.94,49.94,0,0,0,742,445.19Z" transform="translate(159.52 128.34)"/><path class="cls-6" d="M741.39,542.67l-1.08,0,.25-7,.92,0Zm4.31-.15-.53-7,.9-.08.72,7C746.42,542.46,746.06,542.5,745.7,542.52ZM736,542.3l-1.07-.15,1-6.92.91.12Zm15-.51-1.33-6.87.9-.18,1.49,6.84C751.76,541.65,751.41,541.73,751.05,541.79Zm-20.34-.47-1-.26,1.8-6.77.9.23Zm25.57-.86-2.11-6.67.88-.29,2.25,6.63Zm-30.73-.71-1-.38,2.55-6.52.87.33Zm35.78-1.21-2.86-6.38.83-.39,3,6.32C762,538.25,761.66,538.4,761.33,538.54Zm-40.73-.94-1-.5,3.3-6.17.81.42Zm45.52-1.54-3.56-6,.78-.48,3.71,5.94Zm-50.19-1.17c-.3-.19-.6-.4-.89-.6l4-5.76.76.52Zm54.67-1.84-4.23-5.58.72-.56,4.37,5.47Zm-59-1.37-.81-.7,4.6-5.28c.23.21.47.41.7.6Zm63.11-2.14-4.84-5.06.66-.64.56-.58,5.06,4.84-.68.69Zm-67-1.55-.74-.79,5.17-4.72.63.68ZM779,524.86l-5.48-4.36.57-.73,5.57,4.24Zm-74.83-1c-.22-.28-.43-.57-.64-.86l5.67-4.11.55.75Zm78-3.41-5.93-3.73c.17-.25.32-.51.48-.77l6,3.58C782.5,519.86,782.31,520.17,782.12,520.47Zm-81-1.07-.54-.94,6.11-3.42c.15.27.3.54.46.8Zm83.57-3.66-6.31-3,.39-.84,6.38,2.88C785,515.1,784.88,515.42,784.72,515.74Zm-86.05-1.13c-.14-.33-.29-.66-.42-1l6.45-2.71c.12.28.24.57.37.85Zm88.1-3.85-6.62-2.29c.1-.29.2-.58.29-.87l6.67,2.13C787,510.08,786.89,510.42,786.77,510.76Zm-90-1.2c-.11-.34-.22-.69-.32-1l6.73-1.94c.08.29.17.58.26.87Zm91.48-4-6.84-1.52c.07-.3.13-.6.19-.9l6.87,1.36C788.39,504.86,788.31,505.21,788.24,505.57Zm-92.81-1.24c-.07-.36-.13-.71-.19-1.07l6.9-1.17c.05.31.11.61.16.91Zm93.67-4.09-7-.73.09-.92,7,.58C789.17,499.53,789.14,499.89,789.1,500.24ZM694.71,499c0-.36-.06-.73-.08-1.09l7-.37q0,.45.06.9Zm87.65-4.08c0-.31,0-.61,0-.91l7-.23c0,.37,0,.73,0,1.09Zm-80.77-1.07-7-.25c0-.36,0-.72,0-1.08l7,.41C701.61,493.23,701.6,493.53,701.59,493.84Zm80.47-3.51-.12-.92,6.92-1,.15,1.07Zm-80-1.08-6.92-1c0-.36.11-.72.17-1.08l6.89,1.21C702.1,488.65,702.05,489,702,489.25Zm79.23-3.45c-.07-.3-.15-.6-.23-.9l6.77-1.78c.1.34.18.69.27,1ZM703,484.75l-6.76-1.81c.09-.34.19-.69.29-1l6.72,2C703.11,484.16,703,484.46,703,484.75Zm77-3.35-.33-.86,6.52-2.56c.13.34.26.67.38,1Zm-75.53-1-6.51-2.57c.13-.34.27-.67.41-1l6.45,2.73C704.62,479.83,704.5,480.11,704.39,480.39Zm73.7-3.22c-.13-.27-.27-.55-.42-.82l6.19-3.27.49.95Zm-71.77-.94-6.17-3.31.52-.95,6.09,3.45C706.61,475.69,706.46,476,706.32,476.23Zm69.48-3-.51-.77,5.77-4q.3.44.6.9Zm-67.09-.88-5.74-4,.62-.87,5.66,4.12Zm64.36-2.82-.6-.71,5.28-4.59c.24.27.47.55.7.82Zm-61.52-.81-5.27-4.61.72-.81,5.16,4.74C712,468.22,711.75,468.45,711.55,468.68Zm58.38-2.56-.68-.64,4.74-5.15.78.73Zm-55.16-.72-4.71-5.18.79-.71,4.61,5.27Zm51.67-2.27c-.24-.19-.49-.37-.74-.55l4.12-5.67.86.64Zm-48.1-.64-4.1-5.67.88-.63,4,5.77Zm44.29-1.94-.8-.47,3.46-6.08.93.54ZM722.21,460l-3.42-6.11,1-.52,3.28,6.18Zm36.35-1.6-.85-.36,2.74-6.45,1,.43ZM726.35,458l-2.71-6.46,1-.4,2.56,6.51Zm27.92-1.22-.88-.27,2-6.71,1,.31Zm-23.59-.31-1.94-6.72,1-.29,1.79,6.76Zm19.12-.83-.89-.17,1.19-6.9,1.08.2Zm-14.63-.2-1.17-6.9,1.07-.17,1,6.93Zm10.09-.44-.92-.06.41-7,1.08.08Zm-5.52-.07-.39-7,1.1,0,.2,7Z" transform="translate(159.52 128.34)"/><path class="cls-6" d="M742,637.15h-1.42l0-2c1.32,0,2.64,0,4,0l0,2Zm-6.45-.15q-2-.09-4-.24l.15-2c1.32.09,2.64.17,4,.23Zm14.09-.06-.1-2q2-.11,4-.27l.16,2Q751.63,636.84,749.6,636.94Zm-23.12-.64c-1.34-.14-2.67-.31-4-.49l.27-2c1.32.18,2.63.34,4,.49Zm32.15-.13-.23-2c1.31-.15,2.63-.33,3.94-.52l.29,2C761.3,635.84,760,636,758.63,636.17ZM717.51,635c-1.32-.23-2.64-.48-4-.74l.4-2c1.3.26,2.6.51,3.9.73Zm50.09-.21-.36-2c1.3-.24,2.6-.5,3.9-.77l.41,1.95C770.24,634.32,768.92,634.58,767.6,634.82Zm-59-1.62c-1.31-.32-2.61-.65-3.9-1l.52-1.93c1.28.35,2.56.67,3.85,1Zm67.82-.29L776,631q1.93-.48,3.84-1l.54,1.93C779.06,632.24,777.76,632.59,776.46,632.91ZM699.9,630.8c-1.28-.4-2.55-.81-3.83-1.25l.65-1.89c1.25.43,2.51.84,3.77,1.23Zm85.28-.37-.61-1.9c1.26-.4,2.52-.82,3.77-1.26l.66,1.88C787.73,629.6,786.46,630,785.18,630.43Zm-93.84-2.58c-1.25-.48-2.5-1-3.74-1.49l.77-1.85c1.22.51,2.45,1,3.68,1.47Zm102.39-.45-.73-1.86c1.23-.48,2.46-1,3.68-1.5l.78,1.84C796.22,626.41,795,626.92,793.73,627.4Zm-110.74-3c-1.22-.56-2.43-1.13-3.64-1.72l.88-1.8c1.19.59,2.39,1.15,3.59,1.7Zm119.07-.52-.85-1.81c1.2-.56,2.39-1.14,3.58-1.74l.9,1.79C804.49,622.68,803.28,623.26,802.06,623.83Zm-127.18-3.5c-1.18-.64-2.36-1.29-3.52-2l1-1.73c1.14.66,2.3,1.3,3.46,1.92Zm135.27-.6-1-1.76c1.16-.63,2.31-1.29,3.46-2l1,1.73C812.5,618.42,811.33,619.08,810.15,619.73ZM667,615.79c-1.13-.71-2.26-1.43-3.38-2.18l1.11-1.66c1.1.73,2.21,1.44,3.33,2.14ZM818,615.11l-1.08-1.69c1.12-.71,2.23-1.43,3.33-2.18l1.12,1.66C820.22,613.66,819.09,614.39,818,615.11Zm-158.44-4.35c-1.09-.78-2.17-1.57-3.24-2.38l1.21-1.6c1.06.8,2.12,1.59,3.19,2.36ZM825.46,610l-1.18-1.62c1.07-.77,2.13-1.57,3.18-2.38l1.22,1.58C827.62,608.4,826.54,609.21,825.46,610Zm-173.13-4.74c-1-.84-2.06-1.71-3.08-2.59l1.31-1.51c1,.87,2,1.72,3,2.56Zm180.28-.84-1.28-1.54c1-.84,2-1.71,3-2.59l1.32,1.5C834.67,602.69,833.64,603.56,832.61,604.42ZM645.5,599.31c-1-.91-2-1.83-2.91-2.77l1.4-1.43c1,.93,1.91,1.84,2.87,2.74Zm193.9-.91L838,597c1-.91,1.91-1.83,2.85-2.77q1.17-1.18,2.31-2.37l1.45,1.38c-.77.81-1.55,1.61-2.35,2.4C841.33,596.54,840.37,597.48,839.4,598.4ZM639.06,593c-.93-1-1.84-2-2.73-3l1.49-1.34c.88,1,1.78,2,2.69,2.92Zm209-3.46-1.49-1.33c.88-1,1.75-2,2.6-3l1.53,1.28C849.82,587.47,848.94,588.48,848,589.49Zm-215-3.31c-.87-1-1.72-2.08-2.55-3.13l1.57-1.24c.82,1,1.66,2.07,2.51,3.09Zm220.81-3.64-1.57-1.23c.81-1,1.61-2.1,2.4-3.16l1.6,1.19C855.48,580.41,854.67,581.48,853.84,582.54ZM627.43,579c-.8-1.09-1.58-2.19-2.34-3.29l1.64-1.14c.76,1.09,1.52,2.17,2.31,3.24Zm231.76-3.8-1.65-1.13c.74-1.1,1.47-2.2,2.19-3.31l1.68,1.08Q860.33,573.58,859.19,575.24ZM622.3,571.55c-.72-1.14-1.43-2.28-2.12-3.43l1.71-1c.68,1.13,1.38,2.26,2.1,3.38Zm241.75-3.94-1.72-1c.68-1.14,1.34-2.29,2-3.44l1.75,1C865.41,565.29,864.74,566.45,864.05,567.61Zm-246.38-3.86c-.65-1.18-1.29-2.37-1.9-3.56l1.78-.91c.6,1.17,1.23,2.34,1.87,3.51Zm250.75-4.07-1.78-.91c.6-1.18,1.18-2.37,1.75-3.56l1.8.86C869.62,557.27,869,558.48,868.42,559.68Zm-254.88-4c-.57-1.22-1.12-2.44-1.66-3.67l1.83-.8c.53,1.21,1.08,2.42,1.64,3.62Zm258.73-4.19-1.84-.79c.53-1.22,1-2.44,1.52-3.67l1.86.74C873.31,549,872.8,550.25,872.27,551.48ZM610,547.34c-.49-1.25-1-2.51-1.42-3.77l1.88-.68c.45,1.25.92,2.49,1.4,3.72Zm265.63-4.29-1.88-.67c.45-1.25.87-2.5,1.28-3.75l1.9.61C876.47,540.52,876,541.79,875.58,543.05ZM606.9,538.8c-.41-1.28-.8-2.56-1.18-3.85l1.92-.56c.37,1.27.76,2.54,1.16,3.8Zm271.45-4.37-1.92-.55c.36-1.27.71-2.55,1-3.83l1.94.49C879.07,531.84,878.72,533.14,878.35,534.43Zm-274-4.34c-.32-1.3-.64-2.61-.93-3.92l2-.44c.28,1.3.59,2.59.91,3.87Zm276.17-4.44-2-.43c.28-1.29.55-2.59.79-3.89l2,.37C881.12,523,880.85,524.33,880.57,525.65Zm-278.1-4.42c-.25-1.32-.47-2.64-.68-4l2-.31c.2,1.31.42,2.62.67,3.92Zm279.74-4.49-2-.3c.2-1.31.38-2.62.54-3.94l2,.25C882.6,514.08,882.42,515.41,882.21,516.74ZM601.1,512.27c-.16-1.33-.3-2.67-.42-4l2-.18c.12,1.32.26,2.64.42,3.95Zm282.19-4.53-2-.17c.12-1.32.21-2.64.29-4l2,.12C883.51,505.07,883.41,506.41,883.29,507.74Zm-283-4.49c-.07-1.34-.13-2.69-.17-4l2-.05c0,1.32.09,2.64.17,4ZM883.8,498.7l-2-.05c0-1.13,0-2.25,0-3.38v-.59h2v.6C883.84,496.41,883.82,497.55,883.8,498.7Zm-281.71-4.5h-2c0-1.35,0-2.69.09-4l2,.07C602.13,491.55,602.1,492.88,602.09,494.2Zm279.64-4.49c-.06-1.32-.13-2.64-.22-4l2-.14c.09,1.34.16,2.68.22,4Zm-279.29-4.44-2-.14c.09-1.34.21-2.67.34-4l2,.2C602.65,482.63,602.54,484,602.44,485.27Zm278.65-4.47c-.13-1.32-.29-2.63-.46-3.94l2-.27c.18,1.34.33,2.67.47,4Zm-277.73-4.41-2-.27c.18-1.33.38-2.66.6-4l2,.32C603.73,473.77,603.54,475.08,603.36,476.39ZM879.89,472c-.22-1.31-.46-2.61-.71-3.91l2-.39c.26,1.32.5,2.64.72,4Zm-275-4.37-2-.4c.26-1.31.55-2.62.85-3.93l1.95.45C605.38,465,605.1,466.28,604.84,467.58Zm273.29-4.39c-.3-1.29-.63-2.58-1-3.86l1.93-.51c.34,1.3.67,2.6,1,3.91Zm-271.25-4.31-1.93-.51c.34-1.3.71-2.59,1.09-3.88l1.92.58C607.58,456.33,607.22,457.61,606.88,458.88Zm268.93-4.33c-.38-1.26-.79-2.52-1.21-3.78l1.9-.64c.43,1.28.83,2.56,1.22,3.84Zm-266.34-4.21-1.9-.64c.43-1.27.88-2.54,1.35-3.8l1.87.7C610.33,447.84,609.89,449.09,609.47,450.34Zm263.47-4.25c-.46-1.24-.94-2.47-1.44-3.7l1.85-.76c.51,1.25,1,2.5,1.47,3.76ZM612.6,442l-1.85-.76c.51-1.24,1-2.48,1.58-3.7l1.83.81C613.62,439.54,613.1,440.76,612.6,442Zm256.94-4.16c-.55-1.21-1.11-2.41-1.69-3.6l1.8-.87c.59,1.21,1.16,2.43,1.71,3.65Zm-253.28-4-1.8-.88c.59-1.21,1.2-2.4,1.82-3.59l1.77.93C617.43,431.47,616.84,432.65,616.26,433.84Zm249.35-4c-.62-1.17-1.26-2.33-1.91-3.48l1.74-1c.66,1.17,1.31,2.35,1.94,3.54ZM620.43,426l-1.73-1c.66-1.17,1.34-2.32,2-3.47l1.71,1C621.76,423.66,621.09,424.8,620.43,426ZM861.17,422c-.7-1.13-1.41-2.25-2.14-3.36l1.68-1.09c.74,1.12,1.46,2.26,2.16,3.4Zm-236.06-3.68-1.67-1.1c.73-1.12,1.49-2.23,2.26-3.33l1.63,1.15C626.58,416.15,625.83,417.25,625.11,418.35Zm231.12-3.78c-.76-1.08-1.54-2.15-2.34-3.22l1.6-1.2c.81,1.08,1.6,2.16,2.38,3.26Zm-226-3.51-1.59-1.2c.8-1.07,1.63-2.13,2.47-3.18l1.56,1.25C631.86,409,631.05,410,630.25,411.06Zm220.58-3.63c-.83-1-1.68-2.05-2.54-3.06l1.52-1.3c.87,1,1.73,2.06,2.58,3.1Zm-215-3.31-1.51-1.3c.87-1,1.76-2,2.67-3l1.48,1.35Q637.14,402.62,635.85,404.12ZM845,400.66q-1.34-1.46-2.73-2.88l1.44-1.4c.94,1,1.86,1.94,2.76,2.93Zm-203.1-3.12-1.43-1.4,1.18-1.19q.84-.84,1.68-1.65l1.39,1.44c-.56.53-1.11,1.08-1.66,1.62Zm196.85-3.26c-1-.92-1.93-1.82-2.9-2.71l1.34-1.48c1,.9,2,1.81,3,2.74Zm-190.4-2.93L647,389.86c1-.9,2-1.79,3-2.65l1.3,1.52C650.32,389.58,649.32,390.46,648.34,391.35ZM832.1,388.3c-1-.85-2-1.69-3.06-2.51l1.24-1.57c1.05.84,2.08,1.69,3.11,2.55Zm-176.94-2.73L653.92,384c1.05-.84,2.12-1.66,3.2-2.46l1.19,1.6Q656.72,384.33,655.16,385.57Zm170-2.8c-1.07-.79-2.14-1.56-3.22-2.32l1.14-1.64c1.1.77,2.19,1.55,3.27,2.35Zm-162.77-2.53-1.14-1.65c1.11-.76,2.23-1.51,3.35-2.25l1.09,1.68Q664,379.1,662.34,380.24Zm155.43-2.55c-1.11-.72-2.23-1.42-3.36-2.11l1-1.71c1.14.7,2.28,1.41,3.41,2.14Zm-147.92-2.31-1-1.72c1.15-.69,2.32-1.37,3.49-2l1,1.74C672.13,374,671,374.69,669.85,375.38Zm140.28-2.29c-1.16-.65-2.32-1.28-3.49-1.89l.92-1.77c1.19.62,2.37,1.26,3.54,1.91ZM677.66,371l-.92-1.78c1.19-.61,2.4-1.22,3.6-1.8l.87,1.8C680,369.81,678.84,370.4,677.66,371Zm124.54-2c-1.19-.57-2.4-1.12-3.6-1.66l.81-1.83c1.22.54,2.44,1.11,3.65,1.68Zm-116.47-1.83-.81-1.83c1.23-.55,2.47-1.07,3.72-1.57l.75,1.85C688.16,366.11,686.94,366.62,685.73,367.16ZM794,365.41c-1.23-.5-2.47-1-3.71-1.43l.69-1.87c1.26.46,2.51.94,3.76,1.44Zm-100-1.58-.68-1.88q1.89-.69,3.81-1.32l.63,1.9C696.52,362.94,695.27,363.38,694,363.83Zm91.61-1.47c-1.25-.42-2.52-.81-3.78-1.19l.56-1.91c1.29.38,2.57.78,3.85,1.2Zm-83.11-1.31-.57-1.92c1.29-.38,2.59-.74,3.89-1.08l.51,1.93C705.06,360.32,703.79,360.67,702.52,361.05Zm74.54-1.2c-1.28-.33-2.56-.65-3.85-.94l.44-2c1.31.3,2.61.62,3.91,1Zm-65.89-1-.44-1.95c1.31-.3,2.63-.57,3.94-.83l.39,2C713.76,358.25,712.46,358.52,711.17,358.81Zm57.18-.92c-1.3-.25-2.6-.48-3.91-.69l.32-2c1.32.21,2.65.45,4,.7Zm-48.4-.76-.32-2q2-.31,4-.57l.26,2C722.57,356.73,721.25,356.92,720,357.13Zm39.58-.63c-1.32-.17-2.63-.32-3.95-.44l.19-2c1.34.13,2.68.27,4,.44ZM728.81,356l-.18-2c1.33-.13,2.67-.23,4-.32l.13,2C731.45,355.78,730.13,355.89,728.81,356Zm21.82-.35c-1.32-.08-2.64-.14-4-.19l.06-2c1.34,0,2.69.1,4,.19Zm-12.9-.2-.06-2c1.34,0,2.69-.06,4-.06v2C740.38,355.4,739.05,355.42,737.73,355.46Z" transform="translate(159.52 128.34)"/><path class="cls-6" d="M738.68,591.32c-1.33,0-2.68-.12-4-.22l.15-2c1.32.1,2.65.17,4,.21Zm9.09-.12-.12-2c1.31-.08,2.64-.19,3.94-.32l.2,2C750.47,591,749.11,591.12,747.77,591.2ZM725.63,590c-1.31-.23-2.65-.49-4-.77l.42-2c1.29.27,2.59.53,3.88.75Zm35.15-.46-.39-2c1.28-.26,2.58-.55,3.86-.86l.47,1.95C763.41,589,762.08,589.27,760.78,589.53Zm-47.89-2.64c-1.28-.4-2.57-.84-3.83-1.3l.69-1.88c1.23.45,2.49.88,3.74,1.28Zm60.55-.79-.65-1.89c1.23-.43,2.48-.89,3.71-1.37l.73,1.86C776,585.19,774.7,585.66,773.44,586.1Zm-72.76-4c-1.22-.58-2.43-1.19-3.61-1.81l.94-1.77c1.15.61,2.34,1.21,3.53,1.77ZM785.51,581l-.9-1.78c1.17-.6,2.34-1.23,3.48-1.87l1,1.75C787.91,579.72,786.71,580.36,785.51,581Zm-96.25-5.31c-1.13-.74-2.25-1.51-3.33-2.29l1.17-1.62c1.06.76,2.16,1.52,3.25,2.24Zm107.51-1.42-1.14-1.64c1.08-.76,2.16-1.54,3.2-2.33l1.21,1.59C799,572.67,797.88,573.47,796.77,574.24Zm-117.95-6.51c-1-.89-2-1.81-3-2.72l1.38-1.45c.94.89,1.93,1.79,2.92,2.66ZM807,566l-1.36-1.47c1-.9,1.94-1.82,2.86-2.74l1.48,1.35-.07.07C809,564.16,808,565.1,807,566Zm-137.47-7.56c-.88-1-1.76-2.06-2.6-3.1l1.56-1.26c.83,1,1.68,2,2.54,3Zm146.56-2-1.54-1.28c.84-1,1.66-2,2.45-3.09l1.6,1.2C817.8,554.34,817,555.4,816.1,556.44ZM661.6,548c-.75-1.13-1.47-2.28-2.15-3.42l1.71-1c.67,1.12,1.38,2.25,2.11,3.35Zm162.15-2.22-1.7-1.06c.69-1.11,1.36-2.26,2-3.4l1.75,1C825.14,543.48,824.45,544.65,823.75,545.79Zm-168.59-9.21c-.58-1.2-1.13-2.44-1.66-3.68l1.84-.79c.52,1.22,1.06,2.43,1.62,3.61Zm174.71-2.39-1.83-.81c.52-1.2,1-2.42,1.52-3.65l1.86.73C830.93,531.71,830.41,533,829.87,534.19Zm-179.52-9.82c-.4-1.26-.79-2.56-1.14-3.87l1.93-.53c.35,1.29.72,2.56,1.11,3.8Zm184-2.51-1.92-.56c.35-1.25.69-2.54,1-3.82l2,.47C835.05,519.26,834.71,520.58,834.34,521.86ZM647.25,511.63c-.23-1.33-.43-2.68-.6-4l2-.25c.17,1.29.37,2.61.59,3.91ZM837.08,509l-2-.28c.19-1.3.35-2.62.49-3.93l2,.2C837.44,506.36,837.28,507.7,837.08,509ZM645.91,498.58c0-1.11,0-2.21,0-3.31v-.73h2v.72c0,1.08,0,2.16,0,3.24ZM838.07,496h-2v-.67c0-1.1,0-2.19-.06-3.29l2-.07q.06,1.68.06,3.36ZM648.34,485.67l-2-.2c.14-1.33.31-2.68.5-4l2,.29C648.64,483.05,648.48,484.37,648.34,485.67Zm186.95-2.55c-.17-1.3-.37-2.61-.59-3.91l2-.34c.23,1.32.43,2.67.6,4ZM650.51,473l-1.94-.47c.31-1.3.66-2.62,1-3.9l1.92.55C651.16,470.45,650.82,471.74,650.51,473Zm182.26-2.49c-.34-1.27-.72-2.55-1.11-3.79l1.9-.61c.41,1.27.79,2.58,1.14,3.88Zm-178.39-9.75-1.86-.74c.49-1.25,1-2.5,1.56-3.72l1.83.81C655.38,458.32,654.87,459.54,654.38,460.77Zm174.19-2.39c-.52-1.2-1.06-2.41-1.63-3.6l1.81-.86c.57,1.21,1.13,2.45,1.66,3.68Zm-168.68-9.21-1.74-1c.66-1.17,1.35-2.34,2.05-3.48l1.7,1.06C661.21,446.88,660.54,448,659.89,449.17Zm162.85-2.23c-.68-1.13-1.39-2.26-2.11-3.35l1.67-1.1c.74,1.11,1.46,2.26,2.15,3.42Zm-155.8-8.5-1.59-1.21c.81-1.07,1.65-2.13,2.51-3.16l1.54,1.27C668.56,436.35,667.73,437.39,666.94,438.44Zm148.45-2c-.83-1-1.68-2-2.54-3l1.5-1.32c.88,1,1.76,2.05,2.6,3.1Zm-140-7.67L674,427.35l0,0c.94-.93,1.91-1.86,2.88-2.76l1.36,1.47C677.28,426.9,676.34,427.81,675.42,428.73ZM806.68,427c-.95-.91-1.94-1.8-2.92-2.66l1.31-1.51c1,.88,2,1.79,3,2.72ZM685.06,420.3l-1.21-1.59c1.06-.81,2.16-1.61,3.26-2.38l1.14,1.64C687.18,418.72,686.1,419.51,685.06,420.3Zm111.73-1.53c-1.07-.77-2.16-1.52-3.26-2.24l1.1-1.67c1.12.73,2.24,1.5,3.32,2.28Zm-101-5.53-1-1.74c1.16-.66,2.36-1.3,3.56-1.91l.9,1.78C698.1,412,696.93,412.6,695.79,413.24ZM785.87,412c-1.16-.61-2.34-1.21-3.53-1.77l.86-1.81c1.21.58,2.42,1.19,3.61,1.81Zm-78.49-4.29-.73-1.86c1.26-.49,2.53-1,3.79-1.4l.65,1.89C709.86,406.77,708.61,407.24,707.38,407.72Zm66.75-.91c-1.22-.45-2.48-.87-3.74-1.27l.6-1.91c1.29.41,2.57.84,3.82,1.3Zm-54.5-3-.47-1.95c1.31-.31,2.64-.61,3.94-.87l.39,2C722.21,403.24,720.92,403.52,719.63,403.84Zm42.16-.58c-1.28-.27-2.59-.52-3.89-.74l.34-2c1.33.22,2.66.48,4,.76Zm-29.5-1.6-.21-2c1.34-.14,2.69-.25,4-.33l.12,2C734.92,401.42,733.59,401.53,732.29,401.66Zm16.79-.23c-1.31-.1-2.64-.17-4-.21l.06-2c1.34,0,2.7.12,4,.22Z" transform="translate(159.52 128.34)"/><path class="cls-6" d="M742,578.46a83.2,83.2,0,1,1,58.82-24.37h0A82.65,82.65,0,0,1,742,578.46Zm0-164.37a81.19,81.19,0,1,0,57.41,138.59h0A81.18,81.18,0,0,0,742,414.09Z" transform="translate(159.52 128.34)"/><path class="cls-6" d="M741.55,601.36h-.5a105.84,105.84,0,0,1-37.39-7.13l-.47-.18.18-.47,17.08-44.18.47.18a58,58,0,0,0,20.54,3.92h.5Zm-37.07-7.89a104.57,104.57,0,0,0,36.08,6.88l.39-45.86a58.9,58.9,0,0,1-19.93-3.8Zm134.15-54.42-43.7-19.54.2-.45a58,58,0,0,0,5-20.3l0-.5,47.78,2.84,0,.5a105.86,105.86,0,0,1-9,37Zm-42.38-20,41.87,18.72A104.86,104.86,0,0,0,846.84,502l-45.79-2.72A58.82,58.82,0,0,1,796.25,519ZM683.74,494.27l-47.85-1.22v-.5a106,106,0,0,1,7.77-37.27l.19-.46,44.34,18-.19.46a58.24,58.24,0,0,0-4.26,20.47Zm-46.82-2.19,45.85,1.17a59.1,59.1,0,0,1,4.13-19.86l-42.49-17.27A104.66,104.66,0,0,0,636.92,492.08Zm159.46-17.6-.19-.47a57.6,57.6,0,0,0-11-17.74l-.33-.37,35.5-32.1.34.37a105.27,105.27,0,0,1,20.06,32.41l.18.47ZM786.28,456a58.85,58.85,0,0,1,10.66,17.21l42.72-16.7a104.33,104.33,0,0,0-19.36-31.27Zm-84.42-2.92-32.69-35,.36-.34a105.58,105.58,0,0,1,32.06-20.62l.46-.18.2.46,18,43.81-.46.19a57.41,57.41,0,0,0-17.56,11.3Zm-31.28-34.92,31.33,33.5a59.07,59.07,0,0,1,17-11l-17.44-42.42A104.79,104.79,0,0,0,670.58,418.13ZM765.3,441.9l-.46-.2a58.17,58.17,0,0,0-20.38-4.6l-.5,0,0-.5,2-47.32.5,0a105.81,105.81,0,0,1,37.13,8.41l.46.19ZM745,436.12a59,59,0,0,1,19.77,4.47l18-42.19a104.78,104.78,0,0,0-35.83-8.11Z" transform="translate(159.52 128.34)"/><path class="cls-6" d="M597.11,519.71a148,148,0,0,1-1.38-38.25l-16.13-1.53,0-.5a158.45,158.45,0,0,1,15.46-54.8l.22-.44,14.41,7.05a146.85,146.85,0,0,1,16.49-26.43l.79.62a145.36,145.36,0,0,0-16.59,26.7l-.22.45-14.42-7.06A157.25,157.25,0,0,0,580.69,479l16.13,1.53-.05.5a146.82,146.82,0,0,0,1.33,38.49Z" transform="translate(159.52 128.34)"/><path class="cls-6" d="M845.12,392.11a145.63,145.63,0,0,0-40.48-28.61l-.47-.22,4.81-9.41a157.16,157.16,0,0,0-53.24-16l-1.36,12.05-.48,0a147,147,0,0,0-68.56,10.9l-.31.13-32.44-32.44H588.65l-48.46,48.46H330.66v-1H539.78l48.46-48.46H653l32.26,32.26a147.89,147.89,0,0,1,68.24-10.88l1.36-12.09.49.06a158.11,158.11,0,0,1,54.53,16.39l.45.22-4.8,9.39a146.55,146.55,0,0,1,40.3,28.59Z" transform="translate(159.52 128.34)"/><path class="cls-6" d="M805.1,604.81l-1-1.73a125.15,125.15,0,0,0,45.67-45.68l1.74,1a127.4,127.4,0,0,1-46.41,46.41Z" transform="translate(159.52 128.34)"/><path class="cls-6" d="M701.17,614.94a125.21,125.21,0,0,1-48.59-30.29A126.4,126.4,0,1,1,868.34,493l-2,0A124.37,124.37,0,1,0,701.81,613.05Z" transform="translate(159.52 128.34)"/><path class="cls-6" d="M762.61,628.69,753.19,569l.5-.08a74,74,0,0,0,41-20.93l.61-.61,42.7,42.7-.61.61a134,134,0,0,1-74.31,37.88Zm-8.27-58.82,9.1,57.68a133.08,133.08,0,0,0,73.18-37.43l-41.29-41.29A75,75,0,0,1,754.34,569.87ZM646.92,591.15l-.35-.36a134,134,0,0,1-37.93-74.26l-.08-.49,33.38-5.3.08.49-.08-.49,26.26-4.18.08.5a74.05,74.05,0,0,0,20.92,41l.36.35ZM609.7,516.87a133.05,133.05,0,0,0,37.22,72.86l41.23-41.35a75,75,0,0,1-20.78-40.67Zm206-33-.08-.49a74,74,0,0,0-20.9-40.85l-.55-.54,42.35-42.35.05.05.35-.35.45.44a134,134,0,0,1,37.88,74l.08.49-.5.08ZM795.59,442a75.05,75.05,0,0,1,20.94,40.73l57.65-9.25a133,133,0,0,0-37.26-72.72l-20.69,20.6Zm-106.87,1L646,400.29l.48-.48A134.09,134.09,0,0,1,720.59,362l.49-.07,9.52,59.63-.49.08a74.07,74.07,0,0,0-40.91,20.91Zm-41.29-42.7,41.29,41.29a75.11,75.11,0,0,1,40.74-20.89L720.25,363A133.09,133.09,0,0,0,647.43,400.29Z" transform="translate(159.52 128.34)"/><path class="cls-6" d="M743.07,669.85c-1.73,0-3.45,0-5.13-.08h-.5l.35-12.35.5,0c1.83.05,3.69.07,5.52.06h.5l.05,12.35h-1.29Zm-4.6-1.06c1.61,0,3.23.05,4.89.06l-.05-10.35c-1.51,0-3,0-4.54-.06Zm16.74.64-.89-12.32.5,0c1.77-.12,3.62-.29,5.49-.49l.5-.05,1.3,12.28-.49.05c-1.94.21-3.93.39-5.91.53Zm.18-11.4.74,10.33c1.64-.13,3.28-.27,4.88-.44l-1.09-10.29C758.38,657.79,756.86,657.92,755.39,658Zm-28.78,11.05-.5-.05c-2-.19-4-.41-5.89-.66l-.49-.07,1.6-12.25.5.07c1.8.23,3.64.44,5.46.62l.5,0Zm-5.76-1.64c1.59.2,3.22.39,4.86.55l1-10.3c-1.51-.15-3-.33-4.51-.52Zm52-.14-2.13-12.16.49-.09c1.78-.31,3.61-.66,5.42-1l.49-.1L779.67,666l-.48.11c-1.91.4-3.87.78-5.83,1.12Zm-1-11.35,1.79,10.2c1.61-.29,3.23-.6,4.81-.93l-2.12-10.13C774.87,655.4,773.37,655.69,771.89,656Zm18.34,7.45-3.36-11.88.48-.14c1.76-.49,3.54-1,5.3-1.59l.47-.15,3.75,11.77-.47.15c-1.89.6-3.81,1.18-5.69,1.71Zm-2.12-11.19,2.81,10c1.56-.45,3.14-.92,4.7-1.41l-3.15-9.86C791,651.35,789.56,651.79,788.11,652.21Zm19,5.54-4.55-11.48.47-.18c1.65-.66,3.36-1.37,5.1-2.13l.46-.2,4.94,11.33-.46.2c-1.79.78-3.64,1.54-5.49,2.28Zm-3.25-10.92,3.81,9.62c1.53-.61,3.05-1.24,4.54-1.88l-4.14-9.49C806.64,645.7,805.23,646.29,803.86,646.83Zm19.46,3.58-5.69-11,.44-.23c1.61-.83,3.24-1.72,4.85-2.62l.43-.25,6.07,10.76-.44.25c-1.73,1-3.48,1.92-5.21,2.82ZM819,639.88l4.77,9.18c1.43-.75,2.88-1.53,4.3-2.33l-5.08-9C821.64,638.46,820.3,639.18,819,639.88Zm19.7,1.59-6.78-10.32.42-.28c1.53-1,3.06-2,4.56-3.1l.41-.29,7.12,10.09-.41.29c-1.58,1.11-3.22,2.23-4.9,3.34Zm-5.39-10,5.68,8.65q2.07-1.37,4-2.75l-6-8.45C835.81,629.74,834.54,630.6,833.29,631.43Zm19.76-.4-7.78-9.6.39-.31c1.39-1.13,2.77-2.28,4.09-3.43l.52-.45,8.08,9.34-.52.45c-1.44,1.25-2.92,2.49-4.39,3.68Zm-6.37-9.45,6.52,8c1.25-1,2.51-2.08,3.74-3.14l-6.77-7.83C849,619.63,847.86,620.61,846.68,621.58Zm-229.86-5.22-.34-.36c-1.39-1.45-2.74-2.91-4-4.35l-.34-.37L621.3,603l.34.37c1.22,1.37,2.48,2.73,3.75,4l.34.36Zm-3.29-5c1.07,1.18,2.18,2.39,3.32,3.58l7.47-7.17c-1-1.09-2.08-2.2-3.09-3.33ZM605.14,603l-.31-.4c-1.2-1.52-2.4-3.11-3.58-4.71l-.29-.41,10-7.3.29.41c1.08,1.46,2.2,2.94,3.34,4.39l.3.39Zm-2.79-5.3c1,1.32,2,2.63,3,3.89l8.14-6.39c-.93-1.2-1.86-2.41-2.75-3.62Zm-7.5-9.18-.27-.43c-1.05-1.65-2.08-3.35-3.09-5.06l-.25-.43,10.65-6.25.25.43c.94,1.6,1.91,3.18,2.87,4.7l.27.43Zm-2.24-5.56c.83,1.41,1.69,2.81,2.55,4.18l8.74-5.54c-.79-1.27-1.59-2.57-2.36-3.88Zm305.44-6.35-10.93-5.76.23-.44c.85-1.6,1.68-3.25,2.48-4.9l.22-.45,11.12,5.38-.22.45c-.85,1.76-1.75,3.54-2.67,5.28Zm-9.58-6.17,9.16,4.82c.75-1.44,1.49-2.9,2.2-4.36l-9.32-4.5Q889.52,568.42,888.47,570.42ZM586.07,573l-.22-.45c-.9-1.79-1.76-3.59-2.56-5.35l-.21-.45,11.24-5.13.2.45c.76,1.67,1.56,3.34,2.38,5l.22.44Zm-1.66-5.76c.67,1.46,1.38,2.94,2.11,4.42l9.26-4.62c-.67-1.35-1.32-2.73-2-4.1Zm321.14-6.77-11.45-4.62.18-.46c.68-1.68,1.34-3.41,2-5.14l.17-.47,11.6,4.23-.17.47c-.67,1.84-1.38,3.7-2.11,5.52Zm-10.15-5.17,9.6,3.87c.6-1.51,1.18-3,1.74-4.56L897,551.11C896.5,552.53,896,554,895.4,555.34Zm-316.49,1.43-.18-.47c-.69-1.85-1.37-3.73-2-5.6l-.16-.47,11.7-4,.16.47c.59,1.74,1.22,3.5,1.86,5.2l.18.47Zm-1.07-5.91c.53,1.54,1.08,3.09,1.65,4.62l9.69-3.65c-.53-1.42-1-2.86-1.54-4.3Zm-4.4-11-.13-.48c-.5-1.9-1-3.84-1.42-5.76l-.11-.49,12-2.75.11.49c.4,1.75.84,3.55,1.32,5.35l.13.49Zm-.46-6c.37,1.59.76,3.19,1.17,4.76l10-2.64c-.39-1.49-.76-3-1.09-4.42Zm-3.26-11.42-.08-.5c-.31-1.95-.58-3.93-.82-5.87l-.07-.49L581,514l.06.49c.23,1.83.49,3.67.77,5.47l.08.49Zm.15-6c.2,1.61.43,3.24.68,4.85l10.23-1.61c-.23-1.49-.45-3-.64-4.51Zm-2.08-11.68,0-.5c-.11-1.95-.19-3.94-.23-5.92v-.5l12.34-.27,0,.5c0,1.84.11,3.69.21,5.51l0,.5Zm.75-5.94c0,1.63.1,3.27.19,4.89l10.33-.58c-.07-1.5-.13-3-.17-4.54Zm337.54-7.45v-.5c0-1.83-.1-3.68-.2-5.51l0-.49,12.33-.68,0,.5c.1,1.92.18,3.92.22,5.92v.5Zm.81-5.56c.08,1.51.14,3,.17,4.54l10.35-.21c0-1.66-.1-3.3-.18-4.9ZM580,487.53,567.64,487l0-.5c.08-2,.21-4,.36-5.91l0-.5,12.31,1,0,.5c-.14,1.83-.26,3.68-.34,5.5ZM568.69,486l10.34.47c.07-1.5.16-3,.28-4.53L569,481.13C568.87,482.75,568.76,484.39,568.69,486ZM905,474.86l-.06-.5c-.22-1.81-.47-3.65-.76-5.46l-.08-.49,12.2-1.92.08.49c.31,2,.58,3.94.82,5.88l.06.5Zm.24-5.62c.23,1.5.45,3,.63,4.5l10.28-1.25c-.2-1.61-.43-3.24-.68-4.86ZM581.5,471.07l-12.21-1.79.07-.5c.28-1.93.6-3.9,1-5.84l.09-.49,12.15,2.2-.09.49c-.33,1.83-.63,3.66-.89,5.44Zm-11.08-2.64,10.24,1.51c.22-1.47.47-3,.74-4.48l-10.19-1.85C570.93,465.22,570.66,466.83,570.42,468.43Zm331.74-9.88-.11-.48c-.4-1.77-.84-3.57-1.31-5.36l-.13-.48,11.95-3.15.12.49c.51,1.92,1,3.86,1.42,5.77l.11.49Zm-.33-5.61c.39,1.48.75,3,1.09,4.42L913,455.07c-.36-1.58-.75-3.18-1.17-4.76Zm-317.15,1.92-12-3,.12-.48c.49-1.91,1-3.83,1.55-5.72l.13-.48,11.87,3.42-.14.48c-.51,1.77-1,3.56-1.43,5.32Zm-10.76-3.74,10,2.53c.37-1.45.77-2.92,1.18-4.38l-9.94-2.87C574.75,448,574.32,449.54,573.92,451.12Zm323.81-8.5-.16-.48c-.57-1.7-1.2-3.45-1.85-5.19l-.18-.47,11.56-4.35.18.47c.7,1.88,1.38,3.77,2,5.61l.16.47Zm-.9-5.55c.53,1.43,1,2.87,1.53,4.28l9.81-3.3c-.52-1.52-1.08-3.08-1.65-4.63Zm-307.37,2-11.61-4.21.17-.47c.68-1.85,1.39-3.71,2.12-5.53l.18-.46L591.78,433l-.18.46c-.68,1.69-1.34,3.42-2,5.13Zm-10.33-4.81,9.74,3.53c.51-1.41,1.06-2.83,1.61-4.23l-9.6-3.86C580.28,431.19,579.69,432.73,579.13,434.25Zm312.57-7-.21-.46c-.75-1.66-1.55-3.34-2.36-5l-.23-.45L900,415.86l.23.44c.89,1.81,1.75,3.61,2.55,5.36l.2.45Zm-1.46-5.43c.67,1.36,1.33,2.73,2,4.1l9.42-4.28c-.67-1.45-1.37-2.93-2.11-4.42Zm-294.42,2-11.13-5.36.22-.45c.86-1.79,1.76-3.57,2.66-5.29l.24-.44,10.93,5.75-.24.44c-.85,1.62-1.68,3.27-2.46,4.9ZM586,418l9.32,4.5c.66-1.35,1.34-2.71,2-4l-9.16-4.82C587.48,415.08,586.75,416.54,586,418Zm298.11-5.46-.25-.43c-.95-1.62-1.91-3.2-2.86-4.71l-.27-.43,10.44-6.59.27.42c1.06,1.69,2.1,3.4,3.08,5.07l.25.43Zm-2-5.25c.79,1.25,1.58,2.55,2.36,3.88l8.93-5.23c-.81-1.38-1.67-2.78-2.54-4.18Zm-278.45,2-10.52-6.47.26-.43c1-1.67,2.11-3.35,3.2-5l.27-.42,10.29,6.83-.27.42c-1,1.5-2,3.06-3,4.63Zm-9.14-6.8,8.81,5.42c.81-1.29,1.62-2.57,2.45-3.82l-8.63-5.72C596.29,399.78,595.4,401.16,594.55,402.54ZM613,395.7l-9.81-7.5.3-.4c1.2-1.56,2.43-3.12,3.69-4.64l.31-.39,9.55,7.83-.32.39c-1.16,1.42-2.31,2.87-3.42,4.32ZM604.6,388l8.22,6.29q1.38-1.79,2.82-3.56l-8-6.56C606.61,385.44,605.59,386.73,604.6,388Zm19.06-4.93-9-8.46.34-.36c1.33-1.42,2.72-2.84,4.13-4.25l.36-.35,8.7,8.76-.35.35c-1.31,1.3-2.6,2.63-3.84,4Zm-7.58-8.5,7.54,7.09c1-1.09,2.1-2.18,3.17-3.26l-7.3-7.34C618.33,372.23,617.19,373.41,616.08,374.58Zm19.46-3-8.09-9.34.63-.54c1.52-1.32,3-2.58,4.57-3.84l.39-.31,7.77,9.6-.39.32c-1.42,1.14-2.84,2.34-4.22,3.54Zm-6.68-9.24,6.78,7.83c1.23-1.07,2.5-2.14,3.77-3.17l-6.52-8C631.53,360.09,630.21,361.2,628.86,362.36Zm211.6,1.15-.41-.3c-1.49-1.11-3-2.18-4.48-3.21l-.41-.28,7-10.16.42.28c1.59,1.1,3.21,2.26,4.82,3.45l.4.3Zm-3.91-4c1.22.85,2.46,1.73,3.7,2.64l6.16-8.32c-1.33-1-2.66-1.93-4-2.84Zm-9.81-5.15-.43-.26c-1.61-.95-3.23-1.87-4.79-2.73l-.44-.24L827,340.26l.44.24c1.69.93,3.42,1.92,5.14,2.94l.43.25Zm-4.3-3.63c1.3.72,2.62,1.48,3.95,2.26l5.27-8.91c-1.42-.83-2.84-1.65-4.24-2.42Zm-10.28-4.11-.45-.21c-1.67-.78-3.37-1.53-5-2.23l-.46-.2L811,332.57l.46.2c1.79.76,3.61,1.56,5.39,2.39l.46.21Zm-4.63-3.17c1.37.59,2.76,1.21,4.14,1.84l4.35-9.39c-1.48-.68-3-1.34-4.45-2Zm-10.65-3.05-.47-.16c-1.72-.6-3.48-1.17-5.23-1.71l-.48-.15,3.64-11.8.48.15c1.84.56,3.73,1.18,5.62,1.83l.47.16ZM792,337.68c1.44.45,2.89.92,4.31,1.41l3.38-9.79c-1.56-.53-3.12-1-4.64-1.51Zm-10.91-2-.49-.12c-1.81-.43-3.62-.82-5.38-1.17l-.49-.1,2.43-12.11.49.1c2,.39,3.91.82,5.78,1.26l.49.11Zm-5.18-2.17c1.45.29,2.94.62,4.43,1l2.38-10.07c-1.56-.36-3.16-.71-4.78-1ZM709,334.78l-2.52-12.1.49-.1c1.9-.39,3.86-.77,5.83-1.11l.49-.09,2.11,12.17-.49.09c-1.78.3-3.6.65-5.42,1Zm-1.34-11.32,2.12,10.13c1.49-.31,3-.59,4.47-.85l-1.78-10.2C710.83,322.83,709.22,323.14,707.64,323.46Zm57.16,9.23-.49-.06c-1.82-.24-3.66-.45-5.48-.63l-.5-.05,1.2-12.29.5,0c1.93.19,3.91.41,5.88.67l.5.06Zm-5.38-1.64c1.51.15,3,.33,4.52.52l1.34-10.26c-1.62-.21-3.25-.4-4.85-.56Zm-34.11,1.12L724,319.89l.49-.06c2-.2,4-.38,5.91-.52l.5,0,.87,12.32-.49,0c-1.84.13-3.69.3-5.5.49Zm-.18-11.39,1.07,10.29c1.5-.15,3-.28,4.54-.4L730,320.35C728.4,320.47,726.77,320.61,725.13,320.78Zm23.21,10.53h-.5c-1.86-.06-3.72-.09-5.52-.08h-.5l0-12.35h.5c1.92,0,3.92,0,5.92.07l.5,0Zm-5.44-1.09q2.21,0,4.47.06l.3-10.34c-1.65-.05-3.32-.06-4.89-.06l0,10.34Z" transform="translate(159.52 128.34)"/><path class="cls-6" d="M672.58,587.63l-.27-.2c-1.46-1.11-2.91-2.26-4.31-3.42l-2.11,2.5-.38-.32c-1.87-1.58-3.72-3.24-5.5-4.94l-.37-.34,2.26-2.37c-.54-.52-1.09-1-1.62-1.59s-1.28-1.29-1.91-2L656,577.25l-.34-.37c-1.7-1.79-3.35-3.64-4.92-5.52l-.32-.38,2.51-2.1c-1.06-1.3-2.11-2.61-3.1-3.92l-2.62,2-.3-.4c-1.48-2-2.91-4-4.26-6l-.27-.42,2.73-1.8c-.88-1.37-1.77-2.79-2.63-4.25l-2.83,1.66-.25-.43c-1.24-2.11-2.43-4.3-3.54-6.5l-.23-.45,3-1.48c-.83-1.65-1.61-3.33-2.34-5l-.16-.37,4.28-3.07.25.57a109.54,109.54,0,0,0,23.31,34.36,112.36,112.36,0,0,0,12.76,11l.59.44Zm-4.7-5,.39.32c1.41,1.2,2.88,2.37,4.37,3.5l2.85-1.78A114.42,114.42,0,0,1,663.21,574a110.64,110.64,0,0,1-23.27-34.1l-2.62,1.87c.74,1.67,1.54,3.36,2.37,5l.23.44L637,548.74c1,1.88,2,3.74,3,5.56l2.83-1.66.25.44c1,1.74,2.08,3.44,3.13,5l.28.42-2.74,1.8c1.17,1.75,2.39,3.49,3.65,5.18l2.62-2,.3.4c1.17,1.56,2.41,3.13,3.69,4.66l.32.38-2.51,2.1c1.35,1.61,2.76,3.19,4.21,4.73l2.37-2.24.35.36c.73.77,1.47,1.54,2.23,2.3s1.3,1.28,2,1.91l.36.35-2.25,2.36c1.53,1.45,3.11,2.87,4.71,4.23Z" transform="translate(159.52 128.34)"/><path class="cls-6" d="M632.53,481.3l-4.34-3.48-3.64-.57.07-.5c.39-2.44.85-4.88,1.38-7.26l.1-.49,3.24.72c.36-1.59.76-3.21,1.2-4.84l-3.19-.88.13-.49c.66-2.37,1.4-4.74,2.19-7.06l.17-.47,3.12,1.08c.55-1.59,1.14-3.15,1.74-4.67l-3.06-1.24.19-.46c.92-2.27,1.92-4.55,3-6.76l.22-.45,3,1.42c.73-1.5,1.49-3,2.27-4.44l-2.89-1.58.24-.44c1.17-2.14,2.43-4.29,3.75-6.38l.26-.42,2.78,1.74q1.32-2.07,2.77-4.16l-2.68-1.89.29-.4c1.42-2,2.91-4,4.45-5.91l.31-.39,2.55,2.05c1-1.3,2.13-2.58,3.23-3.82l-2.45-2.17.34-.38c1.53-1.71,3.12-3.41,4.75-5l.69-.69,2.3,2.32c1.19-1.16,2.41-2.31,3.64-3.42l-2.18-2.44.37-.33c1.84-1.65,3.74-3.25,5.66-4.76l.39-.31,2,2.57c1.31-1,2.66-2,4-3L673,398.55l.4-.29c2-1.42,4.08-2.8,6.17-4.09l.43-.26,1.73,2.79c1.39-.85,2.84-1.69,4.31-2.51l-1.58-2.88.44-.24c2.16-1.19,4.38-2.31,6.6-3.36l.45-.21,1.4,3c1.54-.71,3.08-1.38,4.59-2l-1.24-3.05.46-.19c2.27-.93,4.61-1.79,7-2.58l.47-.16,1.05,3.14c1.59-.52,3.2-1,4.79-1.46l-.89-3.2.48-.13c2.37-.66,4.79-1.25,7.19-1.76l.49-.11.69,3.25c1.61-.34,3.26-.64,4.92-.91l-.53-3.28.5-.08c2.43-.38,4.9-.7,7.34-.93l.5,0,.31,3.31c1.61-.15,3.28-.27,5-.35l-.15-3.32.5,0c2.45-.11,4.94-.14,7.4-.09h.5l-.07,3.82.68,4.66h-.59a110.16,110.16,0,0,0-112,95.43Zm-6.84-4.88,2.92.45,3.17,2.55A111.14,111.14,0,0,1,744.09,384l-.51-3.58,0-2.9c-2.11,0-4.24,0-6.33.08l.14,3.32-.5,0c-2,.09-4,.23-5.93.41l-.5,0-.31-3.3c-2.1.21-4.21.48-6.29.8l.52,3.28-.49.08c-2,.31-3.94.67-5.85,1.08l-.49.1-.69-3.24c-2.06.45-4.12.95-6.16,1.51l.89,3.19-.48.13c-1.89.53-3.8,1.11-5.69,1.75l-.48.15-1.05-3.13c-2,.68-4,1.42-5.95,2.21l1.24,3-.46.18c-1.8.73-3.63,1.54-5.46,2.39l-.45.21-1.4-3c-1.9.9-3.79,1.87-5.65,2.88l1.58,2.88-.44.24c-1.76,1-3.48,2-5.14,3l-.42.26-1.73-2.79c-1.78,1.11-3.55,2.29-5.28,3.5l1.9,2.67-.41.29c-1.61,1.14-3.21,2.33-4.76,3.56l-.39.31-2-2.57c-1.64,1.31-3.27,2.67-4.85,4.08l2.18,2.43-.37.34c-1.47,1.31-2.93,2.68-4.33,4.07l-.35.36-2.3-2.32c-1.49,1.48-2.95,3-4.36,4.59l2.44,2.18-.33.37c-1.31,1.47-2.6,3-3.84,4.54l-.31.39L649.7,422c-1.3,1.65-2.58,3.35-3.81,5.06l2.68,1.89-.29.41c-1.15,1.64-2.26,3.31-3.29,4.95l-.27.42L642,433c-1.12,1.79-2.2,3.63-3.21,5.46l2.89,1.57-.24.44c-.94,1.73-1.85,3.51-2.7,5.3l-.22.45-3-1.43c-.9,1.9-1.76,3.85-2.55,5.79l3,1.24-.19.46c-.72,1.79-1.42,3.66-2.07,5.56l-.16.47-3.12-1.08c-.68,2-1.31,4-1.88,6.05l3.19.88-.13.48c-.54,1.94-1,3.88-1.43,5.76l-.11.49-3.23-.72C626.42,472.24,626,474.33,625.69,476.42Z" transform="translate(159.52 128.34)"/><path class="cls-6" d="M740.76,614.05h-.5c-2.45,0-4.94-.15-7.39-.33l-.5,0,.26-3.31c-1.64-.14-3.31-.31-5-.51l-.42,3.29-.5-.06c-2.44-.31-4.89-.71-7.3-1.17l-.49-.09.62-3.26c-1.62-.32-3.26-.67-4.87-1.06l-.79,3.21-.49-.12c-2.38-.59-4.78-1.26-7.12-2l-.47-.15,1-3.16c-1.77-.56-3.52-1.16-5.19-1.78l-.21-.08-2.57-6.56,1.08.44a110.37,110.37,0,0,0,97.58-197.42l-.43-.24,2.26-4.06,1.91-3.28.44.25c2.11,1.23,4.22,2.55,6.27,3.92l.42.28-1.83,2.73c1.36.92,2.73,1.89,4.08,2.88l2-2.62.4.3c2,1.46,3.91,3,5.79,4.61l.38.32-2.12,2.5c1.26,1.08,2.51,2.19,3.72,3.33l2.25-2.39.36.35c.87.82,1.73,1.65,2.59,2.51s1.77,1.81,2.63,2.72l.35.37-2.39,2.24c1.14,1.22,2.25,2.47,3.32,3.72l2.5-2.11.33.38c1.58,1.87,3.13,3.82,4.6,5.79l.3.4-2.63,2c1,1.36,2,2.73,2.88,4.08l2.73-1.82.27.42c1.36,2,2.68,4.15,3.92,6.28l.25.43-2.85,1.65c.83,1.44,1.63,2.91,2.39,4.39l2.93-1.5.23.45c1.12,2.19,2.19,4.44,3.17,6.7l.2.45-3,1.32c.64,1.5,1.27,3,1.87,4.64l3.09-1.16.18.47c.86,2.3,1.66,4.66,2.38,7l.14.48-3.17,1c.49,1.62.94,3.24,1.34,4.82l3.21-.79.12.48c.59,2.38,1.12,4.81,1.56,7.24l.09.49-3.26.6c.29,1.63.54,3.28.77,4.94l3.29-.43.07.49c.31,2.43.56,4.91.72,7.37l0,.49-3.32.23c.1,1.63.17,3.31.21,5l3.32-.05v.5c0,2.46,0,4.95-.11,7.39l0,.5-3.31-.15c-.08,1.64-.2,3.31-.36,5l3.3.32,0,.5c-.25,2.45-.56,4.92-.95,7.33l-.08.5-3.28-.53c-.27,1.65-.58,3.3-.92,4.91l3.24.69-.1.49c-.51,2.38-1.11,4.8-1.78,7.17l-.13.49-3.19-.9c-.45,1.58-.94,3.18-1.47,4.77l3.14,1.06-.16.47c-.79,2.33-1.66,4.66-2.59,6.92l-.19.46-3.05-1.24c-.62,1.51-1.29,3-2,4.56l3,1.4-.21.45c-1.05,2.23-2.18,4.44-3.37,6.6l-.24.43L843,551.37c-.82,1.47-1.66,2.92-2.51,4.31l2.78,1.74-.26.42c-1.29,2.08-2.67,4.15-4.1,6.16l-.29.41-2.67-1.9c-1,1.34-2,2.68-3,4l2.57,2-.31.39c-1.52,1.92-3.12,3.82-4.77,5.65l-.33.38-2.44-2.19c-1.11,1.23-2.26,2.44-3.43,3.63l2.32,2.3-.55.56c-1.75,1.75-3.57,3.45-5.39,5.07l-.38.33L818,582.21c-1.25,1.09-2.54,2.17-3.83,3.21l2,2.56-.39.31c-1.93,1.54-3.92,3-5.93,4.43l-.41.28-1.88-2.68c-1.37.95-2.77,1.87-4.17,2.75l1.74,2.78-.43.27c-2.08,1.3-4.23,2.55-6.39,3.72l-.44.23-1.57-2.89c-1.47.78-3,1.54-4.45,2.25l1.41,3-.46.21c-2.22,1.06-4.51,2.06-6.79,3l-.46.18-1.23-3.06c-1.53.6-3.1,1.18-4.69,1.72l1.06,3.14-.47.16c-2.34.79-4.72,1.52-7.09,2.16l-.48.13-.87-3.19c-1.59.42-3.22.82-4.86,1.18l.71,3.24-.49.1c-2.41.53-4.86,1-7.28,1.34l-.5.08-.5-3.28c-1.66.24-3.33.45-5,.62l.33,3.31-.49,0c-2.45.25-4.93.42-7.39.51l-.5,0-.12-3.32c-1.65.05-3.33.07-5,.05Zm-7.31-1.3c2.1.15,4.22.24,6.32.28l.05-3.32h.5c2,0,4,0,5.94-.07l.5,0,.13,3.32c2.1-.09,4.22-.23,6.32-.43l-.33-3.31.5,0c1.93-.2,3.91-.45,5.9-.75l.49-.07.5,3.28c2.08-.33,4.17-.71,6.24-1.15l-.71-3.23.49-.11c2-.42,3.9-.89,5.78-1.4l.49-.14.86,3.19c2-.56,4.07-1.18,6.07-1.85l-1.06-3.13.47-.16c1.9-.64,3.78-1.33,5.59-2.06l.46-.18,1.22,3.06c2-.79,3.91-1.64,5.82-2.54l-1.41-3,.46-.22c1.76-.83,3.55-1.74,5.3-2.68l.44-.24,1.56,2.9c1.85-1,3.69-2.08,5.48-3.19l-1.74-2.78.43-.26c1.67-1,3.34-2.14,5-3.28l.41-.28,1.88,2.68c1.71-1.21,3.42-2.48,5.07-3.79l-2-2.56.39-.31c1.55-1.24,3.08-2.52,4.56-3.82l.37-.34,2.17,2.46c1.63-1.46,3.25-3,4.81-4.54l-2.31-2.3.35-.36c1.4-1.41,2.77-2.86,4.08-4.32l.34-.37,2.43,2.18c1.4-1.57,2.78-3.2,4.09-4.84l-2.57-2,.31-.39c1.23-1.56,2.43-3.16,3.56-4.76l.29-.41,2.68,1.9c1.21-1.72,2.39-3.49,3.51-5.27L839.06,556l.26-.43c1-1.64,2-3.37,3-5.13l.24-.44,2.88,1.59c1-1.85,2-3.75,2.88-5.65l-3-1.4.21-.46c.85-1.81,1.66-3.63,2.39-5.42l.19-.47,3,1.25c.78-2,1.53-3.94,2.21-5.93l-3.13-1.06.16-.47c.63-1.89,1.22-3.8,1.74-5.67l.14-.48,3.19.89c.56-2,1.07-4.1,1.52-6.14l-3.24-.7.1-.49c.41-1.9.78-3.86,1.09-5.83l.08-.5,3.28.53c.32-2.07.6-4.18.81-6.28l-3.3-.32,0-.5c.19-2,.33-4,.42-5.92l0-.5,3.31.15c.09-2.1.12-4.23.1-6.34l-3.33.06v-.5c0-2-.12-4-.25-5.94l0-.5,3.31-.22c-.15-2.11-.36-4.23-.62-6.31l-3.3.43-.06-.5c-.26-2-.56-3.94-.92-5.87l-.09-.5,3.27-.59c-.39-2.08-.84-4.16-1.34-6.2l-3.21.79-.12-.48c-.47-1.88-1-3.81-1.59-5.74l-.14-.48,3.16-1c-.62-2-1.3-4-2-6l-3.09,1.16-.18-.47c-.71-1.9-1.46-3.76-2.22-5.52l-.2-.46,3-1.31c-.85-1.94-1.76-3.86-2.71-5.74l-2.93,1.5-.23-.45c-.9-1.76-1.86-3.52-2.84-5.22l-.25-.43,2.84-1.65c-1.07-1.82-2.19-3.62-3.35-5.38l-2.73,1.82-.28-.42c-1.07-1.6-2.22-3.24-3.42-4.85l-.3-.41,2.63-2c-1.27-1.69-2.59-3.35-4-5l-2.49,2.11-.33-.38c-1.26-1.49-2.59-3-3.95-4.44l-.34-.36,2.38-2.24c-.74-.78-1.51-1.57-2.27-2.33s-1.46-1.45-2.2-2.15l-2.24,2.38-.37-.34c-1.44-1.36-2.93-2.69-4.43-4l-.38-.32,2.12-2.49c-1.62-1.36-3.28-2.69-5-4l-2,2.62-.4-.3c-1.6-1.19-3.23-2.35-4.85-3.43l-.42-.28L807,397c-1.76-1.17-3.57-2.3-5.38-3.36l-1.4,2.4-1.78,3.2a111.37,111.37,0,0,1-97.8,199.4l1.56,4c1.74.64,3.56,1.26,5.4,1.84l.48.15-1,3.15c2,.62,4,1.2,6.1,1.71l.79-3.21.48.12c1.92.47,3.87.89,5.8,1.26l.49.1-.62,3.25c2.07.39,4.16.73,6.25,1l.42-3.29.5.06c2,.26,4,.46,5.91.61l.5,0Z" transform="translate(159.52 128.34)"/><path class="cls-6" d="M938,542.56c-19.65,0-34.43-.16-34.92-.64l-.1-.24h0c-.73-1.49-21.87-22.23-35.9-35.82l.69-.72c15.49,15,33.76,32.89,36,36,3.56.84,87.12.22,119.21-.09v1C1002.13,542.24,965.32,542.56,938,542.56Z" transform="translate(159.52 128.34)"/><polygon class="cls-6" points="270.6 510.96 270.13 500.16 261.58 505.94 270.6 510.96"/><polygon class="cls-6" points="257.77 511.52 257.3 500.72 248.75 506.5 257.77 511.52"/><polygon class="cls-6" points="244.51 512.34 244.93 501.54 235.93 506.59 244.51 512.34"/><polygon class="cls-6" points="230.78 511.87 232.06 501.14 222.68 505.46 230.78 511.87"/><polygon class="cls-6" points="695.96 584.22 706.32 587.29 703.64 577.32 695.96 584.22"/><polygon class="cls-6" points="699.61 571.91 709.97 574.98 707.29 565.01 699.61 571.91"/><polygon class="cls-6" points="703.16 559.1 713.23 563.02 711.39 552.86 703.16 559.1"/><polygon class="cls-6" points="708.08 546.27 717.8 550.98 716.77 540.7 708.08 546.27"/><polygon class="cls-6" points="507.87 170.19 497.16 171.62 503.68 179.62 507.87 170.19"/><polygon class="cls-6" points="509.57 182.91 498.86 184.34 505.39 192.35 509.57 182.91"/><polygon class="cls-6" points="511.58 196.05 500.79 196.59 506.62 205.11 511.58 196.05"/><polygon class="cls-6" points="512.34 209.77 501.54 209.46 506.68 218.41 512.34 209.77"/><path class="cls-6" d="M43.6,611.42h-4v-2h4Zm-9,0h-4v-2h4Zm-9,0h-4v-2h4Zm-9,0h-4v-2h4Zm-9,0h-4v-2h4Zm-9,0h-4v-2h4Zm-9,0h-4v-2h4Zm-9,0h-4v-2h4Zm-9,0h-4v-2h4Zm-9,0h-4v-2h4Zm-9,0h-4v-2h4Zm-9,0h-4v-2h4Zm-9,0h-2.93l-1.11-1.91,1.73-1,.53.91h1.78Zm113.46-1.2-1.73-1,2-3.47,1.73,1Zm-120-5-2-3.47,1.73-1,2,3.47Zm124.5-2.76-1.73-1,2-3.46,1.73,1Zm-129-5-2-3.46,1.73-1,2,3.46Zm133.5-2.75-1.73-1,2-3.47,1.73,1Zm-138-5-2-3.47,1.73-1,2,3.47Zm142.5-2.76-1.73-1,2-3.46,1.73,1Zm-147-5-2-3.46,1.73-1,2,3.46ZM67.06,579l-1.73-1,2-3.46,1.73,1Zm-156-5-2-3.47,1.73-1,2,3.47Zm160.5-2.75-1.73-1,2-3.47,1.73,1Zm-165-5-2-3.46,1.73-1,2,3.46Zm169.5-2.75-1.73-1,2-3.46,1.73,1Zm-174-5-2-3.46,1.73-1,2,3.46Zm178.5-2.75-1.73-1,2-3.47,1.73,1Zm-183-5-2-3.47,1.73-1,2,3.47Zm187.5-2.76-1.73-1,2-3.46,1.73,1Zm-192-5-2-3.46,1.73-1,2,3.46Zm196.5-2.75-1.73-1,2-3.47,1.73,1Zm-201-5-2-3.47,1.73-1,2,3.47Zm205.5-2.76-1.73-1,2-3.46,1.73,1Zm-210-5-2-3.46,1.73-1,2,3.46Zm214.5-2.75-1.73-1,2-3.46,1.73,1Zm-219-5-2-3.47,1.73-1,2,3.47Zm223.5-2.75-1.73-1,2-3.47,1.73,1Zm-226.18-5.05-1.73-1,2-3.46,1.73,1Zm225.68-2.75-2-3.46,1.73-1,2,3.46Zm-221.18-5-1.73-1,2-3.46,1.73,1ZM98.06,501.1l-2-3.47,1.73-1,2,3.47Zm-212.18-5-1.73-1,2-3.47,1.73,1ZM93.56,493.3l-2-3.46,1.73-1,2,3.46Zm-203.18-5-1.73-1,2-3.46,1.73,1Zm198.68-2.75-2-3.47,1.73-1,2,3.47Zm-194.18-5-1.73-1,2-3.47,1.73,1Zm189.68-2.76-2-3.46,1.73-1,2,3.46Zm-185.18-5-1.73-1,2-3.46,1.73,1Zm180.68-2.75-2-3.46,1.73-1,2,3.46Zm-176.18-5-1.73-1,2-3.46,1.73,1Zm171.68-2.75-2-3.47,1.73-1,2,3.47Zm-167.18-5.05-1.73-1,2-3.46,1.73,1Zm162.68-2.75-2-3.46,1.73-1,2,3.46Zm-158.18-5-1.73-1,2-3.46,1.73,1Zm153.68-2.75-2-3.47,1.73-1,2,3.47Zm-149.18-5-1.73-1,2-3.47,1.73,1Zm144.68-2.76-2-3.46,1.73-1,2,3.46Zm-140.18-5-1.73-1,2-3.46,1.73,1ZM57.56,431l-2-3.46,1.73-1,2,3.46Zm-131.18-5-1.73-1,2-3.47,1.73,1Zm126.68-2.75-2-3.47,1.73-1,2,3.47Zm-122.18-5.05-1.73-1,2-3.46,1.73,1Zm117.68-2.75L47.21,413H43.79v-2h4.58l1.92,3.34ZM38.79,413h-4v-2h4Zm-9,0h-4v-2h4Zm-9,0h-4v-2h4Zm-9,0h-4v-2h4Zm-9,0h-4v-2h4Zm-9,0h-4v-2h4Zm-9,0h-4v-2h4Zm-9,0h-4v-2h4Zm-9,0h-4v-2h4Zm-9,0h-4v-2h4Zm-9,0h-4v-2h4Zm-9,0h-4v-2h4Z" transform="translate(159.52 128.34)"/><path class="cls-6" d="M512.42,425.23H509v-2h2.23l.3-.53,1.74,1Zm-8.38,0h-4v-2h4Zm-9,0h-4v-2h4Zm-9,0h-4v-2h4Zm-9,0h-4v-2h4Zm-9,0h-4v-2h4Zm-9.69-.81-2-3.46,1.73-1,2,3.46Zm57.46-5.05-1.74-1,2-3.46,1.74,1Zm-62-2.74-2-3.46,1.73-1,2,3.46Zm66.46-5.05-1.74-1,2-3.46,1.74,1Zm-71-2.74-2-3.47,1.73-1,2,3.47Zm75.46-5-1.74-1,2-3.47,1.74,1Zm-80-2.75-2-3.46,1.73-1,2,3.46ZM529.31,396l-1.74-1,2-3.46,1.74,1Zm-89-2.74-2-3.47,1.73-1,2,3.47Zm93.46-5.05-1.74-1,2-3.47,1.74,1Zm-98-2.75-2-3.46,1.73-1,2,3.46Zm102.46-5.05-1.74-1,.35-.59-1.08-1.87,1.73-1,1.66,2.87ZM435,377.66l-1.74-1,2-3.47,1.74,1Zm98.35-5.05-2-3.47,1.73-1,2,3.47Zm-93.85-2.75-1.74-1,2-3.46,1.74,1Zm89.35-5.05-2-3.46,1.73-1,2,3.46ZM444,362.07l-1.74-1,2-3.46,1.74,1ZM524.34,357l-2-3.46,1.73-1,2,3.46Zm-75.85-2.74-1.74-1,2-3.47,1.74,1Zm71.35-5-2-3.47,1.73-1,2,3.47ZM453,346.48l-1.74-1,2-3.46,1.74,1Zm62.35-5.05-2-3.46,1.73-1,2,3.46Zm-57.85-2.74-1.74-1,2-3.47,1.74,1Zm54.36-4.31h-4v-2h4Zm-9,0h-4v-2h4Zm-9,0h-4v-2h4Zm-9,0h-4v-2h4Zm-9,0h-4v-2h4Zm-9,0h-4v-2h4Z" transform="translate(159.52 128.34)"/><path class="cls-6" d="M389.07,362h-4v-2h4Zm-9,0h-4v-2h4Zm-9,0h-4v-2h4Zm-9,0h-.74l-2.21-3.83,1.73-1,1.92,3.33-.7.4ZM393,358.17l-1.73-1,2-3.46,1.73,1Zm-36.37-4.29-2-3.46,1.73-1,2,3.46Zm40.87-3.5-1.73-1,2-3.47,1.73,1Zm-45.37-4.29-2-3.47,1.73-1,2,3.47ZM402,342.58l-1.73-1,2-3.46,1.73,1Zm-54.37-4.29-1-1.75,1.57-2.71,1.73,1-1,1.71.43.75Zm54.53-3.5-2-3.46,1.74-1,2,3.46Zm-49.74-4.29-1.73-1,2-3.46,1.73,1Zm45.24-3.5-2-3.47,1.74-1,2,3.47Zm-40.74-4.29-1.73-1,2-3.47,1.73,1Zm36.24-3.51-2-3.46,1.74-1,2,3.46Zm-31.74-4.29-1.73-1,1.65-2.86h1.85v2h-.7Zm28.77-1.86h-4v-2h4Zm-9,0h-4v-2h4Zm-9,0h-4v-2h4Z" transform="translate(159.52 128.34)"/><path class="cls-6" d="M271.27,517.08h-4v-2h4Zm-9,0h-4v-2h4Zm-9,0h-4v-2h4Zm-9,0h-4v-2h4Zm-9,0h-4v-2h4Zm-9,0h-4v-2h4Zm-9,0h-4v-2h4Zm-9,0h-4v-2h4Zm-9,0h-4v-2h4Zm76.47-2.92-1.73-1,2-3.46,1.73,1Zm-84.89-.1-2-3.47,1.74-1,2,3.47Zm89.39-7.69-1.73-1,2-3.46,1.73,1Zm-93.89-.11-2-3.46,1.74-1,2,3.46Zm98.39-7.68-1.73-1,2-3.47,1.73,1Zm-102.89-.11-2-3.47,1.74-1,2,3.47Zm107.39-7.69-1.73-1,2-3.46,1.73,1Zm-111.89-.11-2-3.46,1.74-1,2,3.46ZM293.74,483,292,482l2-3.47,1.73,1Zm-120.89-.11-2-3.46,1.74-1,2,3.46Zm125.39-7.69-1.73-1,2-3.46,1.73,1Zm-129.89-.11-2-3.46,1.74-1,2,3.46Zm134.39-7.68-1.73-1,2-3.46,1.73,1Zm-138.89-.11-2-3.46,1.74-1,2,3.46Zm143.39-7.69-1.73-1,2-3.46,1.73,1Zm-147.89-.1-2-3.47,1.74-1,2,3.47Zm152.39-7.69-1.73-1,2-3.46,1.73,1Zm-156.89-.11-2-3.46,1.74-1,2,3.46ZM311,444l-2-3.47,1.74-1,2,3.47Zm-155.33-.11-1.73-1,2-3.47,1.73,1Zm150.83-7.69-2-3.46,1.74-1,2,3.46Zm-146.33-.11-1.73-1,2-3.46,1.73,1ZM302,428.43,300,425l1.74-1,2,3.47Zm-137.33-.11-1.73-1,2-3.46,1.73,1Zm132.83-7.69-2-3.46,1.74-1,2,3.46Zm-128.33-.1-1.73-1,2-3.47,1.73,1ZM293,412.84l-2-3.46,1.74-1,2,3.46Zm-119.33-.11-1.73-1,2-3.46,1.73,1ZM288.52,405l-2-3.46,1.74-1,2,3.46Zm-110.33-.1-1.73-1,2-3.47,1.73,1ZM284,397.25l-2-3.46,1.74-1,2,3.46Zm-101.33-.11-1.73-1,2-3.46,1.73,1Zm96.83-7.68-2-3.47,1.74-1,2,3.47Zm-92.33-.11-1.73-1,2-3.47,1.73,1ZM275,381.66l-2-3.46.37-.21h-3.91v-2h4v1.95l1.28-.74,2,3.46Zm-83.33-.11-1.73-1,2-3.46,1.73,1ZM264.48,378h-4v-2h4Zm-9,0h-4v-2h4Zm-9,0h-4v-2h4Zm-9,0h-4v-2h4Zm-9,0h-4v-2h4Zm-9,0h-4v-2h4Zm-9,0h-4v-2h4Zm-9,0h-4v-2h4Z" transform="translate(159.52 128.34)"/><path class="cls-6" d="M677.89,271h-4v-2h4Zm-9,0h-4v-2h4Zm-9,0h-4v-2h4Zm-9,0h-4v-2h4Zm-9,0h-4v-2h4Zm-9.52-1.11-2-3.46,1.74-1,2,3.46Zm50-1.76-1.73-1,2-3.47,1.73,1Zm-54.52-6-2-3.46,1.74-1,2,3.46Zm59-1.77-1.73-1,2-3.46,1.73,1Zm-63.52-6-2-3.47,1.74-1,2,3.47Zm68-1.77-1.73-1,2-3.47,1.73,1Zm-72.52-6-2-3.46,1.74-1,2,3.46Zm77-1.77-1.73-1,2-3.46,1.73,1Zm-81.52-6-2-3.47,1.74-1,2,3.47Zm86-1.77-1.73-1,2-3.47,1.73,1Zm-90.52-6-.72-1.25,1.85-3.21,1.74,1-1.28,2.21.15.25ZM702,229.14l-2-3.46,1.73-1,2,3.46Zm-86.74-6-1.74-1,2-3.46,1.74,1Zm82.24-1.77-2-3.46,1.73-1,2,3.46Zm-77.74-6-1.74-1,2-3.47,1.74,1ZM693,213.56l-2-3.47,1.73-1,2,3.47Zm-68.74-6-1.74-1,2-3.46,1.74,1Zm64.24-1.77-2-3.46,1.73-1,2,3.46Zm-59.74-6-1.74-1,2-3.47,1.74,1ZM684,198l-2-3.47,1.73-1,2,3.47Zm-50.74-6-1.74-1,1.51-2.61h2.14v2h-1Zm46.91-1.61h-4v-2h4.58l.48.84-1.06.62Zm-9,0h-4v-2h4Zm-9,0h-4v-2h4Zm-9,0h-4v-2h4Zm-9,0h-4v-2h4Z" transform="translate(159.52 128.34)"/><polygon class="cls-6" points="700.5 648.32 627.55 575.37 264.58 575.37 264.58 574.37 627.97 574.37 701.21 647.62 700.5 648.32"/><polygon class="cls-6" points="925.71 398.68 882.3 355.27 882.3 102.34 883.3 102.34 883.3 354.86 926.42 397.97 925.71 398.68"/></g></g></g></g></svg>