<?xml version="1.0" encoding="utf-8"?>
<!-- Generator: Adobe Illustrator 23.0.3, SVG Export Plug-In . SVG Version: 6.00 Build 0)  -->
<svg version="1.1" id="Layer_1" xmlns="http://www.w3.org/2000/svg" xmlns:xlink="http://www.w3.org/1999/xlink" x="0px" y="0px"
	 viewBox="0 0 859.62 693.88" style="enable-background:new 0 0 859.62 693.88;" xml:space="preserve">
<style type="text/css">
	.st0{display:none;fill:#1500BF;stroke:#F2F2F2;stroke-miterlimit:10;}
	.st1{opacity:0.5;}
	.st2{opacity:0.3;}
	.st3{fill:none;stroke:#F2F2F2;stroke-miterlimit:10;}
	.st4{opacity:0.31;}
	.st5{opacity:0.15;fill:none;stroke:#F2F2F2;stroke-width:3;stroke-miterlimit:10;enable-background:new    ;}
	.st6{opacity:0.14;fill:none;stroke:#F2F2F2;stroke-width:3;stroke-miterlimit:10;enable-background:new    ;}
	.st7{opacity:0.13;fill:none;stroke:#F2F2F2;stroke-miterlimit:10;enable-background:new    ;}
	.st8{opacity:0.13;fill:none;stroke:#F2F2F2;stroke-width:2;stroke-miterlimit:10;enable-background:new    ;}
	.st9{opacity:0.6;}
	.st10{fill:none;stroke:#F2F2F2;stroke-width:2;stroke-miterlimit:10;}
	.st11{opacity:0.03;fill:none;stroke:#F2F2F2;stroke-width:2;stroke-miterlimit:10;enable-background:new    ;}
</style>
<rect x="1.34" y="0.4" class="st0" width="858" height="691"/>
<g class="st1">
	<g>
		<g class="st2">
			<g class="st1">
				<g>
					<polyline class="st3" points="1.84,327.02 350.47,327.02 409.26,385.81 846.84,385.81 					"/>
				</g>
				<g>
					<polyline class="st3" points="1.84,332.83 350.47,332.83 409.26,391.62 846.84,391.62 					"/>
				</g>
				<g>
					<polyline class="st3" points="1.84,338.65 350.47,338.65 409.26,397.44 846.84,397.44 					"/>
				</g>
				<g>
					<polyline class="st3" points="1.84,344.46 350.47,344.46 409.26,403.25 846.84,403.25 					"/>
				</g>
				<g>
					<polyline class="st3" points="1.84,350.28 350.47,350.28 409.26,409.07 846.84,409.07 					"/>
				</g>
			</g>
			<g class="st1">
				<g>
					<polyline class="st3" points="284.62,543.5 633.24,543.5 692.03,602.29 859.62,602.29 					"/>
				</g>
				<g>
					<polyline class="st3" points="284.62,549.31 633.24,549.31 692.03,608.1 859.62,608.1 					"/>
				</g>
				<g>
					<polyline class="st3" points="284.62,555.13 633.24,555.13 692.03,613.92 859.62,613.92 					"/>
				</g>
				<g>
					<polyline class="st3" points="284.62,560.94 633.24,560.94 692.03,619.73 859.62,619.73 					"/>
				</g>
				<g>
					<polyline class="st3" points="284.62,566.76 633.24,566.76 692.03,625.55 859.62,625.55 					"/>
				</g>
			</g>
			<g class="st1">
				<g>
					<polyline class="st3" points="679.5,646.95 679.5,298.32 738.29,239.53 738.34,0.9 					"/>
				</g>
				<g>
					<polyline class="st3" points="685.32,646.95 685.32,298.32 744.11,239.53 744.34,0.9 					"/>
				</g>
				<g>
					<polyline class="st3" points="691.13,646.95 691.13,298.32 749.92,239.53 750.34,2.9 					"/>
				</g>
				<g>
					<polyline class="st3" points="696.95,646.95 696.95,298.32 755.74,239.53 755.34,1.9 					"/>
				</g>
				<g>
					<polyline class="st3" points="702.76,646.95 702.76,298.32 761.55,239.53 761.34,0.9 					"/>
				</g>
			</g>
			<g class="st1">
				<g>
					<polyline class="st3" points="228.09,691.66 228.09,613.04 286.88,554.25 287.34,200.9 					"/>
				</g>
				<g>
					<polyline class="st3" points="233.91,691.66 233.91,613.04 292.7,554.25 292.34,201.9 					"/>
				</g>
				<g>
					<polyline class="st3" points="239.72,691.66 239.72,613.04 298.51,554.25 298.34,201.9 					"/>
				</g>
				<g>
					<polyline class="st3" points="245.53,691.66 245.53,613.04 304.33,554.25 304.34,201.9 					"/>
				</g>
				<g>
					<polyline class="st3" points="251.35,691.66 251.35,613.04 310.14,554.25 310.34,201.9 					"/>
				</g>
			</g>
			<g class="st1">
				<g>
					<polyline class="st3" points="33.56,575 33.56,226.38 99.35,167.59 99.35,0 					"/>
				</g>
				<g>
					<polyline class="st3" points="39.37,575 39.37,226.38 105.16,167.59 105.16,0 					"/>
				</g>
				<g>
					<polyline class="st3" points="45.19,575 45.19,226.38 110.98,167.59 110.98,0 					"/>
				</g>
				<g>
					<polyline class="st3" points="51,575 51,226.38 116.79,167.59 116.79,0 					"/>
				</g>
				<g>
					<polyline class="st3" points="56.82,575 56.82,226.38 122.61,167.59 122.61,0 					"/>
				</g>
			</g>
			<g class="st1">
				<g>
					<polyline class="st3" points="575.34,691.9 575.38,506.82 634.17,448.03 634.34,202.9 					"/>
				</g>
				<g>
					<polyline class="st3" points="581.34,687.9 581.2,506.82 639.99,448.03 640.34,203.9 					"/>
				</g>
				<g>
					<polyline class="st3" points="587.34,688.9 587.01,506.82 645.8,448.03 645.34,204.9 					"/>
				</g>
				<g>
					<polyline class="st3" points="592.34,688.9 592.82,506.82 651.61,448.03 651.34,205.9 					"/>
				</g>
				<g>
					<polyline class="st3" points="598.34,688.9 598.64,506.82 657.43,448.03 657.34,206.9 					"/>
				</g>
			</g>
		</g>
	</g>
</g>
<g>
	<g>
		<g class="st4">
			<g>
				<polyline class="st5" points="1.84,655.34 248.83,411.43 804.71,411.43 				"/>
				<polyline class="st6" points="676.34,195.9 675.6,534.06 252.15,534.06 91.86,692.48 				"/>
			</g>
			<g class="st1">
				<polyline class="st3" points="757.86,293.34 560.78,487.67 2.86,487.67 				"/>
				<polyline class="st3" points="630.34,194.9 630.74,334.09 513.98,449.22 513.98,693.44 				"/>
				<polyline class="st3" points="630.34,194.4 760.95,323.21 577,504.58 767.91,692.48 				"/>
				<polyline class="st3" points="630.74,194.84 547.25,277.17 660.76,389.08 849.2,389.08 				"/>
				<polyline class="st3" points="855.17,554.81 631.24,334.02 858.84,110.12 				"/>
				<path class="st3" d="M527.25,693.38c-2.76,0-279.43-280.95-279.43-280.95v97.3H2.86"/>
				<line class="st3" x1="572.36" y1="301.93" x2="384.11" y2="487.56"/>
				<polyline class="st7" points="124.47,615.43 397.47,346.25 807.87,346.25 				"/>
			</g>
			<line class="st8" x1="461.91" y1="410.84" x2="46.84" y2="0.9"/>
			<g class="st9">
				<line class="st10" x1="190.84" y1="337.9" x2="410.1" y2="541.04"/>
				<polyline class="st11" points="34.74,261.47 34.74,413.84 204.5,581.23 489.1,292.88 				"/>
				<polyline class="st10" points="0,226.49 78.16,226.49 190.67,337.43 				"/>
				<polyline class="st10" points="81.62,460.06 110.66,431.43 417.76,431.43 				"/>
				<line class="st10" x1="183" y1="460.06" x2="285.26" y2="560.89"/>
			</g>
		</g>
	</g>
</g>
</svg>
