<?xml version="1.0" encoding="utf-8"?>
<!-- Generator: Adobe Illustrator 23.0.3, SVG Export Plug-In . SVG Version: 6.00 Build 0)  -->
<svg version="1.1" id="circles" xmlns="http://www.w3.org/2000/svg" xmlns:xlink="http://www.w3.org/1999/xlink" x="0px" y="0px"
	 viewBox="0 0 814 985.1" style="enable-background:new 0 0 814 985.1;" xml:space="preserve">
<style type="text/css">
	.st0{opacity:0.5;fill:url(#SVGID_1_);enable-background:new    ;}
	.st1{opacity:0.5;fill:url(#SVGID_2_);enable-background:new    ;}
	.st2{opacity:0.5;fill:url(#SVGID_3_);enable-background:new    ;}
	.st3{opacity:0.5;fill:url(#SVGID_4_);enable-background:new    ;}
	.st4{opacity:0.5;fill:url(#SVGID_5_);enable-background:new    ;}
	.st5{opacity:0.5;fill:url(#SVGID_6_);enable-background:new    ;}
	.st6{opacity:0.5;fill:url(#SVGID_7_);enable-background:new    ;}
	.st7{fill-opacity:0;}
	.st8{opacity:0.5;fill:url(#SVGID_8_);enable-background:new    ;}
	.st9{opacity:0.5;fill:url(#SVGID_9_);enable-background:new    ;}
	.st10{opacity:0.5;fill:url(#SVGID_10_);enable-background:new    ;}
	.st11{opacity:0.5;fill:url(#SVGID_11_);enable-background:new    ;}
	.st12{opacity:0.5;fill:url(#SVGID_12_);enable-background:new    ;}
	.st13{opacity:0.5;fill:url(#SVGID_13_);enable-background:new    ;}
	.st14{opacity:0.5;fill:url(#SVGID_14_);enable-background:new    ;}
	.st15{opacity:0.5;fill:url(#SVGID_15_);enable-background:new    ;}
	.st16{opacity:0.5;fill:url(#SVGID_16_);enable-background:new    ;}
	.st17{opacity:0.5;fill:url(#SVGID_17_);enable-background:new    ;}
	.st18{opacity:0.5;fill:url(#SVGID_18_);enable-background:new    ;}
	.st19{opacity:0.5;fill:url(#SVGID_19_);enable-background:new    ;}
	.st20{opacity:0.5;fill:url(#SVGID_20_);enable-background:new    ;}
	.st21{opacity:0.5;fill:url(#SVGID_21_);enable-background:new    ;}
	.st22{opacity:0.5;fill:url(#SVGID_22_);enable-background:new    ;}
	.st23{opacity:0.5;fill:url(#SVGID_23_);enable-background:new    ;}
	.st24{opacity:0.5;fill:url(#SVGID_24_);enable-background:new    ;}
	.st25{opacity:0.5;fill:url(#SVGID_25_);enable-background:new    ;}
	.st26{opacity:0.5;fill:url(#SVGID_26_);enable-background:new    ;}
	.st27{opacity:0.5;fill:url(#SVGID_27_);enable-background:new    ;}
	.st28{opacity:0.5;fill:url(#SVGID_28_);enable-background:new    ;}
	.st29{opacity:0.6;}
	.st30{fill:#FFFFFF;}
	.st31{font-family:'TurretRoad-Regular';}
	.st32{font-size:41px;}
	.st33{font-size:40.8521px;}
	.st34{font-size:40.9713px;}
	.st35{font-size:41.0737px;}
	.st36{font-size:40.8542px;}
	.st37{font-size:40.846px;}
	.st38{font-size:40.961px;}
	.st39{font-size:41.1657px;}
	.st40{font-size:40.8891px;}
	.st41{font-size:40.9385px;}
</style>
<title>rotating</title>
<g id="group-4">
	
		<linearGradient id="SVGID_1_" gradientUnits="userSpaceOnUse" x1="3639.9026" y1="7598.9902" x2="3639.9026" y2="6767.6802" gradientTransform="matrix(-0.2 0.98 -0.98 -0.2 8121.2202 -1532.2899)">
		<stop  offset="0" style="stop-color:#AD76FF"/>
		<stop  offset="0.22" style="stop-color:#ADC7FF"/>
		<stop  offset="0.4" style="stop-color:#ADFAFF"/>
		<stop  offset="0.6" style="stop-color:#ADEDFF"/>
		<stop  offset="0.8" style="stop-color:#26CFFF"/>
		<stop  offset="1" style="stop-color:#7F82FF"/>
	</linearGradient>
	<path class="st0" d="M701.6,483.3l101.8-3.4c1.5,153.7-80.5,309.8-226.9,373.8l-42.6-94C642.1,712.4,702.7,596.9,701.6,483.3
		L701.6,483.3z"/>
	
		<linearGradient id="SVGID_2_" gradientUnits="userSpaceOnUse" x1="3671.6106" y1="7510.7002" x2="3671.6106" y2="6610.4702" gradientTransform="matrix(-0.2 0.98 -0.98 -0.2 8121.2202 -1532.2899)">
		<stop  offset="0" style="stop-color:#AD76FF"/>
		<stop  offset="0.22" style="stop-color:#ADC7FF"/>
		<stop  offset="0.4" style="stop-color:#ADFAFF"/>
		<stop  offset="0.6" style="stop-color:#ADEDFF"/>
		<stop  offset="0.8" style="stop-color:#26CFFF"/>
		<stop  offset="1" style="stop-color:#7F82FF"/>
	</linearGradient>
	<path class="st1" d="M557.3,548.3l106.4,40.9C623,700.9,515.5,787,359.9,755.5L382.5,644C472,662.2,533.9,612.6,557.3,548.3
		L557.3,548.3z"/>
	
		<linearGradient id="SVGID_3_" gradientUnits="userSpaceOnUse" x1="3577.5579" y1="7189.6602" x2="3577.5579" y2="6758.04" gradientTransform="matrix(-0.2 0.98 -0.98 -0.2 8121.2202 -1532.2899)">
		<stop  offset="0" style="stop-color:#AD76FF"/>
		<stop  offset="0.22" style="stop-color:#ADC7FF"/>
		<stop  offset="0.4" style="stop-color:#ADFAFF"/>
		<stop  offset="0.6" style="stop-color:#ADEDFF"/>
		<stop  offset="0.8" style="stop-color:#26CFFF"/>
		<stop  offset="1" style="stop-color:#7F82FF"/>
	</linearGradient>
	<path class="st2" d="M432.2,533.9l11.7,25c-7.6,3.4-15.7,5.4-23.9,5.8l-2.7-27.2C422.5,537.2,427.5,536,432.2,533.9z"/>
	
		<linearGradient id="SVGID_4_" gradientUnits="userSpaceOnUse" x1="3299.4888" y1="7973.9199" x2="3299.4888" y2="6693.0503" gradientTransform="matrix(-0.2 0.98 -0.98 -0.2 8121.2202 -1532.2899)">
		<stop  offset="0" style="stop-color:#AD76FF"/>
		<stop  offset="0.22" style="stop-color:#ADC7FF"/>
		<stop  offset="0.4" style="stop-color:#ADFAFF"/>
		<stop  offset="0.6" style="stop-color:#ADEDFF"/>
		<stop  offset="0.8" style="stop-color:#26CFFF"/>
		<stop  offset="1" style="stop-color:#7F82FF"/>
	</linearGradient>
	<path class="st3" d="M627.5,277l25.1-25.3c33.6,32.2,59.3,71.7,75.1,115.4l-33,13.2C680.6,341.1,657.6,305.8,627.5,277L627.5,277z"
		/>
	
		<linearGradient id="SVGID_5_" gradientUnits="userSpaceOnUse" x1="3342.6978" y1="7657.0503" x2="3342.6978" y2="6560.0801" gradientTransform="matrix(-0.2 0.98 -0.98 -0.2 8121.2202 -1532.2899)">
		<stop  offset="0" style="stop-color:#AD76FF"/>
		<stop  offset="0.22" style="stop-color:#ADC7FF"/>
		<stop  offset="0.4" style="stop-color:#ADFAFF"/>
		<stop  offset="0.6" style="stop-color:#ADEDFF"/>
		<stop  offset="0.8" style="stop-color:#26CFFF"/>
		<stop  offset="1" style="stop-color:#7F82FF"/>
	</linearGradient>
	<path class="st4" d="M448.4,318.1l13-64.1c81.4,16.5,135.8,59.9,166.2,114.4L570,401.8C547.8,361.9,508,330.1,448.4,318.1z"/>
	
		<linearGradient id="SVGID_6_" gradientUnits="userSpaceOnUse" x1="660.7392" y1="-5960.6299" x2="660.7392" y2="-6582.4302" gradientTransform="matrix(0.2 -0.98 0.98 0.2 6328.0103 2333.8699)">
		<stop  offset="0" style="stop-color:#7F82FF"/>
		<stop  offset="0.2" style="stop-color:#26CFFF"/>
		<stop  offset="0.4" style="stop-color:#ADEDFF"/>
		<stop  offset="0.6" style="stop-color:#ADFAFF"/>
		<stop  offset="0.78" style="stop-color:#ADC7FF"/>
		<stop  offset="1" style="stop-color:#AD76FF"/>
	</linearGradient>
	<path class="st5" d="M184.3,558.4L79.2,586.3c-31.8-137.7,21.8-295.7,141-375.6l60.3,91.5C199.2,356.7,162.6,464.5,184.3,558.4z"/>
	
		<linearGradient id="SVGID_7_" gradientUnits="userSpaceOnUse" x1="708.2557" y1="-6049.5" x2="708.2557" y2="-6690.1099" gradientTransform="matrix(0.2 -0.98 0.98 0.2 6328.0103 2333.8699)">
		<stop  offset="0" style="stop-color:#7F82FF"/>
		<stop  offset="0.2" style="stop-color:#26CFFF"/>
		<stop  offset="0.4" style="stop-color:#ADEDFF"/>
		<stop  offset="0.6" style="stop-color:#ADFAFF"/>
		<stop  offset="0.78" style="stop-color:#ADC7FF"/>
		<stop  offset="1" style="stop-color:#AD76FF"/>
	</linearGradient>
	<path class="st6" d="M334.6,457.2l-72.5-39.8c24.5-47.6,70.2-83.9,132.7-86.9l7.3,82.5C370.3,414.6,347.1,433.1,334.6,457.2
		L334.6,457.2z"/>
	<path class="st7" d="M19.3,137.7h1v1h-1V137.7z"/>
</g>
<g id="group-3">
	
		<linearGradient id="SVGID_8_" gradientUnits="userSpaceOnUse" x1="3763.1643" y1="8084.29" x2="3763.1643" y2="6681.77" gradientTransform="matrix(-0.2 0.98 -0.98 -0.2 8121.2202 -1532.2899)">
		<stop  offset="0" style="stop-color:#AD76FF"/>
		<stop  offset="0.22" style="stop-color:#ADC7FF"/>
		<stop  offset="0.4" style="stop-color:#ADFAFF"/>
		<stop  offset="0.6" style="stop-color:#ADEDFF"/>
		<stop  offset="0.8" style="stop-color:#26CFFF"/>
		<stop  offset="1" style="stop-color:#7F82FF"/>
	</linearGradient>
	<path class="st8" d="M602.8,673.8l57.7,55c-68.8,76.7-174.5,121.4-309.2,95.8l14.4-77.3C469,766.9,550,732.6,602.8,673.8
		L602.8,673.8z"/>
	
		<linearGradient id="SVGID_9_" gradientUnits="userSpaceOnUse" x1="3469.8394" y1="7297.98" x2="3469.8394" y2="6706.5503" gradientTransform="matrix(-0.2 0.98 -0.98 -0.2 8121.2202 -1532.2899)">
		<stop  offset="0" style="stop-color:#AD76FF"/>
		<stop  offset="0.22" style="stop-color:#ADC7FF"/>
		<stop  offset="0.4" style="stop-color:#ADFAFF"/>
		<stop  offset="0.6" style="stop-color:#ADEDFF"/>
		<stop  offset="0.8" style="stop-color:#26CFFF"/>
		<stop  offset="1" style="stop-color:#7F82FF"/>
	</linearGradient>
	<path class="st9" d="M546.7,387.6l86.3-68c73.3,92.6,71.6,228.2,11.1,326.2l-90.7-60C590.2,526.3,591.2,443.9,546.7,387.6
		L546.7,387.6z"/>
	
		<linearGradient id="SVGID_10_" gradientUnits="userSpaceOnUse" x1="3618.4019" y1="7269.1602" x2="3618.4019" y2="6628.5601" gradientTransform="matrix(-0.2 0.98 -0.98 -0.2 8121.2202 -1532.2899)">
		<stop  offset="0" style="stop-color:#AD76FF"/>
		<stop  offset="0.22" style="stop-color:#ADC7FF"/>
		<stop  offset="0.4" style="stop-color:#ADFAFF"/>
		<stop  offset="0.6" style="stop-color:#ADEDFF"/>
		<stop  offset="0.8" style="stop-color:#26CFFF"/>
		<stop  offset="1" style="stop-color:#7F82FF"/>
	</linearGradient>
	<path class="st10" d="M488,534.1l72.5,39.8c-24.5,47.6-70.2,83.8-132.7,86.9l-7.3-82.5C452.3,576.8,475.5,558.3,488,534.1z"/>
	
		<linearGradient id="SVGID_11_" gradientUnits="userSpaceOnUse" x1="3555.5168" y1="7172.1001" x2="3555.5168" y2="6731.7402" gradientTransform="matrix(-0.2 0.98 -0.98 -0.2 8121.2202 -1532.2899)">
		<stop  offset="0" style="stop-color:#AD76FF"/>
		<stop  offset="0.22" style="stop-color:#ADC7FF"/>
		<stop  offset="0.4" style="stop-color:#ADFAFF"/>
		<stop  offset="0.6" style="stop-color:#ADEDFF"/>
		<stop  offset="0.8" style="stop-color:#26CFFF"/>
		<stop  offset="1" style="stop-color:#7F82FF"/>
	</linearGradient>
	<path class="st11" d="M457.5,489.2l93.3-7.9c2.8,49.8-19.5,101.5-61.7,129.3l-51.5-79.7C451.3,521.9,458.5,505.2,457.5,489.2
		L457.5,489.2z"/>
	
		<linearGradient id="SVGID_12_" gradientUnits="userSpaceOnUse" x1="729.7476" y1="-5719.6699" x2="729.7476" y2="-6550.98" gradientTransform="matrix(0.2 -0.98 0.98 0.2 6328.0103 2333.8699)">
		<stop  offset="0" style="stop-color:#7F82FF"/>
		<stop  offset="0.2" style="stop-color:#26CFFF"/>
		<stop  offset="0.4" style="stop-color:#ADEDFF"/>
		<stop  offset="0.6" style="stop-color:#ADFAFF"/>
		<stop  offset="0.78" style="stop-color:#ADC7FF"/>
		<stop  offset="1" style="stop-color:#AD76FF"/>
	</linearGradient>
	<path class="st12" d="M121.1,508.1l-101.8,3.4c-1.5-153.7,80.5-309.8,226.9-373.8l42.6,94C180.6,279,120,394.5,121.1,508.1z"/>
	
		<linearGradient id="SVGID_13_" gradientUnits="userSpaceOnUse" x1="761.4665" y1="-5807.96" x2="761.4665" y2="-6708.1997" gradientTransform="matrix(0.2 -0.98 0.98 0.2 6328.0103 2333.8699)">
		<stop  offset="0" style="stop-color:#7F82FF"/>
		<stop  offset="0.2" style="stop-color:#26CFFF"/>
		<stop  offset="0.4" style="stop-color:#ADEDFF"/>
		<stop  offset="0.6" style="stop-color:#ADFAFF"/>
		<stop  offset="0.78" style="stop-color:#ADC7FF"/>
		<stop  offset="1" style="stop-color:#AD76FF"/>
	</linearGradient>
	<path class="st13" d="M265.4,443L159,402.1c40.7-111.7,148.2-197.8,303.9-166.3l-22.6,111.5C350.7,329.2,288.8,378.8,265.4,443
		L265.4,443z"/>
	
		<linearGradient id="SVGID_14_" gradientUnits="userSpaceOnUse" x1="667.4039" y1="-6129" x2="667.4039" y2="-6560.6201" gradientTransform="matrix(0.2 -0.98 0.98 0.2 6328.0103 2333.8699)">
		<stop  offset="0" style="stop-color:#7F82FF"/>
		<stop  offset="0.2" style="stop-color:#26CFFF"/>
		<stop  offset="0.4" style="stop-color:#ADEDFF"/>
		<stop  offset="0.6" style="stop-color:#ADFAFF"/>
		<stop  offset="0.78" style="stop-color:#ADC7FF"/>
		<stop  offset="1" style="stop-color:#AD76FF"/>
	</linearGradient>
	<path class="st14" d="M390.4,457.5l-11.7-25c7.6-3.4,15.7-5.4,23.9-5.8l2.7,27.2C400.2,454.1,395.1,455.4,390.4,457.5z"/>
	<path class="st7" d="M802.3,852.7h1v1h-1V852.7z"/>
</g>
<g id="group-2">
	
		<linearGradient id="SVGID_15_" gradientUnits="userSpaceOnUse" x1="3564.0828" y1="7379.1299" x2="3564.0828" y2="6757.3501" gradientTransform="matrix(-0.2 0.98 -0.98 -0.2 8121.2202 -1532.2899)">
		<stop  offset="0" style="stop-color:#AD76FF"/>
		<stop  offset="0.22" style="stop-color:#ADC7FF"/>
		<stop  offset="0.4" style="stop-color:#ADFAFF"/>
		<stop  offset="0.6" style="stop-color:#ADEDFF"/>
		<stop  offset="0.8" style="stop-color:#26CFFF"/>
		<stop  offset="1" style="stop-color:#7F82FF"/>
	</linearGradient>
	<path class="st15" d="M619,422.1l105.1-27.9c31.8,137.7-21.8,295.7-141,375.6l-60.3-91.5C604.1,623.8,640.7,516,619,422.1z"/>
	
		<linearGradient id="SVGID_16_" gradientUnits="userSpaceOnUse" x1="3599.3254" y1="7310.0103" x2="3599.3254" y2="6681.3101" gradientTransform="matrix(-0.2 0.98 -0.98 -0.2 8121.2202 -1532.2899)">
		<stop  offset="0" style="stop-color:#AD76FF"/>
		<stop  offset="0.22" style="stop-color:#ADC7FF"/>
		<stop  offset="0.4" style="stop-color:#ADFAFF"/>
		<stop  offset="0.6" style="stop-color:#ADEDFF"/>
		<stop  offset="0.8" style="stop-color:#26CFFF"/>
		<stop  offset="1" style="stop-color:#7F82FF"/>
	</linearGradient>
	<path class="st16" d="M533.5,506.8l75.2,13.3c-11.5,64-48.5,123.4-106.3,155.8l-38-67.8C502,587,526,548.3,533.5,506.8L533.5,506.8
		z"/>
	
		<linearGradient id="SVGID_17_" gradientUnits="userSpaceOnUse" x1="3463.803" y1="7219.3301" x2="3463.803" y2="6731.6001" gradientTransform="matrix(-0.2 0.98 -0.98 -0.2 8121.2202 -1532.2899)">
		<stop  offset="0" style="stop-color:#AD76FF"/>
		<stop  offset="0.22" style="stop-color:#ADC7FF"/>
		<stop  offset="0.4" style="stop-color:#ADFAFF"/>
		<stop  offset="0.6" style="stop-color:#ADEDFF"/>
		<stop  offset="0.8" style="stop-color:#26CFFF"/>
		<stop  offset="1" style="stop-color:#7F82FF"/>
	</linearGradient>
	<path class="st17" d="M431.4,436.7l75.1-90.3c66.4,51.9,76.4,144.5,42.6,215l-103.4-52.9C456.9,485,453.6,454,431.4,436.7
		L431.4,436.7z"/>
	
		<linearGradient id="SVGID_18_" gradientUnits="userSpaceOnUse" x1="859.8373" y1="-5255.48" x2="859.8373" y2="-6658.0005" gradientTransform="matrix(0.2 -0.98 0.98 0.2 6328.0103 2333.8699)">
		<stop  offset="0" style="stop-color:#7F82FF"/>
		<stop  offset="0.2" style="stop-color:#26CFFF"/>
		<stop  offset="0.4" style="stop-color:#ADEDFF"/>
		<stop  offset="0.6" style="stop-color:#ADFAFF"/>
		<stop  offset="0.78" style="stop-color:#ADC7FF"/>
		<stop  offset="1" style="stop-color:#AD76FF"/>
	</linearGradient>
	<path class="st18" d="M200.5,306.7l-57.7-55C211.7,175,317.3,130.3,452,155.9l-14.4,77.3C334.3,213.6,253.3,247.9,200.5,306.7z"/>
	
		<linearGradient id="SVGID_19_" gradientUnits="userSpaceOnUse" x1="566.4977" y1="-6041.79" x2="566.4977" y2="-6633.2104" gradientTransform="matrix(0.2 -0.98 0.98 0.2 6328.0103 2333.8699)">
		<stop  offset="0" style="stop-color:#7F82FF"/>
		<stop  offset="0.2" style="stop-color:#26CFFF"/>
		<stop  offset="0.4" style="stop-color:#ADEDFF"/>
		<stop  offset="0.6" style="stop-color:#ADFAFF"/>
		<stop  offset="0.78" style="stop-color:#ADC7FF"/>
		<stop  offset="1" style="stop-color:#AD76FF"/>
	</linearGradient>
	<path class="st19" d="M256.7,592.9l-86.3,68c-73.3-92.6-71.6-228.2-11-326.2l90.7,60C213.2,454.2,212.1,536.6,256.7,592.9z"/>
	
		<linearGradient id="SVGID_20_" gradientUnits="userSpaceOnUse" x1="652.1859" y1="-6167.6602" x2="652.1859" y2="-6608.04" gradientTransform="matrix(0.2 -0.98 0.98 0.2 6328.0103 2333.8699)">
		<stop  offset="0" style="stop-color:#7F82FF"/>
		<stop  offset="0.2" style="stop-color:#26CFFF"/>
		<stop  offset="0.4" style="stop-color:#ADEDFF"/>
		<stop  offset="0.6" style="stop-color:#ADFAFF"/>
		<stop  offset="0.78" style="stop-color:#ADC7FF"/>
		<stop  offset="1" style="stop-color:#AD76FF"/>
	</linearGradient>
	<path class="st20" d="M345.8,491.3l-93.3,7.9c-2.8-49.8,19.5-101.5,61.7-129.3l51.5,79.7C352.1,458.5,344.9,475.2,345.8,491.3z"/>
	
		<linearGradient id="SVGID_21_" gradientUnits="userSpaceOnUse" x1="396.1462" y1="-5365.8501" x2="396.1462" y2="-6646.73" gradientTransform="matrix(0.2 -0.98 0.98 0.2 6328.0103 2333.8699)">
		<stop  offset="0" style="stop-color:#7F82FF"/>
		<stop  offset="0.2" style="stop-color:#26CFFF"/>
		<stop  offset="0.4" style="stop-color:#ADEDFF"/>
		<stop  offset="0.6" style="stop-color:#ADFAFF"/>
		<stop  offset="0.78" style="stop-color:#ADC7FF"/>
		<stop  offset="1" style="stop-color:#AD76FF"/>
	</linearGradient>
	<path class="st21" d="M175.8,703.5l-25.1,25.3c-33.6-32.2-59.3-71.7-75.1-115.4l33-13.2C122.8,639.4,145.8,674.7,175.8,703.5z"/>
	<path class="st7" d="M783,841.8h1v1h-1V841.8z"/>
	<path class="st7" d="M0,126.8h1v1H0V126.8z"/>
</g>
<g id="group-1">
	
		<linearGradient id="SVGID_22_" gradientUnits="userSpaceOnUse" x1="3640.6299" y1="7452.1299" x2="3640.6299" y2="6645.8701" gradientTransform="matrix(-0.2 0.98 -0.98 -0.2 8121.2202 -1532.2899)">
		<stop  offset="0" style="stop-color:#AD76FF"/>
		<stop  offset="0.22" style="stop-color:#ADC7FF"/>
		<stop  offset="0.4" style="stop-color:#ADFAFF"/>
		<stop  offset="0.6" style="stop-color:#ADEDFF"/>
		<stop  offset="0.8" style="stop-color:#26CFFF"/>
		<stop  offset="1" style="stop-color:#7F82FF"/>
	</linearGradient>
	<path class="st22" d="M619.7,572.3l49.3,19c-19.3,52.8-53.2,100.1-99.9,132.4l-30.1-44.5C576.8,653.2,604.2,615,619.7,572.3z"/>
	
		<linearGradient id="SVGID_23_" gradientUnits="userSpaceOnUse" x1="3538.968" y1="7183.8398" x2="3538.968" y2="6731.54" gradientTransform="matrix(-0.2 0.98 -0.98 -0.2 8121.2202 -1532.2899)">
		<stop  offset="0" style="stop-color:#AD76FF"/>
		<stop  offset="0.22" style="stop-color:#ADC7FF"/>
		<stop  offset="0.4" style="stop-color:#ADFAFF"/>
		<stop  offset="0.6" style="stop-color:#ADEDFF"/>
		<stop  offset="0.8" style="stop-color:#26CFFF"/>
		<stop  offset="1" style="stop-color:#7F82FF"/>
	</linearGradient>
	<path class="st23" d="M539.7,487.3l56.1-2.5c0.8,39.6-10.3,79.8-31.8,113l-46.3-32.2C532.5,542.3,540.2,515,539.7,487.3
		L539.7,487.3z"/>
	
		<linearGradient id="SVGID_24_" gradientUnits="userSpaceOnUse" x1="730.476" y1="-5866.5303" x2="730.476" y2="-6672.7905" gradientTransform="matrix(0.2 -0.98 0.98 0.2 6328.0103 2333.8699)">
		<stop  offset="0" style="stop-color:#7F82FF"/>
		<stop  offset="0.2" style="stop-color:#26CFFF"/>
		<stop  offset="0.4" style="stop-color:#ADEDFF"/>
		<stop  offset="0.6" style="stop-color:#ADFAFF"/>
		<stop  offset="0.78" style="stop-color:#ADC7FF"/>
		<stop  offset="1" style="stop-color:#AD76FF"/>
	</linearGradient>
	<path class="st24" d="M202.9,419l-49.3-19c19.3-52.9,53.2-100.1,99.9-132.4l30.1,44.5C245.9,338.2,218.5,376.3,202.9,419L202.9,419
		z"/>
	
		<linearGradient id="SVGID_25_" gradientUnits="userSpaceOnUse" x1="695.9936" y1="-6029.7603" x2="695.9936" y2="-6658.4497" gradientTransform="matrix(0.2 -0.98 0.98 0.2 6328.0103 2333.8699)">
		<stop  offset="0" style="stop-color:#7F82FF"/>
		<stop  offset="0.2" style="stop-color:#26CFFF"/>
		<stop  offset="0.4" style="stop-color:#ADEDFF"/>
		<stop  offset="0.6" style="stop-color:#ADFAFF"/>
		<stop  offset="0.78" style="stop-color:#ADC7FF"/>
		<stop  offset="1" style="stop-color:#AD76FF"/>
	</linearGradient>
	<path class="st25" d="M269.8,473.7l-75.2-13.3c11.5-64,48.5-123.4,106.3-155.8l38,67.8C301.3,393.4,277.3,432.1,269.8,473.7
		L269.8,473.7z"/>
	
		<linearGradient id="SVGID_26_" gradientUnits="userSpaceOnUse" x1="628.7836" y1="-6134.8198" x2="628.7836" y2="-6587.1201" gradientTransform="matrix(0.2 -0.98 0.98 0.2 6328.0103 2333.8699)">
		<stop  offset="0" style="stop-color:#7F82FF"/>
		<stop  offset="0.2" style="stop-color:#26CFFF"/>
		<stop  offset="0.4" style="stop-color:#ADEDFF"/>
		<stop  offset="0.6" style="stop-color:#ADFAFF"/>
		<stop  offset="0.78" style="stop-color:#ADC7FF"/>
		<stop  offset="1" style="stop-color:#AD76FF"/>
	</linearGradient>
	<path class="st26" d="M283,504.1l-56.1,2.5c-0.8-39.6,10.3-79.8,31.8-112.9l46.3,32.2C290.1,449.2,282.5,476.4,283,504.1z"/>
	
		<linearGradient id="SVGID_27_" gradientUnits="userSpaceOnUse" x1="560.4623" y1="-6120.4502" x2="560.4623" y2="-6608.1802" gradientTransform="matrix(0.2 -0.98 0.98 0.2 6328.0103 2333.8699)">
		<stop  offset="0" style="stop-color:#7F82FF"/>
		<stop  offset="0.2" style="stop-color:#26CFFF"/>
		<stop  offset="0.4" style="stop-color:#ADEDFF"/>
		<stop  offset="0.6" style="stop-color:#ADFAFF"/>
		<stop  offset="0.78" style="stop-color:#ADC7FF"/>
		<stop  offset="1" style="stop-color:#AD76FF"/>
	</linearGradient>
	<path class="st27" d="M372,543.8L296.9,634c-66.4-51.9-76.4-144.5-42.6-215l103.4,52.9C346.4,495.5,349.7,526.5,372,543.8
		L372,543.8z"/>
	
		<linearGradient id="SVGID_28_" gradientUnits="userSpaceOnUse" x1="432.5379" y1="-5661.6099" x2="432.5379" y2="-6758.5796" gradientTransform="matrix(0.2 -0.98 0.98 0.2 6328.0103 2333.8699)">
		<stop  offset="0" style="stop-color:#7F82FF"/>
		<stop  offset="0.2" style="stop-color:#26CFFF"/>
		<stop  offset="0.4" style="stop-color:#ADEDFF"/>
		<stop  offset="0.6" style="stop-color:#ADFAFF"/>
		<stop  offset="0.78" style="stop-color:#ADC7FF"/>
		<stop  offset="1" style="stop-color:#AD76FF"/>
	</linearGradient>
	<path class="st28" d="M374.2,673.3l-13,64.1C279.8,721,225.5,677.5,195,623l57.6-33.4C274.9,629.5,314.6,661.3,374.2,673.3z"/>
	<path class="st7" d="M802.3,852.7h1v1h-1V852.7z"/>
	<path class="st7" d="M19.3,137.7h1v1h-1V137.7z"/>
</g>
<g id="text3" class="st29">
	<text transform="matrix(0.586 -0.8103 0.8103 0.586 80.8708 271.6043)" class="st30 st31 st32">D</text>
	<text transform="matrix(0.6385 -0.7696 0.7696 0.6385 97.9686 247.9927)" class="st30 st31 st32">E</text>
	<text transform="matrix(0.6865 -0.7271 0.7271 0.6865 115.1303 227.272)" class="st30 st31 st32">P</text>
	<text transform="matrix(0.727 -0.6867 0.6867 0.727 131.4737 209.8145)" class="st30 st31 st32">A</text>
	<text transform="matrix(0.7718 -0.6359 0.6359 0.7718 150.987 191.3046)" class="st30 st31 st32">R</text>
	<text transform="matrix(0.8107 -0.5855 0.5855 0.8107 172.9357 173.2664)" class="st30 st31 st32">T</text>
	<text transform="matrix(0.8506 -0.5257 0.5257 0.8506 192.744 158.7297)" class="st30 st31 st32">M</text>
	<text transform="matrix(0.888 -0.4599 0.4599 0.888 221.4193 141.1404)" class="st30 st31 st32">E</text>
	<text transform="matrix(0.9183 -0.3958 0.3958 0.9183 245.2289 128.7283)" class="st30 st31 st32">N</text>
	<text transform="matrix(0.9434 -0.3318 0.3318 0.9434 272.0305 117.243)" class="st30 st31 st32">T</text>
	<text transform="matrix(0.9715 -0.237 0.237 0.9715 305.151 105.9326)" class="st30 st31 st32">O</text>
	<text transform="matrix(0.9851 -0.172 0.172 0.9851 335.7262 98.6198)" class="st30 st31 st33">F</text>
	<text transform="matrix(0.9974 -7.233227e-02 7.233227e-02 0.9974 371.0166 93.0393)" class="st30 st31 st32">C</text>
	<text transform="matrix(1 5.271631e-03 -5.271631e-03 1 400.0365 90.8732)" class="st30 st31 st32">O</text>
	<text transform="matrix(0.9959 9.066810e-02 -9.066810e-02 0.9959 431.3472 90.9579)" class="st30 st31 st32">M</text>
	<text transform="matrix(0.9853 0.1708 -0.1708 0.9853 464.8107 94.111)" class="st30 st31 st32">P</text>
	<text transform="matrix(0.9697 0.2443 -0.2443 0.9697 491.2418 98.6326)" class="st30 st31 st32">U</text>
	<text transform="matrix(0.9479 0.3185 -0.3185 0.9479 519.4811 105.8108)" class="st30 st31 st34">T</text>
	<text transform="matrix(0.9259 0.3777 -0.3777 0.9259 542.8444 113.4655)" class="st30 st31 st32">E</text>
	<text transform="matrix(0.8945 0.4471 -0.4471 0.8945 567.6961 123.5433)" class="st30 st31 st35">R</text>
	<text transform="matrix(0.8484 0.5293 -0.5293 0.8484 603.5463 142.0082)" class="st30 st31 st36">S</text>
	<text transform="matrix(0.8079 0.5893 -0.5893 0.8079 626.3225 156.2686)" class="st30 st31 st37">C</text>
	<text transform="matrix(0.777 0.6295 -0.6295 0.777 649.7897 173.7051)" class="st30 st31 st32">I</text>
	<text transform="matrix(0.7449 0.6672 -0.6672 0.7449 658.5222 180.5307)" class="st30 st31 st38">E</text>
	<text transform="matrix(0.7013 0.7129 -0.7129 0.7013 678.6551 198.3686)" class="st30 st31 st32">N</text>
	<text transform="matrix(0.654 0.7565 -0.7565 0.654 699.1037 219.1484)" class="st30 st31 st38">C</text>
	<text transform="matrix(0.6009 0.7993 -0.7993 0.6009 718.0714 241.2863)" class="st30 st31 st32">E</text>
	<text transform="matrix(0.8548 0.519 -0.519 0.8548 175.4388 848.5547)" class="st30 st31 st32">U</text>
	<text transform="matrix(0.8885 0.4588 -0.4588 0.8885 202.3179 864.8008)" class="st30 st31 st32">N</text>
	<text transform="matrix(0.9095 0.4157 -0.4157 0.9095 229.8268 878.7323)" class="st30 st31 st32">I</text>
	<text transform="matrix(0.9274 0.374 -0.374 0.9274 241.1698 884.0816)" class="st30 st31 st32">V</text>
	<text transform="matrix(0.9497 0.313 -0.313 0.9497 268.1063 894.8881)" class="st30 st31 st32">E</text>
	<text transform="matrix(0.9689 0.2475 -0.2475 0.9689 295.7579 903.9806)" class="st30 st31 st32">R</text>
	<text transform="matrix(0.9837 0.18 -0.18 0.9837 326.2017 911.6579)" class="st30 st31 st32">S</text>
	<text transform="matrix(0.9911 0.133 -0.133 0.9911 354.3399 916.5845)" class="st30 st31 st32">I</text>
	<text transform="matrix(0.9961 8.823444e-02 -8.823444e-02 0.9961 366.7447 918.3737)" class="st30 st31 st32">T</text>
	<text transform="matrix(0.9997 2.307197e-02 -2.307197e-02 0.9997 393.365 920.7166)" class="st30 st31 st32">Y</text>
	<text transform="matrix(0.9967 -8.090734e-02 8.090734e-02 0.9967 433.973 921.1025)" class="st30 st31 st39">O</text>
	<text transform="matrix(0.9887 -0.1497 0.1497 0.9887 467.5891 918.2768)" class="st30 st31 st32">F</text>
	<text transform="matrix(0.9695 -0.2453 0.2453 0.9695 506.0068 911.8934)" class="st30 st31 st32">D</text>
	<text transform="matrix(0.9489 -0.3154 0.3154 0.9489 536.5164 904.0605)" class="st30 st31 st32">E</text>
	<text transform="matrix(0.9264 -0.3765 0.3765 0.9264 563.9884 894.8005)" class="st30 st31 st32">L</text>
	<text transform="matrix(0.8963 -0.4434 0.4434 0.8963 586.7807 885.5896)" class="st30 st31 st40">H</text>
	<text transform="matrix(0.8756 -0.4831 0.4831 0.8756 614.4717 871.7621)" class="st30 st31 st41">I</text>
</g>
</svg>
