<?xml version="1.0" encoding="UTF-8"?>
<svg xmlns="http://www.w3.org/2000/svg" xmlns:xlink="http://www.w3.org/1999/xlink" width="117.1pt" height="170.2pt" viewBox="0 0 117.1 170.2" version="1.1">
<g id="surface1">
<path style=" stroke:none;fill-rule:evenodd;fill:rgb(79.6875%,0%,22.363281%);fill-opacity:1;" d="M 10.121094 -0.0234375 C 42.527344 -0.0234375 74.964844 -0.0390625 107.375 -0.0390625 C 111.46875 -0.0507813 114.304688 1.113281 115.738281 3.765625 C 117.175781 6.386719 116.957031 10.609375 116.957031 14.671875 L 116.957031 99.757813 C 116.96875 104.03125 116.757813 107.488281 115.433594 110.363281 C 114.164063 113.167969 112.078125 115.074219 108.824219 115.898438 C 107.207031 116.3125 105.289063 116.382813 103.238281 116.382813 L 48.117188 116.382813 C 49.109375 118.90625 50.617188 121.105469 52.320313 123.089844 C 53.992188 125.015625 55.957031 126.804688 58.027344 128.308594 C 66.480469 134.402344 77.152344 138.304688 89.058594 141.015625 C 93.484375 142.015625 98.125 142.957031 102.925781 143.554688 C 104.664063 143.78125 106.324219 143.988281 108.121094 144.121094 C 108.226563 144.199219 108.136719 144.375 108.121094 144.523438 C 107.410156 149.539063 106.613281 154.652344 105.34375 159.046875 C 104.011719 163.621094 101.796875 166.851563 97.503906 168.5 C 93.300781 170.117188 86.9375 169.730469 81.964844 169.0625 C 76.832031 168.375 72.160156 167.328125 67.609375 166.140625 C 58.652344 163.804688 50.261719 160.519531 42.363281 156.816406 C 38.496094 154.992188 34.730469 152.9375 31.125 150.777344 C 27.519531 148.601563 24.074219 146.214844 21.0625 143.566406 C 11.867188 135.484375 5.4375 124.644531 2.617188 110.128906 C 1.675781 105.308594 1.285156 100.117188 1.054688 94.40625 C 0.167969 72.273438 0.101563 49.660156 0.03125 26.292969 L 0.03125 8.875 C 0.175781 2.699219 3.929688 0.117188 10.121094 -0.0234375 Z M 10.121094 -0.0234375 "/>
<path style=" stroke:none;fill-rule:evenodd;fill:rgb(100%,100%,100%);fill-opacity:1;" d="M 85.152344 13.753906 C 85.597656 15.613281 86.191406 17.582031 86.691406 19.484375 C 89.667969 19.019531 92.898438 18.847656 95.84375 18.371094 C 95.664063 16.699219 95.398438 14.855469 95.203125 13.238281 C 95.164063 13 95.203125 12.726563 95.058594 12.53125 C 91.722656 12.902344 88.488281 13.375 85.152344 13.753906 Z M 85.152344 13.753906 "/>
<path style=" stroke:none;fill-rule:evenodd;fill:rgb(100%,100%,100%);fill-opacity:1;" d="M 35.398438 29.703125 C 35.398438 28.621094 35.3125 27.597656 35.203125 26.660156 C 35.148438 26.175781 35.148438 25.636719 35.007813 25.242188 C 34.898438 24.941406 34.59375 24.546875 34.359375 24.257813 C 32.351563 21.8125 28.070313 21.253906 23.6875 21.558594 C 20.585938 21.765625 18.152344 22.238281 16.511719 23.886719 C 15.917969 24.476563 15.320313 25.335938 15.152344 26.347656 C 15.136719 26.371094 15.128906 26.371094 15.128906 26.410156 C 15.035156 27.785156 15.128906 29.210938 15.128906 30.636719 C 15.128906 34.140625 15.347656 37.457031 15.460938 40.902344 C 15.5 41.605469 15.402344 42.347656 15.5 43 C 15.628906 43.957031 16.175781 44.941406 16.757813 45.617188 C 18.015625 47.0625 19.859375 47.773438 22.066406 48.132813 C 23.214844 48.328125 24.519531 48.285156 25.847656 48.285156 C 29.480469 48.285156 32.949219 47.453125 34.554688 45.246094 C 35.105469 44.496094 35.574219 43.519531 35.6875 42.464844 C 35.78125 41.625 35.6875 40.804688 35.6875 39.992188 C 35.6875 39.199219 35.585938 38.539063 35.496094 37.691406 C 32.882813 37.691406 30.246094 37.667969 27.835938 37.871094 C 27.722656 38.792969 28.058594 39.476563 27.800781 40.394531 C 27.320313 41.003906 26.535156 41.359375 25.511719 41.382813 C 24.53125 41.414063 23.441406 41.21875 23.035156 40.542969 C 23.023438 40.511719 23.003906 40.5 23.003906 40.472656 C 22.625 39.417969 22.667969 37.789063 22.695313 36.277344 C 22.71875 35.542969 22.667969 34.816406 22.605469 34.070313 C 22.5625 33.277344 22.648438 32.476563 22.605469 31.761719 C 22.550781 30.910156 22.382813 29.769531 22.667969 29.164063 C 23.082031 28.25 25.253906 27.945313 26.492188 28.453125 C 27.554688 28.871094 27.710938 29.863281 27.75 31.261719 C 30.207031 31.402344 32.820313 31.253906 35.261719 31.167969 C 35.429688 30.710938 35.398438 30.199219 35.398438 29.703125 Z M 35.398438 29.703125 "/>
<path style=" stroke:none;fill-rule:evenodd;fill:rgb(100%,100%,100%);fill-opacity:1;" d="M 72.617188 21.777344 C 70.929688 21.777344 69.199219 21.65625 67.515625 21.777344 C 66.210938 21.875 64.292969 22.320313 63.519531 22.992188 C 63.144531 23.320313 62.84375 23.949219 62.605469 24.503906 C 62.382813 25.015625 62.039063 25.761719 61.953125 26.285156 C 61.886719 26.699219 61.925781 27.199219 61.902344 27.65625 C 61.59375 34.394531 61.414063 41.832031 61.5 48.644531 C 63.972656 48.757813 66.519531 48.644531 69.078125 48.671875 C 69.210938 46.207031 69.128906 43.414063 69.128906 40.789063 C 69.128906 39.933594 69.210938 38.964844 69.648438 38.636719 C 70 38.359375 70.804688 38.265625 71.34375 38.203125 C 73.402344 37.964844 75.671875 38.359375 77.652344 38.148438 C 77.824219 36.242188 77.664063 34.128906 77.703125 32.105469 C 76.488281 31.996094 75.089844 32.082031 73.65625 32.082031 C 71.914063 32.082031 69.839844 32.34375 69.300781 31.109375 C 69.003906 30.4375 69.089844 28.90625 69.433594 28.445313 C 69.710938 28.113281 70.5 27.875 71.121094 27.773438 C 73.085938 27.417969 75.769531 27.890625 77.703125 27.675781 L 77.703125 21.777344 Z M 72.617188 21.777344 "/>
<path style=" stroke:none;fill-rule:evenodd;fill:rgb(100%,100%,100%);fill-opacity:1;" d="M 31.175781 58.429688 C 31.125 57.617188 31.097656 56.71875 30.902344 56.109375 C 30.710938 55.542969 30.101563 54.976563 29.585938 54.609375 C 27.945313 53.398438 25.398438 53.019531 22.550781 53.15625 C 19.847656 53.289063 17.503906 53.644531 16.136719 55.171875 C 15.722656 55.648438 15.28125 56.296875 15.183594 56.988281 C 15.101563 57.492188 15.183594 58.097656 15.183594 58.660156 C 15.183594 61.542969 15.292969 64.113281 15.402344 66.804688 C 15.449219 67.890625 15.347656 69.066406 15.460938 70.101563 C 15.554688 70.855469 15.980469 71.640625 16.453125 72.195313 C 17.933594 73.902344 20.5625 74.40625 23.601563 74.316406 C 25.484375 74.269531 27.347656 74.082031 28.832031 73.328125 C 30.128906 72.671875 31.289063 71.4375 31.433594 69.699219 C 31.550781 68.386719 31.433594 67.292969 31.265625 65.953125 C 29.199219 65.949219 27.132813 65.929688 25.214844 66.09375 C 25.136719 66.808594 25.410156 67.375 25.191406 68.109375 C 24.566406 69.070313 21.941406 69.195313 21.421875 68.164063 C 21.0625 67.449219 21.167969 66.007813 21.167969 64.875 C 21.167969 63.648438 21.167969 62.328125 21.113281 61.300781 C 21.074219 60.601563 20.921875 59.664063 21.167969 59.164063 C 21.667969 58.195313 24.386719 58.238281 24.917969 59.289063 C 25.136719 59.746094 25.070313 60.214844 25.164063 60.871094 C 27.113281 60.996094 29.132813 60.859375 31.097656 60.816406 C 31.316406 60.101563 31.238281 59.25 31.175781 58.429688 Z M 31.175781 58.429688 "/>
<path style=" stroke:none;fill-rule:evenodd;fill:rgb(100%,100%,100%);fill-opacity:1;" d="M 56.125 54.464844 C 54.820313 54.457031 53.507813 54.367188 52.242188 54.457031 C 51.140625 54.542969 49.761719 54.835938 49.109375 55.390625 C 48.585938 55.847656 48.0625 57.175781 47.910156 57.949219 C 47.796875 58.585938 47.847656 59.398438 47.796875 60.132813 C 47.574219 64.894531 47.523438 70.230469 47.546875 74.96875 C 49.375 75.101563 51.585938 75.007813 53.371094 74.996094 C 53.457031 73.714844 53.394531 72.460938 53.394531 71.023438 C 53.394531 69.964844 53.160156 67.789063 53.765625 67.34375 C 54.03125 67.128906 54.671875 67.074219 55.097656 67.03125 C 56.675781 66.859375 58.402344 67.136719 59.898438 66.976563 C 60.003906 65.539063 59.921875 63.734375 59.90625 62.34375 C 59.054688 62.34375 57.921875 62.269531 56.824219 62.316406 C 55.734375 62.375 54.699219 62.46875 54.015625 62.09375 C 53.535156 61.824219 53.394531 61.390625 53.394531 60.699219 C 53.394531 59.550781 53.824219 59.25 54.804688 59.054688 C 56.441406 58.746094 58.320313 59.191406 59.949219 58.964844 L 59.949219 54.492188 C 58.667969 54.433594 57.390625 54.457031 56.121094 54.464844 Z M 56.125 54.464844 "/>
<path style=" stroke:none;fill-rule:evenodd;fill:rgb(100%,100%,100%);fill-opacity:1;" d="M 65.648438 56.734375 C 64.773438 56.785156 63.722656 57 63.1875 57.464844 C 62.785156 57.808594 62.304688 58.984375 62.21875 59.566406 C 62.136719 60.117188 62.1875 60.699219 62.160156 61.265625 C 61.96875 65.191406 61.890625 69.34375 61.925781 73.386719 C 63.453125 73.421875 65.277344 73.445313 66.644531 73.351563 C 66.738281 72.394531 66.671875 71.261719 66.671875 70.144531 C 66.671875 69.066406 66.515625 67.863281 66.992188 67.171875 C 68.285156 66.625 70.28125 67.015625 71.9375 66.878906 C 72.078125 65.675781 71.953125 64.378906 71.964844 63.117188 C 70.847656 63.007813 69.492188 63.148438 68.34375 63.132813 C 67.652344 63.132813 66.933594 62.957031 66.753906 62.484375 C 66.660156 62.261719 66.6875 61.910156 66.699219 61.667969 C 66.722656 60.785156 67.046875 60.589844 67.816406 60.445313 C 69.117188 60.207031 70.761719 60.535156 71.964844 60.390625 L 71.964844 56.734375 C 69.921875 56.804688 67.707031 56.59375 65.648438 56.734375 Z M 65.648438 56.734375 "/>
<path style=" stroke:none;fill-rule:evenodd;fill:rgb(100%,100%,100%);fill-opacity:1;" d="M 46.925781 81.722656 C 47.199219 85.425781 46.207031 90.203125 47.746094 92.671875 C 48.128906 93.300781 48.710938 93.617188 49.238281 94.117188 C 49.472656 94.128906 49.667969 94.328125 49.902344 94.398438 C 50.730469 94.652344 51.90625 94.542969 52.96875 94.542969 C 54.066406 94.542969 55.144531 94.476563 56.023438 94.652344 C 56.125 95.328125 56.023438 95.984375 55.71875 96.367188 C 53.507813 96.941406 50.203125 96.421875 47.660156 96.644531 C 47.546875 98.054688 47.660156 99.523438 47.636719 101.011719 C 49.925781 101.015625 52.386719 101.113281 54.75 101.015625 C 56.894531 100.929688 59.261719 100.503906 60.140625 99.195313 C 60.40625 98.808594 60.625 98.21875 60.792969 97.6875 C 60.988281 97.128906 61.152344 96.476563 61.191406 95.90625 C 61.28125 94.777344 61.191406 93.550781 61.191406 92.363281 L 61.191406 81.691406 C 59.359375 81.601563 57.269531 81.601563 55.433594 81.691406 C 55.433594 84.480469 55.527344 87.316406 55.34375 89.980469 C 54.621094 90.234375 53.535156 90.101563 53.109375 89.71875 C 52.773438 89.429688 52.578125 88.757813 52.511719 88.128906 C 52.28125 86.078125 52.65625 83.480469 52.398438 81.636719 C 50.589844 81.636719 48.792969 81.644531 46.980469 81.636719 C 46.941406 81.644531 46.925781 81.671875 46.925781 81.722656 Z M 46.925781 81.722656 "/>
<path style=" stroke:none;fill-rule:evenodd;fill:rgb(100%,100%,100%);fill-opacity:1;" d="M 49.621094 41.074219 C 48.363281 41.109375 47.300781 41.046875 46.527344 40.5625 C 46.265625 40.402344 45.972656 40.238281 45.878906 40.015625 C 45.558594 39.414063 45.671875 38.253906 45.726563 37.445313 C 45.75 37.148438 45.710938 36.792969 45.773438 36.558594 C 45.957031 36.019531 47.054688 35.703125 47.855469 35.652344 C 48.570313 35.605469 49.207031 35.714844 49.789063 35.824219 C 49.902344 37.484375 50.066406 39.65625 49.621094 41.074219 Z M 56.5625 27.328125 C 56.511719 26.820313 56.339844 26.203125 56.203125 25.699219 C 55.8125 24.394531 55.34375 23.839844 54.128906 23.34375 C 52.398438 22.640625 49.8125 22.554688 47.457031 22.667969 C 45.585938 22.75 43.71875 22.722656 41.78125 22.691406 C 41.910156 24.351563 41.792969 26.105469 41.808594 27.820313 C 42.75 27.902344 44.09375 27.875 45.449219 27.875 C 46.757813 27.882813 48.117188 27.773438 48.90625 28.140625 C 49.777344 28.535156 49.96875 29.640625 49.554688 30.664063 C 46.640625 30.585938 42.890625 30.269531 41.054688 31.511719 C 40.800781 31.679688 40.539063 31.90625 40.398438 32.136719 C 39.625 33.324219 39.554688 35.285156 39.492188 37.097656 C 39.449219 38.46875 39.53125 39.984375 39.625 41.300781 C 39.667969 41.761719 39.640625 42.269531 39.738281 42.65625 C 39.820313 43.023438 40.097656 43.363281 40.296875 43.683594 C 40.761719 44.480469 41.175781 44.871094 42.015625 45.269531 C 42.167969 45.355469 42.28125 45.433594 42.402344 45.476563 C 43.371094 45.726563 44.5625 45.839844 45.726563 45.917969 C 49.238281 46.167969 53.226563 45.851563 56.5625 45.867188 L 56.5625 29.640625 C 56.5625 28.867188 56.648438 28.058594 56.5625 27.328125 Z M 56.5625 27.328125 "/>
<path style=" stroke:none;fill-rule:evenodd;fill:rgb(100%,100%,100%);fill-opacity:1;" d="M 92.984375 31 C 92.96875 31.320313 92.996094 31.734375 92.898438 32.015625 C 92.828125 32.222656 92.539063 32.476563 92.34375 32.585938 C 91.476563 33.09375 89.773438 33.054688 88.621094 32.8125 C 88.527344 30.996094 88.265625 28.675781 88.839844 27.199219 C 90.328125 27.046875 92.332031 27.351563 92.8125 28.328125 C 93.148438 28.96875 93.066406 30.117188 92.984375 31 Z M 99.507813 26.878906 C 99.480469 26.398438 99.507813 25.839844 99.390625 25.4375 C 99.332031 25.179688 99.078125 24.820313 98.886719 24.503906 C 98.707031 24.191406 98.539063 23.875 98.316406 23.617188 C 97.984375 23.246094 97.558594 22.929688 97.042969 22.722656 C 96.847656 22.628906 96.714844 22.5 96.566406 22.457031 C 95.375 22.125 93.53125 21.964844 92.082031 22.039063 C 90.46875 22.109375 88.710938 22.027344 87.148438 22.039063 C 85.609375 22.042969 84.160156 22.472656 83.230469 23.078125 C 82.832031 23.34375 82.488281 24.054688 82.269531 24.558594 C 82.027344 25.105469 81.753906 25.742188 81.671875 26.289063 C 81.585938 26.878906 81.640625 27.566406 81.617188 28.222656 C 81.480469 31.386719 81.363281 34.667969 81.351563 37.949219 C 81.351563 39.28125 81.226563 40.648438 81.351563 41.953125 C 81.40625 42.464844 81.601563 43.066406 81.753906 43.621094 C 81.917969 44.191406 82.101563 44.773438 82.351563 45.113281 C 82.890625 45.863281 84.117188 46.320313 85.199219 46.570313 C 88.933594 47.429688 92.96875 46.625 97.222656 46.882813 C 97.101563 45.148438 97.195313 43.113281 97.15625 41.378906 C 96.097656 41.292969 94.695313 41.324219 93.324219 41.324219 C 91.96875 41.324219 90.617188 41.449219 89.703125 41.097656 C 88.699219 40.71875 88.375 39.515625 88.875 38.34375 C 90.640625 38.425781 92.488281 38.496094 94.160156 38.398438 C 95.75 38.3125 97.347656 38.054688 98.316406 37.183594 C 98.992188 36.5625 99.273438 35.445313 99.46875 34.292969 C 99.824219 31.996094 99.691406 29.273438 99.507813 26.878906 Z M 99.507813 26.878906 "/>
<path style=" stroke:none;fill-rule:evenodd;fill:rgb(100%,100%,100%);fill-opacity:1;" d="M 82.582031 60.617188 C 82.128906 61.351563 80.601563 61.363281 79.539063 61.15625 C 79.453125 59.910156 79.28125 58.183594 79.699219 57.152344 C 80.703125 57.035156 82.179688 57.269531 82.53125 57.949219 C 82.863281 58.601563 82.570313 59.632813 82.582031 60.617188 Z M 87.296875 57.011719 C 87.261719 56.632813 87.296875 56.238281 87.230469 55.9375 C 87.160156 55.652344 86.925781 55.320313 86.773438 55.078125 C 86.605469 54.808594 86.414063 54.523438 86.203125 54.339844 C 85.476563 53.6875 84.226563 53.476563 82.804688 53.441406 C 81.917969 53.410156 80.953125 53.398438 80.136719 53.441406 C 79.398438 53.476563 78.394531 53.398438 77.566406 53.550781 C 76.890625 53.671875 76.117188 53.828125 75.628906 54.230469 C 75.183594 54.601563 74.628906 55.847656 74.550781 56.503906 C 74.496094 56.933594 74.550781 57.40625 74.523438 57.894531 C 74.414063 60.132813 74.328125 62.449219 74.328125 64.785156 C 74.328125 65.730469 74.25 66.707031 74.328125 67.617188 C 74.398438 68.40625 74.703125 69.480469 75.066406 69.976563 C 75.453125 70.496094 76.320313 70.800781 77.058594 70.972656 C 79.710938 71.589844 82.632813 71.023438 85.671875 71.191406 C 85.558594 69.976563 85.65625 68.476563 85.609375 67.253906 C 84.171875 66.992188 81.171875 67.613281 80.085938 66.976563 C 79.515625 66.640625 79.414063 65.839844 79.699219 65.09375 C 82.113281 65.109375 85.621094 65.546875 86.691406 64.015625 C 86.996094 63.59375 87.121094 62.941406 87.230469 62.316406 C 87.507813 60.679688 87.394531 58.707031 87.296875 57.011719 Z M 87.296875 57.011719 "/>
<path style=" stroke:none;fill-rule:evenodd;fill:rgb(100%,100%,100%);fill-opacity:1;" d="M 93.367188 61.804688 C 93.273438 60.710938 93.183594 59.316406 93.457031 58.34375 C 94.324219 58.246094 95.675781 58.425781 95.96875 59.054688 C 96.097656 59.324219 96.097656 59.8125 96.097656 60.195313 C 96.066406 60.523438 96.109375 61.015625 95.996094 61.320313 C 95.746094 62.039063 94.222656 61.984375 93.367188 61.804688 Z M 99.175781 64.695313 C 100.042969 64.136719 100.195313 62.398438 100.222656 60.976563 C 100.257813 59.734375 100.113281 58.445313 100.0625 57.257813 C 99.664063 56.441406 99.214844 55.679688 98.25 55.363281 C 97.464844 55.113281 96.421875 55.113281 95.398438 55.113281 C 94.347656 55.101563 93.242188 55.074219 92.34375 55.113281 C 91.597656 55.144531 90.40625 55.390625 89.925781 55.816406 C 89.703125 56.011719 89.527344 56.398438 89.386719 56.734375 C 89.246094 57.050781 89.070313 57.464844 89.027344 57.808594 C 88.96875 58.183594 89.011719 58.59375 88.980469 58.992188 C 88.917969 60.949219 88.816406 62.960938 88.816406 64.984375 C 88.816406 65.8125 88.75 66.671875 88.816406 67.449219 C 88.890625 68.140625 89.191406 69.15625 89.484375 69.519531 C 89.8125 69.964844 90.5625 70.222656 91.210938 70.378906 C 93.46875 70.902344 96.148438 70.390625 98.691406 70.566406 C 98.582031 69.472656 98.675781 68.296875 98.664063 67.144531 C 97.101563 66.851563 93.964844 67.6875 93.457031 66.421875 C 93.300781 66.085938 93.367188 65.632813 93.507813 65.261719 C 95.4375 65.316406 97.929688 65.496094 99.175781 64.695313 Z M 99.175781 64.695313 "/>
<path style=" stroke:none;fill-rule:evenodd;fill:rgb(100%,100%,100%);fill-opacity:1;" d="M 40.941406 66.601563 C 40.527344 67.515625 38.355469 67.550781 37.871094 66.6875 C 37.773438 64.238281 37.757813 61.648438 37.886719 59.199219 C 37.964844 59.203125 38.054688 59.203125 38.160156 59.199219 C 38.105469 59.132813 37.964844 59.148438 37.898438 59.082031 C 38.023438 58.144531 40.554688 58.074219 40.886719 58.972656 C 40.953125 59.164063 40.902344 59.425781 40.914063 59.632813 C 40.996094 61.765625 40.914063 64.453125 40.941406 66.601563 Z M 45.558594 58.542969 C 45.542969 58.097656 45.574219 57.585938 45.476563 57.195313 C 45.351563 56.675781 44.882813 56.121094 44.453125 55.789063 C 43.074219 54.683594 40.875 54.492188 38.453125 54.519531 C 38.410156 54.523438 38.410156 54.5625 38.410156 54.609375 C 38.410156 54.609375 38.394531 54.601563 38.378906 54.609375 C 36.269531 54.664063 34.625 55.222656 33.824219 56.53125 C 33.714844 56.703125 33.527344 56.925781 33.476563 57.152344 C 33.378906 57.535156 33.414063 58.0625 33.390625 58.519531 C 33.257813 61.292969 33.269531 64.335938 33.390625 67.03125 C 33.402344 67.503906 33.402344 68.003906 33.476563 68.414063 C 33.554688 68.792969 34.136719 69.757813 34.382813 69.949219 C 36.597656 71.792969 43.308594 71.878906 44.90625 69.574219 C 45.078125 69.34375 45.449219 68.59375 45.503906 68.328125 C 45.574219 67.929688 45.542969 67.425781 45.574219 66.976563 C 45.699219 64.214844 45.6875 61.289063 45.558594 58.542969 Z M 45.558594 58.542969 "/>
<path style=" stroke:none;fill-rule:evenodd;fill:rgb(100%,100%,100%);fill-opacity:1;" d="M 24.40625 94.378906 C 24.296875 94.753906 23.726563 95.160156 23.378906 95.320313 C 22.925781 95.535156 22.304688 95.609375 21.738281 95.480469 C 21.667969 92.121094 21.402344 88.824219 21.542969 85.363281 C 22.042969 84.578125 23.738281 85.269531 24.035156 85.78125 C 24.195313 86.082031 24.242188 86.734375 24.296875 87.257813 C 24.351563 87.773438 24.386719 88.335938 24.40625 88.84375 C 24.449219 90.097656 24.285156 91.421875 24.40625 92.25 C 24.417969 92.371094 24.417969 92.308594 24.460938 92.371094 C 24.476563 92.726563 24.449219 93.050781 24.433594 93.386719 C 24.417969 93.714844 24.492188 94.082031 24.40625 94.378906 Z M 30.667969 85.613281 C 30.585938 84.8125 30.207031 83.992188 29.839844 83.339844 C 29.453125 82.660156 29.039063 82.089844 28.457031 81.640625 C 27.101563 80.609375 25.054688 80.316406 22.898438 80.421875 C 20.617188 80.527344 18.046875 80.390625 15.800781 80.589844 C 15.75 87.289063 16.054688 93.609375 16.175781 100.105469 C 19.164063 99.96875 21.96875 100.105469 24.835938 99.96875 C 25.757813 99.925781 26.726563 99.898438 27.519531 99.683594 C 29.585938 99.113281 30.679688 96.800781 30.679688 94.226563 C 30.679688 92.085938 30.679688 89.878906 30.667969 87.773438 C 30.679688 87.039063 30.75 86.3125 30.667969 85.613281 Z M 30.667969 85.613281 "/>
<path style=" stroke:none;fill-rule:evenodd;fill:rgb(100%,100%,100%);fill-opacity:1;" d="M 39.597656 94.171875 C 38.796875 94.371094 37.605469 94.214844 37.320313 93.605469 C 37.121094 93.246094 37.113281 91.996094 37.320313 91.511719 C 37.578125 90.863281 38.894531 90.910156 39.695313 91.085938 C 39.667969 92.117188 39.761719 93.273438 39.597656 94.171875 Z M 43.207031 83.367188 C 42.710938 82.917969 41.792969 82.757813 40.992188 82.671875 C 38.894531 82.40625 36.851563 82.675781 34.605469 82.601563 C 34.640625 83.703125 34.554688 84.894531 34.679688 85.890625 C 36.542969 86.183594 40.398438 85.0625 39.644531 87.589844 C 37.859375 87.8125 35.648438 87.355469 34.382813 88.042969 C 33.824219 88.367188 33.699219 88.929688 33.335938 89.472656 C 33.28125 90.550781 33.179688 91.695313 33.140625 92.84375 C 33.101563 94.003906 33.140625 95.226563 33.570313 95.996094 C 33.75 96.328125 34.347656 96.898438 34.664063 97.046875 C 35.230469 97.289063 36.015625 97.335938 36.777344 97.40625 C 39.078125 97.628906 41.714844 97.433594 44.042969 97.441406 C 44.132813 94.695313 44.09375 91.484375 44.09375 88.640625 C 44.09375 86.566406 44.261719 84.3125 43.207031 83.367188 Z M 43.207031 83.367188 "/>
</g>
</svg>
